<mxfile host="app.diagrams.net" modified="2023-08-12T15:54:30.589Z" agent="Mozilla/5.0 (Macintosh; Intel Mac OS X 10_15_7) AppleWebKit/537.36 (KHTML, like Gecko) Chrome/114.0.0.0 Safari/537.36" etag="lXQh0PiRoa2Xt9y-04J0" version="21.3.7" type="device">
  <diagram id="C5RBs43oDa-KdzZeNtuy" name="Page-1">
    <mxGraphModel dx="1480" dy="1056" grid="1" gridSize="10" guides="1" tooltips="1" connect="1" arrows="1" fold="1" page="1" pageScale="1" pageWidth="827" pageHeight="1169" math="0" shadow="0">
      <root>
        <mxCell id="WIyWlLk6GJQsqaUBKTNV-0" />
        <mxCell id="WIyWlLk6GJQsqaUBKTNV-1" parent="WIyWlLk6GJQsqaUBKTNV-0" />
        <mxCell id="zkfFHV4jXpPFQw0GAbJ--0" value="Person" style="swimlane;fontStyle=2;align=center;verticalAlign=top;childLayout=stackLayout;horizontal=1;startSize=26;horizontalStack=0;resizeParent=1;resizeLast=0;collapsible=1;marginBottom=0;rounded=0;shadow=0;strokeWidth=1;" parent="WIyWlLk6GJQsqaUBKTNV-1" vertex="1">
          <mxGeometry x="220" y="120" width="160" height="138" as="geometry">
            <mxRectangle x="220" y="120" width="160" height="26" as="alternateBounds" />
          </mxGeometry>
        </mxCell>
        <mxCell id="zkfFHV4jXpPFQw0GAbJ--1" value="Name" style="text;align=left;verticalAlign=top;spacingLeft=4;spacingRight=4;overflow=hidden;rotatable=0;points=[[0,0.5],[1,0.5]];portConstraint=eastwest;" parent="zkfFHV4jXpPFQw0GAbJ--0" vertex="1">
          <mxGeometry y="26" width="160" height="26" as="geometry" />
        </mxCell>
        <mxCell id="zkfFHV4jXpPFQw0GAbJ--2" value="Phone Number" style="text;align=left;verticalAlign=top;spacingLeft=4;spacingRight=4;overflow=hidden;rotatable=0;points=[[0,0.5],[1,0.5]];portConstraint=eastwest;rounded=0;shadow=0;html=0;" parent="zkfFHV4jXpPFQw0GAbJ--0" vertex="1">
          <mxGeometry y="52" width="160" height="26" as="geometry" />
        </mxCell>
        <mxCell id="zkfFHV4jXpPFQw0GAbJ--3" value="Email Address" style="text;align=left;verticalAlign=top;spacingLeft=4;spacingRight=4;overflow=hidden;rotatable=0;points=[[0,0.5],[1,0.5]];portConstraint=eastwest;rounded=0;shadow=0;html=0;" parent="zkfFHV4jXpPFQw0GAbJ--0" vertex="1">
          <mxGeometry y="78" width="160" height="26" as="geometry" />
        </mxCell>
        <mxCell id="zkfFHV4jXpPFQw0GAbJ--4" value="" style="line;html=1;strokeWidth=1;align=left;verticalAlign=middle;spacingTop=-1;spacingLeft=3;spacingRight=3;rotatable=0;labelPosition=right;points=[];portConstraint=eastwest;" parent="zkfFHV4jXpPFQw0GAbJ--0" vertex="1">
          <mxGeometry y="104" width="160" height="8" as="geometry" />
        </mxCell>
        <mxCell id="zkfFHV4jXpPFQw0GAbJ--5" value="Purchase Parking Pass" style="text;align=left;verticalAlign=top;spacingLeft=4;spacingRight=4;overflow=hidden;rotatable=0;points=[[0,0.5],[1,0.5]];portConstraint=eastwest;" parent="zkfFHV4jXpPFQw0GAbJ--0" vertex="1">
          <mxGeometry y="112" width="160" height="26" as="geometry" />
        </mxCell>
        <mxCell id="zkfFHV4jXpPFQw0GAbJ--6" value="Student" style="swimlane;fontStyle=0;align=center;verticalAlign=top;childLayout=stackLayout;horizontal=1;startSize=26;horizontalStack=0;resizeParent=1;resizeLast=0;collapsible=1;marginBottom=0;rounded=0;shadow=0;strokeWidth=1;" parent="WIyWlLk6GJQsqaUBKTNV-1" vertex="1">
          <mxGeometry x="120" y="360" width="160" height="138" as="geometry">
            <mxRectangle x="130" y="380" width="160" height="26" as="alternateBounds" />
          </mxGeometry>
        </mxCell>
        <mxCell id="zkfFHV4jXpPFQw0GAbJ--7" value="Student Number" style="text;align=left;verticalAlign=top;spacingLeft=4;spacingRight=4;overflow=hidden;rotatable=0;points=[[0,0.5],[1,0.5]];portConstraint=eastwest;" parent="zkfFHV4jXpPFQw0GAbJ--6" vertex="1">
          <mxGeometry y="26" width="160" height="26" as="geometry" />
        </mxCell>
        <mxCell id="zkfFHV4jXpPFQw0GAbJ--8" value="Average Mark" style="text;align=left;verticalAlign=top;spacingLeft=4;spacingRight=4;overflow=hidden;rotatable=0;points=[[0,0.5],[1,0.5]];portConstraint=eastwest;rounded=0;shadow=0;html=0;" parent="zkfFHV4jXpPFQw0GAbJ--6" vertex="1">
          <mxGeometry y="52" width="160" height="26" as="geometry" />
        </mxCell>
        <mxCell id="zkfFHV4jXpPFQw0GAbJ--9" value="" style="line;html=1;strokeWidth=1;align=left;verticalAlign=middle;spacingTop=-1;spacingLeft=3;spacingRight=3;rotatable=0;labelPosition=right;points=[];portConstraint=eastwest;" parent="zkfFHV4jXpPFQw0GAbJ--6" vertex="1">
          <mxGeometry y="78" width="160" height="8" as="geometry" />
        </mxCell>
        <mxCell id="zkfFHV4jXpPFQw0GAbJ--10" value="Is Eligible To Enroll" style="text;align=left;verticalAlign=top;spacingLeft=4;spacingRight=4;overflow=hidden;rotatable=0;points=[[0,0.5],[1,0.5]];portConstraint=eastwest;fontStyle=4" parent="zkfFHV4jXpPFQw0GAbJ--6" vertex="1">
          <mxGeometry y="86" width="160" height="26" as="geometry" />
        </mxCell>
        <mxCell id="zkfFHV4jXpPFQw0GAbJ--11" value="Get Seminars Taken" style="text;align=left;verticalAlign=top;spacingLeft=4;spacingRight=4;overflow=hidden;rotatable=0;points=[[0,0.5],[1,0.5]];portConstraint=eastwest;" parent="zkfFHV4jXpPFQw0GAbJ--6" vertex="1">
          <mxGeometry y="112" width="160" height="26" as="geometry" />
        </mxCell>
        <mxCell id="zkfFHV4jXpPFQw0GAbJ--12" value="" style="endArrow=block;endSize=10;endFill=0;shadow=0;strokeWidth=1;rounded=0;edgeStyle=elbowEdgeStyle;elbow=vertical;" parent="WIyWlLk6GJQsqaUBKTNV-1" source="zkfFHV4jXpPFQw0GAbJ--6" target="zkfFHV4jXpPFQw0GAbJ--0" edge="1">
          <mxGeometry width="160" relative="1" as="geometry">
            <mxPoint x="200" y="203" as="sourcePoint" />
            <mxPoint x="200" y="203" as="targetPoint" />
          </mxGeometry>
        </mxCell>
        <mxCell id="zkfFHV4jXpPFQw0GAbJ--13" value="Professor" style="swimlane;fontStyle=0;align=center;verticalAlign=top;childLayout=stackLayout;horizontal=1;startSize=26;horizontalStack=0;resizeParent=1;resizeLast=0;collapsible=1;marginBottom=0;rounded=0;shadow=0;strokeWidth=1;" parent="WIyWlLk6GJQsqaUBKTNV-1" vertex="1">
          <mxGeometry x="330" y="360" width="160" height="70" as="geometry">
            <mxRectangle x="340" y="380" width="170" height="26" as="alternateBounds" />
          </mxGeometry>
        </mxCell>
        <mxCell id="zkfFHV4jXpPFQw0GAbJ--14" value="Salary" style="text;align=left;verticalAlign=top;spacingLeft=4;spacingRight=4;overflow=hidden;rotatable=0;points=[[0,0.5],[1,0.5]];portConstraint=eastwest;" parent="zkfFHV4jXpPFQw0GAbJ--13" vertex="1">
          <mxGeometry y="26" width="160" height="26" as="geometry" />
        </mxCell>
        <mxCell id="zkfFHV4jXpPFQw0GAbJ--15" value="" style="line;html=1;strokeWidth=1;align=left;verticalAlign=middle;spacingTop=-1;spacingLeft=3;spacingRight=3;rotatable=0;labelPosition=right;points=[];portConstraint=eastwest;" parent="zkfFHV4jXpPFQw0GAbJ--13" vertex="1">
          <mxGeometry y="52" width="160" height="8" as="geometry" />
        </mxCell>
        <mxCell id="zkfFHV4jXpPFQw0GAbJ--16" value="" style="endArrow=block;endSize=10;endFill=0;shadow=0;strokeWidth=1;rounded=0;edgeStyle=elbowEdgeStyle;elbow=vertical;" parent="WIyWlLk6GJQsqaUBKTNV-1" source="zkfFHV4jXpPFQw0GAbJ--13" target="zkfFHV4jXpPFQw0GAbJ--0" edge="1">
          <mxGeometry width="160" relative="1" as="geometry">
            <mxPoint x="210" y="373" as="sourcePoint" />
            <mxPoint x="310" y="271" as="targetPoint" />
          </mxGeometry>
        </mxCell>
        <mxCell id="zkfFHV4jXpPFQw0GAbJ--17" value="Address" style="swimlane;fontStyle=0;align=center;verticalAlign=top;childLayout=stackLayout;horizontal=1;startSize=26;horizontalStack=0;resizeParent=1;resizeLast=0;collapsible=1;marginBottom=0;rounded=0;shadow=0;strokeWidth=1;" parent="WIyWlLk6GJQsqaUBKTNV-1" vertex="1">
          <mxGeometry x="508" y="120" width="160" height="216" as="geometry">
            <mxRectangle x="550" y="140" width="160" height="26" as="alternateBounds" />
          </mxGeometry>
        </mxCell>
        <mxCell id="zkfFHV4jXpPFQw0GAbJ--18" value="Street" style="text;align=left;verticalAlign=top;spacingLeft=4;spacingRight=4;overflow=hidden;rotatable=0;points=[[0,0.5],[1,0.5]];portConstraint=eastwest;" parent="zkfFHV4jXpPFQw0GAbJ--17" vertex="1">
          <mxGeometry y="26" width="160" height="26" as="geometry" />
        </mxCell>
        <mxCell id="zkfFHV4jXpPFQw0GAbJ--19" value="City" style="text;align=left;verticalAlign=top;spacingLeft=4;spacingRight=4;overflow=hidden;rotatable=0;points=[[0,0.5],[1,0.5]];portConstraint=eastwest;rounded=0;shadow=0;html=0;" parent="zkfFHV4jXpPFQw0GAbJ--17" vertex="1">
          <mxGeometry y="52" width="160" height="26" as="geometry" />
        </mxCell>
        <mxCell id="zkfFHV4jXpPFQw0GAbJ--20" value="State" style="text;align=left;verticalAlign=top;spacingLeft=4;spacingRight=4;overflow=hidden;rotatable=0;points=[[0,0.5],[1,0.5]];portConstraint=eastwest;rounded=0;shadow=0;html=0;" parent="zkfFHV4jXpPFQw0GAbJ--17" vertex="1">
          <mxGeometry y="78" width="160" height="26" as="geometry" />
        </mxCell>
        <mxCell id="zkfFHV4jXpPFQw0GAbJ--21" value="Postal Code" style="text;align=left;verticalAlign=top;spacingLeft=4;spacingRight=4;overflow=hidden;rotatable=0;points=[[0,0.5],[1,0.5]];portConstraint=eastwest;rounded=0;shadow=0;html=0;" parent="zkfFHV4jXpPFQw0GAbJ--17" vertex="1">
          <mxGeometry y="104" width="160" height="26" as="geometry" />
        </mxCell>
        <mxCell id="zkfFHV4jXpPFQw0GAbJ--22" value="Country" style="text;align=left;verticalAlign=top;spacingLeft=4;spacingRight=4;overflow=hidden;rotatable=0;points=[[0,0.5],[1,0.5]];portConstraint=eastwest;rounded=0;shadow=0;html=0;" parent="zkfFHV4jXpPFQw0GAbJ--17" vertex="1">
          <mxGeometry y="130" width="160" height="26" as="geometry" />
        </mxCell>
        <mxCell id="zkfFHV4jXpPFQw0GAbJ--23" value="" style="line;html=1;strokeWidth=1;align=left;verticalAlign=middle;spacingTop=-1;spacingLeft=3;spacingRight=3;rotatable=0;labelPosition=right;points=[];portConstraint=eastwest;strokeColor=none;" parent="zkfFHV4jXpPFQw0GAbJ--17" vertex="1">
          <mxGeometry y="156" width="160" height="8" as="geometry" />
        </mxCell>
        <mxCell id="zkfFHV4jXpPFQw0GAbJ--24" value="Validate" style="text;align=left;verticalAlign=top;spacingLeft=4;spacingRight=4;overflow=hidden;rotatable=0;points=[[0,0.5],[1,0.5]];portConstraint=eastwest;strokeColor=none;" parent="zkfFHV4jXpPFQw0GAbJ--17" vertex="1">
          <mxGeometry y="164" width="160" height="26" as="geometry" />
        </mxCell>
        <mxCell id="zkfFHV4jXpPFQw0GAbJ--25" value="Output As Label" style="text;align=left;verticalAlign=top;spacingLeft=4;spacingRight=4;overflow=hidden;rotatable=0;points=[[0,0.5],[1,0.5]];portConstraint=eastwest;" parent="zkfFHV4jXpPFQw0GAbJ--17" vertex="1">
          <mxGeometry y="190" width="160" height="26" as="geometry" />
        </mxCell>
        <mxCell id="zkfFHV4jXpPFQw0GAbJ--26" value="" style="endArrow=open;shadow=0;strokeWidth=1;rounded=0;endFill=1;edgeStyle=elbowEdgeStyle;elbow=vertical;" parent="WIyWlLk6GJQsqaUBKTNV-1" source="zkfFHV4jXpPFQw0GAbJ--0" target="zkfFHV4jXpPFQw0GAbJ--17" edge="1">
          <mxGeometry x="0.5" y="41" relative="1" as="geometry">
            <mxPoint x="380" y="192" as="sourcePoint" />
            <mxPoint x="540" y="192" as="targetPoint" />
            <mxPoint x="-40" y="32" as="offset" />
          </mxGeometry>
        </mxCell>
        <mxCell id="zkfFHV4jXpPFQw0GAbJ--27" value="0..1" style="resizable=0;align=left;verticalAlign=bottom;labelBackgroundColor=none;fontSize=12;" parent="zkfFHV4jXpPFQw0GAbJ--26" connectable="0" vertex="1">
          <mxGeometry x="-1" relative="1" as="geometry">
            <mxPoint y="4" as="offset" />
          </mxGeometry>
        </mxCell>
        <mxCell id="zkfFHV4jXpPFQw0GAbJ--28" value="1" style="resizable=0;align=right;verticalAlign=bottom;labelBackgroundColor=none;fontSize=12;" parent="zkfFHV4jXpPFQw0GAbJ--26" connectable="0" vertex="1">
          <mxGeometry x="1" relative="1" as="geometry">
            <mxPoint x="-7" y="4" as="offset" />
          </mxGeometry>
        </mxCell>
        <mxCell id="zkfFHV4jXpPFQw0GAbJ--29" value="lives at" style="text;html=1;resizable=0;points=[];;align=center;verticalAlign=middle;labelBackgroundColor=none;rounded=0;shadow=0;strokeWidth=1;fontSize=12;" parent="zkfFHV4jXpPFQw0GAbJ--26" vertex="1" connectable="0">
          <mxGeometry x="0.5" y="49" relative="1" as="geometry">
            <mxPoint x="-38" y="40" as="offset" />
          </mxGeometry>
        </mxCell>
        <mxCell id="ArKU4aEoTRPjpydm7Juz-6" value="List" style="swimlane;fontStyle=0;childLayout=stackLayout;horizontal=1;startSize=30;horizontalStack=0;resizeParent=1;resizeParentMax=0;resizeLast=0;collapsible=1;marginBottom=0;whiteSpace=wrap;html=1;" vertex="1" parent="WIyWlLk6GJQsqaUBKTNV-1">
          <mxGeometry x="120" y="600" width="140" height="158" as="geometry" />
        </mxCell>
        <mxCell id="ArKU4aEoTRPjpydm7Juz-7" value="Item 1" style="text;strokeColor=none;fillColor=none;align=left;verticalAlign=middle;spacingLeft=4;spacingRight=4;overflow=hidden;points=[[0,0.5],[1,0.5]];portConstraint=eastwest;rotatable=0;whiteSpace=wrap;html=1;" vertex="1" parent="ArKU4aEoTRPjpydm7Juz-6">
          <mxGeometry y="30" width="140" height="30" as="geometry" />
        </mxCell>
        <mxCell id="ArKU4aEoTRPjpydm7Juz-8" value="Item 2" style="text;strokeColor=none;fillColor=none;align=left;verticalAlign=middle;spacingLeft=4;spacingRight=4;overflow=hidden;points=[[0,0.5],[1,0.5]];portConstraint=eastwest;rotatable=0;whiteSpace=wrap;html=1;" vertex="1" parent="ArKU4aEoTRPjpydm7Juz-6">
          <mxGeometry y="60" width="140" height="30" as="geometry" />
        </mxCell>
        <mxCell id="ArKU4aEoTRPjpydm7Juz-12" value="" style="line;html=1;strokeWidth=1;align=left;verticalAlign=middle;spacingTop=-1;spacingLeft=3;spacingRight=3;rotatable=0;labelPosition=right;points=[];portConstraint=eastwest;" vertex="1" parent="ArKU4aEoTRPjpydm7Juz-6">
          <mxGeometry y="90" width="140" height="8" as="geometry" />
        </mxCell>
        <mxCell id="ArKU4aEoTRPjpydm7Juz-9" value="Item 3" style="text;strokeColor=none;fillColor=none;align=left;verticalAlign=middle;spacingLeft=4;spacingRight=4;overflow=hidden;points=[[0,0.5],[1,0.5]];portConstraint=eastwest;rotatable=0;whiteSpace=wrap;html=1;" vertex="1" parent="ArKU4aEoTRPjpydm7Juz-6">
          <mxGeometry y="98" width="140" height="30" as="geometry" />
        </mxCell>
        <mxCell id="ArKU4aEoTRPjpydm7Juz-11" value="Item 2" style="text;strokeColor=none;fillColor=none;align=left;verticalAlign=middle;spacingLeft=4;spacingRight=4;overflow=hidden;points=[[0,0.5],[1,0.5]];portConstraint=eastwest;rotatable=0;whiteSpace=wrap;html=1;" vertex="1" parent="ArKU4aEoTRPjpydm7Juz-6">
          <mxGeometry y="128" width="140" height="30" as="geometry" />
        </mxCell>
        <mxCell id="ArKU4aEoTRPjpydm7Juz-13" value="List" style="swimlane;fontStyle=0;childLayout=stackLayout;horizontal=1;startSize=30;horizontalStack=0;resizeParent=1;resizeParentMax=0;resizeLast=0;collapsible=1;marginBottom=0;whiteSpace=wrap;html=1;" vertex="1" parent="WIyWlLk6GJQsqaUBKTNV-1">
          <mxGeometry x="120" y="810" width="140" height="158" as="geometry" />
        </mxCell>
        <mxCell id="ArKU4aEoTRPjpydm7Juz-14" value="Item 1" style="text;strokeColor=none;fillColor=none;align=left;verticalAlign=middle;spacingLeft=4;spacingRight=4;overflow=hidden;points=[[0,0.5],[1,0.5]];portConstraint=eastwest;rotatable=0;whiteSpace=wrap;html=1;" vertex="1" parent="ArKU4aEoTRPjpydm7Juz-13">
          <mxGeometry y="30" width="140" height="30" as="geometry" />
        </mxCell>
        <mxCell id="ArKU4aEoTRPjpydm7Juz-15" value="Item 2" style="text;strokeColor=none;fillColor=none;align=left;verticalAlign=middle;spacingLeft=4;spacingRight=4;overflow=hidden;points=[[0,0.5],[1,0.5]];portConstraint=eastwest;rotatable=0;whiteSpace=wrap;html=1;" vertex="1" parent="ArKU4aEoTRPjpydm7Juz-13">
          <mxGeometry y="60" width="140" height="30" as="geometry" />
        </mxCell>
        <mxCell id="ArKU4aEoTRPjpydm7Juz-16" value="" style="line;html=1;strokeWidth=1;align=left;verticalAlign=middle;spacingTop=-1;spacingLeft=3;spacingRight=3;rotatable=0;labelPosition=right;points=[];portConstraint=eastwest;" vertex="1" parent="ArKU4aEoTRPjpydm7Juz-13">
          <mxGeometry y="90" width="140" height="8" as="geometry" />
        </mxCell>
        <mxCell id="ArKU4aEoTRPjpydm7Juz-17" value="Item 3" style="text;strokeColor=none;fillColor=none;align=left;verticalAlign=middle;spacingLeft=4;spacingRight=4;overflow=hidden;points=[[0,0.5],[1,0.5]];portConstraint=eastwest;rotatable=0;whiteSpace=wrap;html=1;" vertex="1" parent="ArKU4aEoTRPjpydm7Juz-13">
          <mxGeometry y="98" width="140" height="30" as="geometry" />
        </mxCell>
        <mxCell id="ArKU4aEoTRPjpydm7Juz-18" value="Item 2" style="text;strokeColor=none;fillColor=none;align=left;verticalAlign=middle;spacingLeft=4;spacingRight=4;overflow=hidden;points=[[0,0.5],[1,0.5]];portConstraint=eastwest;rotatable=0;whiteSpace=wrap;html=1;" vertex="1" parent="ArKU4aEoTRPjpydm7Juz-13">
          <mxGeometry y="128" width="140" height="30" as="geometry" />
        </mxCell>
        <mxCell id="ArKU4aEoTRPjpydm7Juz-19" value="" style="shape=image;verticalLabelPosition=bottom;labelBackgroundColor=default;verticalAlign=top;aspect=fixed;imageAspect=0;image=data:image/png,iVBORw0KGgoAAAANSUhEUgAAA+AAAAH8CAYAAABRrMW0AAAMPWlDQ1BJQ0MgUHJvZmlsZQAASImVVwdYU8kWnluSkJDQAhGQEnoTRGoAKSG0ANKLYCMkAUKJMRBU7OiigmsXEbChqyKKHRA7YmdR7H2xoKKsiwW78iYFdN1Xvjf5ZubPP2f+c+bcuWUA0DzOk0hyUS0A8sQF0rjQQObolFQm6SnAARX+cMDg8fMl7JiYSADLQP/38u46QOT9FUe51j/H/2vRFgjz+QAgMRCnC/L5eRDvBwCv5kukBQAQ5bzF5AKJHMMKdKUwQIgXyHGmElfLcboS71bYJMRxIG4FQI3K40kzAdC4BHlmIT8Tamj0QuwsFojEAGgyIfbLy5sogDgNYltoI4FYrs9K/0En82+a6YOaPF7mIFauRVHUgkT5klze1P8zHf+75OXKBnxYw0rNkobFydcM83YzZ2KEHFMh7hGnR0VDrAPxB5FAYQ8xSsmShSUq7VEjfj4H5gwwIHYW8IIiIDaCOEScGxWp4tMzRCFciOEOQaeICrgJEOtDvECYHxyvstkgnRin8oU2ZEg5bBV/lidV+JX7ui/LSWSr9F9nCbkqfUyjKCshGWIKxJaFoqQoiDUgdsrPiY9Q2YwsyuJEDdhIZXHy+C0hjhOKQwOV+lhhhjQkTmVfmpc/sF5sQ5aIG6XCewuyEsKU+cFa+TxF/HAt2CWhmJ04oCPMHx05sBaBMChYuXbsmVCcGK/S+SApCIxTzsUpktwYlT1uLswNlfPmELvlF8ar5uJJBXBDKvXxDElBTIIyTrwomxceo4wHXwoiAQcEASaQwZoOJoJsIGrvaeyB/5QjIYAHpCATCIGjihmYkawYEcM2HhSBPyESgvzBeYGKUSEohPzXQVbZOoIMxWihYkYOeAJxHogAufC/TDFLPOgtCTyGjOgf3nmw8mG8ubDKx/89P8B+Z9iQiVQxsgGPTM0BS2IwMYgYRgwh2uGGuB/ug0fCNgBWF5yFew2s47s94Qmhg/CQcI3QSbg1QVQs/SnKUaAT6oeocpH+Yy5wa6jpjgfivlAdKuMM3BA44m7QDxv3h57dIctRxS3PCvMn7b+t4IerobIjO5NR8hByANn255ka9hrugyryXP+YH2Ws6YP55gyO/Oyf80P2BbCP+NkSW4Dtw85gJ7Bz2GGsETCxY1gT1oYdkePB3fVYsbsGvMUp4smBOqJ/+Bu4svJM5jvXOXc7f1GOFQinyJ/RgDNRMlUqyswqYLLhG0HI5Ir5TsOYLs4urgDI3y/Kx9ebWMV7A2G0fefm/gGA77H+/v5D37nwYwDs8YS3/8HvnC0LvjrUATh7kC+TFio5XN4Q4FNCE95pBsAEWABbuB4X4AF8QAAIBuEgGiSAFDAeRp8F97kUTAbTwRxQAsrAUrAKVIL1YBPYBnaCvaARHAYnwGlwAVwC18AduHu6wAvQC96BzwiCkBAaQkcMEFPECnFAXBAW4ocEI5FIHJKCpCGZiBiRIdORuUgZshypRDYitcge5CByAjmHdCC3kAdIN/Ia+YRiKBXVRY1Ra3Q4ykLZaASagI5DM9FJaBE6D12MVqA16A60AT2BXkCvoZ3oC7QPA5g6xsDMMEeMhXGwaCwVy8Ck2EysFCvHarB6rBle5ytYJ9aDfcSJOB1n4o5wB4fhiTgfn4TPxBfhlfg2vAFvxa/gD/Be/BuBRjAiOBC8CVzCaEImYTKhhFBO2EI4QDgF76Uuwjsikcgg2hA94b2YQswmTiMuIq4l7iIeJ3YQHxH7SCSSAcmB5EuKJvFIBaQS0hrSDtIx0mVSF+mDmrqaqZqLWohaqppYrVitXG272lG1y2pP1T6TtchWZG9yNFlAnkpeQt5MbiZfJHeRP1O0KTYUX0oCJZsyh1JBqaecotylvFFXVzdX91KPVRepz1avUN+tflb9gfpHqg7VnsqhjqXKqIupW6nHqbeob2g0mjUtgJZKK6AtptXSTtLu0z5o0DWcNLgaAo1ZGlUaDRqXNV5qkjWtNNma4zWLNMs192le1OzRImtZa3G0eFoztaq0Dmrd0OrTpmuP0I7WztNepL1d+5z2Mx2SjrVOsI5AZ57OJp2TOo/oGN2CzqHz6XPpm+mn6F26RF0bXa5utm6Z7k7ddt1ePR09N70kvSl6VXpH9DoZGMOawWXkMpYw9jKuMz4NMR7CHiIcsnBI/ZDLQ97rD9UP0Bfql+rv0r+m/8mAaRBskGOwzKDR4J4hbmhvGGs42XCd4SnDnqG6Q32G8oeWDt079LYRamRvFGc0zWiTUZtRn7GJcaixxHiN8UnjHhOGSYBJtslKk6Mm3aZ0Uz9TkelK02Omz5l6TDYzl1nBbGX2mhmZhZnJzDaatZt9NrcxTzQvNt9lfs+CYsGyyLBYadFi0WtpajnKcrplneVtK7IVyyrLarXVGav31jbWydbzrRutn9no23BtimzqbO7a0mz9bSfZ1thetSPasexy7NbaXbJH7d3ts+yr7C86oA4eDiKHtQ4dwwjDvIaJh9UMu+FIdWQ7FjrWOT5wYjhFOhU7NTq9HG45PHX4suFnhn9zdnfOdd7sfGeEzojwEcUjmke8drF34btUuVx1pbmGuM5ybXJ95ebgJnRb53bTne4+yn2+e4v7Vw9PD6lHvUe3p6Vnmme15w2WLiuGtYh11ovgFeg1y+uw10dvD+8C773ef/k4+uT4bPd5NtJmpHDk5pGPfM19eb4bfTv9mH5pfhv8Ov3N/Hn+Nf4PAywCBAFbAp6y7djZ7B3sl4HOgdLAA4HvOd6cGZzjQVhQaFBpUHuwTnBicGXw/RDzkMyQupDeUPfQaaHHwwhhEWHLwm5wjbl8bi23N9wzfEZ4awQ1Ij6iMuJhpH2kNLJ5FDoqfNSKUXejrKLEUY3RIJobvSL6XoxNzKSYQ7HE2JjYqtgncSPipsediafHT4jfHv8uITBhScKdRNtEWWJLkmbS2KTapPfJQcnLkztHDx89Y/SFFMMUUUpTKik1KXVLat+Y4DGrxnSNdR9bMvb6OJtxU8adG284Pnf8kQmaE3gT9qUR0pLTtqd94UXzanh96dz06vRePoe/mv9CECBYKegW+gqXC59m+GYsz3iW6Zu5IrM7yz+rPKtHxBFVil5lh2Wvz36fE52zNac/Nzl3V55aXlreQbGOOEfcOtFk4pSJHRIHSYmkc5L3pFWTeqUR0i35SP64/KYCXfgh3yazlf0ie1DoV1hV+GFy0uR9U7SniKe0TbWfunDq06KQot+m4dP401qmm02fM/3BDPaMjTORmekzW2ZZzJo3q2t26Oxtcyhzcub8XuxcvLz47dzkuc3zjOfNnvfol9Bf6ko0SqQlN+b7zF+/AF8gWtC+0HXhmoXfSgWl58ucy8rLviziLzr/64hfK37tX5yxuH2Jx5J1S4lLxUuvL/Nftm259vKi5Y9WjFrRsJK5snTl21UTVp0rdytfv5qyWra6syKyommN5Zqla75UZlVeqwqs2lVtVL2w+v1awdrL6wLW1a83Xl+2/tMG0YabG0M3NtRY15RvIm4q3PRkc9LmM7+xfqvdYrilbMvXreKtndvitrXWetbWbjfavqQOrZPVde8Yu+PSzqCdTfWO9Rt3MXaV7Qa7Zbuf70nbc31vxN6Wfax99fut9lcfoB8obUAapjb0NmY1djalNHUcDD/Y0uzTfOCQ06Gth80OVx3RO7LkKOXovKP9x4qO9R2XHO85kXniUcuEljsnR5+82hrb2n4q4tTZ0yGnT55hnzl21vfs4XPe5w6eZ51vvOBxoaHNve3A7+6/H2j3aG+46Hmx6ZLXpeaOkR1HL/tfPnEl6Mrpq9yrF65FXeu4nnj95o2xNzpvCm4+u5V769Xtwtuf78y+S7hbek/rXvl9o/s1f9j9savTo/PIg6AHbQ/jH955xH/04nH+4y9d857QnpQ/NX1a+8zl2eHukO5Lz8c873ohefG5p+RP7T+rX9q+3P9XwF9tvaN7u15JX/W/XvTG4M3Wt25vW/pi+u6/y3v3+X3pB4MP2z6yPp75lPzp6efJX0hfKr7afW3+FvHtbn9ef7+EJ+UpPgUwWNGMDABebwWAlgIAHZ7PKGOU5z9FQZRnVgUC/wkrz4iK4gFAPfx+j+2BXzc3ANi9GR6/oL7mWABiaAAkeAHU1XWwDpzVFOdKeSHCc8CG4K/peeng3xTlmfOHuH/ugVzVDfzc/wu8Hnw13CtC3AAAADhlWElmTU0AKgAAAAgAAYdpAAQAAAABAAAAGgAAAAAAAqACAAQAAAABAAAD4KADAAQAAAABAAAB/AAAAAAFW3JKAABAAElEQVR4AeydB5gUxfa3y5xBMUcwZxEDXFAxZ0ExIoo5oKJiQDEiJsyieFUwR4wYUVGv6DXnnBOYE+pVUTHNV7/6U/3V9HbP9M72zM4u73me2U5V1dVvz2z3qRNqmoIVg0AAAhCAAAQgAAEIQAACEIAABCBQVQLTVrV1GocABCAAAQhAAAIQgAAEIAABCEDAEUAB54sAAQhAAAIQgAAEIAABCEAAAhCoAQEU8BpA5hQQgAAEIAABCEAAAhCAAAQgAAEUcL4DEIAABCAAAQhAAAIQgAAEIACBGhBAAa8BZE4BAQhAAAIQgAAEIAABCEAAAhBAAec7AAEIQAACEIAABCAAAQhAAAIQqAEBFPAaQOYUEIAABCAAAQhAAAIQgAAEIAABFHC+AxCAAAQgAAEIQAACEIAABCAAgRoQmL6p5xgyZEhTm6A+BCAAAQhAAAIQgAAEIAABCECg7ggMHjw41z5hAc8VJ41BAAIQgAAEIAABCEAAAhCAAASSCTTZAu6b3e/EE/0qSwhAAAIQgAAE6pzAyJNPdj3k+V3nN4ruQQACEIBAsxDwz8m8T44FPG+itAcBCEAAAhCAAAQgAAEIQAACEEgggAKeAIVdEIAABCAAAQhAAAIQgAAEIACBvAmggOdNlPYgAAEIQAACEIAABCAAAQhAAAIJBFDAE6CwCwIQgAAEIAABCEAAAhCAAAQgkDcBFPC8idIeBCAAAQhAAAIQgAAEIAABCEAggQAKeAIUdkEAAhCAAAQgAAEIQAACEIAABPImgAKeN1HagwAEIAABCEAAAhCAAAQgAAEIJBBAAU+Awi4IQAACEIAABCAAAQhAAAIQgEDeBFDA8yZKexCAAAQgAAEIQAACEIAABCAAgQQCKOAJUNgFAQhAAAIQgAAEIAABCEAAAhDImwAKeN5EaQ8CEIAABCAAAQhAAAIQgAAEIJBAAAU8AQq7IAABCEAAAhCAAAQgAAEIQAACeRNAAc+bKO1BAAIQgAAEIAABCEAAAhCAAAQSCKCAJ0BhFwQgAAEIQAACEIAABCAAAQhAIG8CKOB5E6U9CEAAAhCAAAQgAAEIQAACEIBAAgEU8AQo7IIABCAAAQhAAAIQgAAEIAABCORNAAU8b6K0B4GphEChUDDffv31VHK1XCYEIAABCEztBN54+WWjZ19W+eeff8xTjz7KszIrMMpBYCohgAI+ldxoLrPlE/jrr7/MV59/bn7+6Sfz26+/msm//97go/06/uVnnxk9+L1o+6cff0ytp7ZU938//ODO4euVWn46frzpuOCCZu3lljN3jhpVqmjZY7q2R+6/3zxw551ly1IAAhCAAAQgUGsC7775ptlk9dXNOssvb1546qlMp3/3jTfM9hts4J6V/z7zzEx1alXo2ksvNVcOH96oAYVa9Y3zQKC1E5i+tV8g1weB1kLg3ltvNQfuskvmyxn1wANm3U02MXppWH/llTPXU8HnPv7YLNK+fck6sgRIPnrvPTPbHHOULBs/+OukSea9t94yr77wgnnuySfNQ/fcY375+WdX7N6nnzardekSr8I2BCAAAQhAoNkI3Hrdde7ceuYtsPDCmfpx3x13ROV67LhjtJ5l5fRjjzX//P23md0+X2ecaSYzzTTTlK2m8r/bAXV5p+198MFmaTtYkCT3jR5tBh14oDukZ/ClN92UVIx9EIBAlQiggFcJLM1CIG8CM88yS9TkMiusEK3HV6TYSqad9v8cXKabbrqoyBLLLGOmnz75Z+/rqfBss88e1UlbGTd2bHRobTvC70WWdynTk+znm6++Mp9/8on5bMIE86n9fGIV+/fsgMCEjz7yxYuW88w3n3lq3DgU8CIqbEAAAhCAQHMSkHfYtZdc4rpwiFWM4wPUcksfdcUVZjr7fJ3JKsv++XvNlDp6tr3y3HPuo0ZUXp5felZ2Xmsts/wqqzS4vAfvvtsNVDc4kHHHWuuvn6iA32WV7QP69IlaWc8O1CMQgEBtCSS/ide2D5wNAhDIQEAj4F7GPPNMqpK80BTFe6aZZ3bFw3p3PPaYmXf++X0zRcuH7r3X7N6zp9sXKvtFhaZs/Pnnn0YPccnOe+/tLNmH7bWXmfjtt5Ele0rRkos17YvHyqutZtbs2tV0slbvxRZfvGR5DkIAAhCAAARqTeC8U05xzzZZow8cONCd/mWrUK9gFWf/rD1yv/1Su/XdN9+YfjvvnHj8eOuanqSA69nYdq653LP+6y+/NG+/9pqr32299cyss80WtfXK888btS/ZYPPNzR+TJ7vB7/hz/G9rHT93yBAz7NRTo7qXWc+6LbfbLtpmBQIQqA0BFPDacOYsEGgygdCSLbfyWWadtWSb088wgzs+44wzRuXef/vt6EEd7Zyy8pmN6faSZiX3xx9/+OFI0d7OusWv0a2bmfTLL9E+Xy6+lMLd/+ijzVLLLmsWtcp2ufPE67MNAQhAAAIQqAWBqy++2Gy+zTbm+4kTzWXDhrlTSllu07at+f6778yW//qXWXCRRcywK68062y0kXMVl0W7+8Ybmw5LLlm2i3IDl+I8R5s2iWWHX3tttF/hWpt37uy2tV/n9XLz1VcbDYBrcOD6MWP87qKlLPgH77abeXjKcZW9+q67jJR5BAIQqD0BFPDaM+eMEKiIgHdpU+WtrMW4ElEymExSJtZs+BlnuGbaL7GE6bLOOkaDA4oh+/l//zNztmvnRu3lcifLwCZ2FF8u53rgj7BlfOycXNV7rbuuWXbFFc2h1qUvfKHI1EcKQQACEIAABKpA4B5rGT62f38z4rzzIgu3LNJ99tnHne2qf//bLZXg1FvAZXGWAn7k4MFuULpctzSQLgW82gPRT9qwriP33TcK/dKz+eYHH0y0upfrM8chAIF8CKCA58ORViBQUwLb9+1rZggs2+HJFYeWJlv37l3kuhaWkxubd3EL98fXX7Tu788+/rjbvd9hhznlWxsaSVfiF+/iLgV7wJ57Rg99ubp55Vvlb7jsMteO2pJ73VVBshodRyAAAQhAAALNQUBu3JIwX8n59tkqZVlKt1y5JXtaJb3z2mu79Ur/hIPrlbaRVE/P89OOOcbNMOKPK1/LJXbWkrnnndfvYgkBCDQDARTwZoDOKSHQVAJD7eh7WqI0r4D7uUrD6chOPv/8SEGO9yGMAY8fC7cvCqZS0UCAFyWbOeagg8wRdvT/oKOOcg/+26ZkjdV5lZHdi14Mjj7gALcpy/e5VhlHIAABCEAAAvVAYLtdd3WZx/ffaSfXHXlwLbzYYm59yJFHuqUsyYOCeGrfb7l6t5lzTr+Zunz9pZdSjzX1wMk2Tv3Sc88tauYku72XzYxebYt70UnZgAAEEgmggCdiYScE6pvAE//5T6oC7ntemDIPuB/J135lGE8b+fbTivn6SUu5zI21cWMSxbn52LU///gjsgjIMuCtAyp32AknmH0OPVSrTr7+4guz61Zb+U1zjW2v3TzzRNusQAACEIAABJqbQI8ddnC5Vnbr0cO5lu9h48H3shbvu2+5xXVt2FVXRc/AsK+h1TzcX8v1LtYq7xVwXYeU76Qwr+eeeMI8aBOwHm2TzM0wJW9MLfvJuSAwtRJAAZ9a7zzX3aIJ7NmrV9n+//7bb66M5gT1Ek494vc1ZnnWiSdGxUO3ObnD/9dOf3amVbb9tCsqqBjxw4M6SgSzk7WEy4VPIuV7pU6d3Dp/IAABCEAAAvVEYKMttzQjrcK9n53DW+FSPvxqt379XMZxTSUWtyifb5OyrZzhuba3zT5eLWV90623dt5oa9h8MaH3WchWg+H7bL+9i0PXALyexz6ePSzHOgQgkD8BFPD8mdIiBKpOQHFnmms0LppmRC8Ev9qM5H6e0vkWWMD0thlSlTVdVvH41CS+jY8/+CCybvt94fL6kSPN/SXitJV8Ta7xPe2LSn/rmi4lWy8Xfa21+yLriq7z72anOfPzjZ9pXdY3tpaFJx55xKy06qoueVt4PtYhAAEIQAACzU1gK6ukDrHJ2AYffrjriizJu+2/v+m96aZO+Y5nHl9ymWXMCh07lu22cqJUSwHXyRUOliZK/radjQf305cpa7vmMEcgAIHaEODXVhvOnAUCuRI49vTTG7igDx861Fx2wQVmoHUB72tfDrzIvfu8yy83462C3c2+GGie0NOGD3fWaV9GS8WAe/fycL/W33njDXOUHfHPIl1tZvNxNsb7MDs/uBT2R8eONRvb7LEaEHj+ySddEyeefbbro+LrlG1W05PdZMuVm1oty/kpAwEIQAACEMiTwPwLLhg1J4v4PPPPb/770ENun3KaaB5v73U2/sMP3fGoQsrK5CneaRo0j8tD99xjzrHPciU1lVVaM4x40bO1bRBjrvNJlIFdz9Q/bEjYJLvecc01zXH2vSAumo5UbvVe+d/fDizomTxNmdlP4u2wDQEIVE4ABbxydtSEQF0RmDRpkhvNVnIzTQ22zAorFPXvwilTh3347rtmQTvynlV++/VX089mT/eypXWbG3P77X4zcakENMp6fol9qCsLq6zh3u38mNNOM/2OOMLVkxufFHAp5rKaq07o2p7YODshAAEIQAACNSIgBbffzju7s2ke8NXt/N+S3e2zViFX11x6qTnDzhkuBVhyyO67u2XWP1KY4/L5p5+atCRtXvGP19G2nqdepk+I6X7w7ruNYtm9DD7nHCMFHIEABGpLAAW8trw5GwSqRkCW75fsFGFy6R5oLeB3PPZYpMwq0cpNNi5NoheFGRPc19M6pnrebfxgq0z/nTBan1RXivSu++1nrrRu6V75jj/s11p/fXPxDTeYA3fZxVnLz7eJYEq5zSWdh30QgAAEIACBPAn8+P33RoPPCus6sE+fqOmFrPv51fYZqik3feLSa60CLsVcWdGVD0WeXGFcuH9+qhE/MC6rt56lE7/9NnpORyexKwodUxy3t4C/a73Q9GyX7GLn9A5nQXncJmX1U4hqatA///zThaHNv9BCrrz+aDaUYTZj+zknnRTtu+TGG42mJkUgAIHaE0ABrz1zzgiB3Ai89eqr5iRrTZ5bD3472u1H4GVRVqK2dnPP7c7134cfjs555003mdut0iv3t69sEpbb7EO9VPbTba1yfL59cMuF/EgbUyaLdhb5bMIEs7t9gfDK9zk2hrzPPvsUVdVLyFo2Dm09G0snV3VlT1f21rU33LCoHBsQgAAEIACBWhHQc+6GhOkxNVicJI89+KB57auvkg6ZhexgtEQeXxoAD0WKvp59cdli222NPl4eHjMmUsAVgjbXlGe7jt989dXmMJvnRVOlKdt5XDRQcOqgQZHLvI7fYt8JNCc4AgEINA8BFPDm4c5ZIZALASm5flQ83qBiyJJED+tQ/HRl4b5wve1cc5krR48289oReY3uyyIQikbVFUumUf9pp5vOaP5xjeyPtkq+HxBQeSn+o6w1/eeffvq/j41pC4/7NvWCo4zqSuqGQAACEIAABGpNYHGblMyLFFtN3+ljprV9iFXQF1p0UfOoVbxvs0lGpSArPKuU6Jl46oUXRtZxTd+pLORPPfqo+ej994tmDIm3I0Xdy6yzzeZXSy4/tm2eZQfN77LPXi9L2Dwwl9kYdsWsIxCAQPMRQAFvPvacGQJNJrCyTW529Z13GsVcy+Vtmikj7WpY7tyP3H+/0TQqhx53XNG5/rFK9OTJk42U7yzu6Gt061ZUP9x43Y6ul8qO7sumDRToZWY+m+BmAesupxcRZWUdcuSRRlO5IBCAAAQgAIFaE5Cbt7y/lGzNu5MrvlpJzvS86m8typL2VlGfZGcd+fyTT5wHly+ruG59Bp50kiunPxpw1sD45tY7TQPVRx94oHvm6Vg4Xai24/L9d99Fu7JMFXaJje0+5aijojpaUf4VxXvHn/lS7p+2IWvqFwIBCNSGAAp4bThzFghUhYCmQ9EnSRbt0MHtXnzppaOkMUnlmrpv3Y03di7ss1lFWiPzsoTPaj9uabe17wE7v6hP3PafV14xs7dpY9q0beuW01mruRfNMy6Luqz0ih/3yW78cZYQgAAEIACBahOQ55c+ivdW+JVm9wjlDzuALdfxH6zyOsAOcG+6xhqJ3mh6FoZy5gknmI3s1JwnHHpolJdl70MOccpxWC6+PnGKAu5jyOPH49v/6t492qUQr9PtzCcdlloq2heuaMBbz9yDjj7aDLLP3/CZHJZjHQIQyI8ACnh+LGkJAjUloKQqUmqVjEUj2vGH5lt2ahTJTz/+6Ea3w855N3GNyEuBX9VOV1KpKK5NHy9KTvMf647Xw84H7hPFyNXOK+Ch69sH77xj7r3tNjPg+ONddWVH14vAPvaFZOVOnXyTLCEAAQhAAAI1JaDn5LH9+7tz3vPUU0Xn/sJmKVc2cXlwPfjii2Z7O4uHLOMz2jCtj+2Un97tu9t660X19KxVQrbuyy8fubPvdfDB5uTzzy87BZjPiL7ksstG7ZVa6dS5szneznyy8GKLlUy0puetPpKbr7rK7G+TuCmZHAIBCFSXAAp4dfnSOgSqRkDzgsodrpyED9iksopb0/RfeYni4eT6dqJ9kD8/fryzIiS1/fJzz5ktp0znopeFdTfZxFnFX7SufAgEIAABCECgOQlo8NqLsp9L6fYi13Mp3xrEVjjXhddc4w+ZEwYMcOsKEdOUoF5677mnCw3zseRHnXxyNPjsyyQtNYDtE7UttdxySUUS9x0Yc0GPF1LiOCVvk+halJAV5TtOiW0IVIcACnh1uNIqBKpOQAnP5KKtUfeZZ5nFWcD9HNovPP20+ei996I+6OEaZlSV9VxTlUyyLw9pbmlR5UasqF1NySJZzfZNLnxpopcTudPJInCyfVEYazOy+vi5tDrshwAEIAABCNSCwJeffx6dRklIQ5lmmmnMBptvbu62Cc00zeeyK67oDktJv8ImWpMcNsWzy23YP9032sglJ5UCrmffIcce6w+VXL5hw7a8aJaQPEQD8175VnvX3XtvNEVaHu3TBgQgUJoACnhpPhyFQN0SmMPGUcfd4nxnD95ttyIFXKP0vXbe2VmZfZlqLO+++ebItU6ubKVEyvaJZ59tdrVJ4jSHqV5alCAGgQAEIAABCDQ3AWURl7RfYonEweHVunRxCvibdjpQiVzWj7S5SyQaYNY83qFo2k098/a2XmcaeL7QTifmw6/CcvH1J+w8316amhdFfdR0n+dZ67uXG+67r8hS7/ezhAAEqkdg2uo1TcsQgEBzEBhrE57dfv317tTX21jsnjYWW7LzZpuZB2zG9GrJb7/+6tzO1b5ePuRSXk5kQVCWdokSwbz75pvlqnAcAhCAAAQgUHUC77zxhjvHMlOs2/ETakovyZtTLNRK2OZdxU8466wGcd1/Wa8zZRrXc0+ipKN6XpcSPVeH21huiebtLuVVVqodHVPiuEP32KNI+dY7wvr23QCBAARqSwAFvLa8ORsEqkZAI9tKorLnlKlE9JDXZ/i110Yj8Xttu605ZPfdzXibJCZvGWyt15pCTKJRfu8OX+48p9nsrF5kGfjJxrYjEIAABCAAgeYkoGk8JWmZxxefklX8xWeeMZqi7DibUE2yp03cJmU5TTTFpo+11vNa02+myagrrnBx5jred//904qV3T/x229NH/s+oBwtEoWl3WxjwP1gQNkGKAABCORKAAU8V5w0BoHmIfD26687C/dhe+/tOiAL9MU33ujWZ7BZWS8dNSqa41MP4G525H5HG4924+WXu1jwpvZaiv/1I0e6ZpQNdq3118/cpKZLO9++ZEgUt96vd28z+fffM9enIAQgAAEIQCBPAlJYpVhLVrHP0yRZbPHFjQaQ3fzaUxKiyip+3NChScWjffPaucUvt7N/eNneKuvXXHKJ34yWSgI3zM7dLZHCvmnPntGxrCuyoF9srfFd7WCBV/TVR2VuX8e+AyAQgEDzEEABbx7unBUCjSagBGdeZO3+5quvzJX24a/5Rzfs2NH896GH3GG5uI164AGXUdyXn2nmmc0Vdsqy28eNi2K9nrAZT0cOG/b/3eRsm1nE98Mv77TKvVf8Nc3KqRdckKWZojI72eywO1nXOIlc+PbdYQeUcEeDPxCAAAQgUGsCYdz1mt26JZ/eJmJTQrWhdh5wiabYvPO//zWzzjZbcvlgb2ebTE0D416OOeggM+jAA43ixCVa9rN5W7xXmaYq03SjiZLw7FZ9DYx3sfHrpw4aFFnRNevJ/XYGkjyTryb2iZ0QgEBJAiRhK4mHgxCoHwLKWu7lb/twHWeV7OMPPdTvcoli5PotBTxNuq67rrnjsceMXi523Hhjs+Kqq5pnH3/czGQf7GNGj46qxecUjw7YFZ1b8s/ff7vlKy+84Jb6o3iyNnPOGW37lbDvfl98eYaNn/t0/Hg3Sq+Xjt9/+81o4ACBAAQgAAEI1JLA51OmHJM32QILL+xOrWeSxD8Dv//uO+d6rn2rrrmmudG6rM8y66xmoHUVn7NdOzOvtVp/P3GiDjuJP1d7Wqv5b7ZNn438eTvXuKYcU4LSk444Ioon11RmW1vPsDTxz1clW5U8/vDD5hjrBh+fCeXsESNKtpPWPvshAIH8CaCA58+UFiFQFQL+4a/Gtb6jjeV+8J573AN7DztyrqRn8Qd8WkfW3nBDFxd+h3VT1ycUWbFLxW//OmmSK665TyUnnXuumw5trrnnNsuvvLLbF/8TupRrZD5pujFvpdc0ZvvZDOoo33GKbEMAAhCAQC0IHDhwoNGA9Y/ffx+d7ucp+Ukm/fKL2ze/nQL0dutJdtoxx5hzbThXm7Zt3f6Xnn3WzewRVZyykmR1lufXwostZg7s08dcYd3SpcCP//BD592maorVVh4XTXuWJmHeFCVae/3ll4uU751taNqgU081cn1HIACB+iCAAl4f94FeQKAsAcWkedHI+/wLLeTcyv2+xi41J+lrNg5MLxUaOdeDfvGllzbH2qlRSonOLfnfDz9ExXpYl/FSEloB9ELjE9DE6yjD68H2ZQaBAAQgAAEINCeBTp07F53+fzYmWyIPrb+tB5gGvKVUX2YTsIXS2yrV991xhwujUpn5rKLe24ZZLdK+fVgsWlfCthetxX2GGWZw+zosuaSL0d52vfXMlbadtHq+ASnnen5LfrDPVw1g32uVecWoH3nSSWap5ZbzRVlCAAJ1QgAFvE5uBN2AQDkCvewI+bJTpkNZOOVBXq6N8PieNuZMn8aKrO3d7IuBH+3PUn+THj2iFwT/kpGlHmUgAAEIQAAC9UBAXmdemVUeljTZd8AAo09jJP5cXKlTJ/P6119n8gQ7wE7hqU8oY2wCuVJW87As6xCAQO0JoIDXnjlnhEBFBKTw/qt794rq5llJ83b7ubuztqv4OH0QCEAAAhCAQEskIFdxfWolTQnDQvmu1V3iPBCojABZ0CvjRi0IQAACEIAABCAAAQhAAAIQgECjCKCANwoXhSEAAQhAAAIQgAAEIAABCEAAApURQAGvjBu1IAABCEAAAhCAAAQgAAEIQAACjSKAAt4oXBSGAAQgAAEIQAACEIAABCAAAQhURgAFvDJu1IIABCAAAQhAAAIQgAAEIAABCDSKAAp4o3BRGAIQgAAEIAABCEAAAhCAAAQgUBkBFPDKuFELAhCAAAQgAAEIQAACEIAABCDQKAIo4I3CRWEIQAACEIAABCAAAQhAAAIQgEBlBFDAK+NGLQhAAAIQgAAEIAABCEAAAhCAQKMIoIA3CheFIQABCEAAAhCAAAQgAAEIQAAClRFAAa+MG7UgAAEIQAACEIAABCAAAQhAAAKNIoAC3ihcFIYABCAAAQhAAAIQgAAEIAABCFRGAAW8Mm7UggAEIAABCEAAAhCAAAQgAAEINIoACnijcFEYAhCAAAQgAAEIQAACEIAABCBQGQEU8Mq4UQsCEIAABCAAAQhAAAIQgAAEINAoAijgjcJFYQhAAAIQgAAEIAABCEAAAhCAQGUEUMAr40YtCEAAAhCAAAQgAAEIQAACEIBAowiggDcKF4UhAAEIQAACEIAABCAAAQhAAAKVEZi+smoNa408+eSGO9kDAQhAAAIQgEBdE+D5Xde3h85BAAIQgEArI4AFvJXdUC4HAhCAAAQgAAEIQAACEIAABOqTQG4W8MGDB9fnFdIrCEAAAhCAAAQaEBgyZIjbx/O7ARp2QAACEIAABIx/TuaNAgt43kRpDwIQgAAEIAABCEAAAhCAAAQgkEAABTwBCrsgAAEIQAACEIAABCAAAQhAAAJ5E0ABz5so7UEAAhCAAAQgAAEIQAACEIAABBIIoIAnQGEXBCAAAQhAAAIQgAAEIAABCEAgbwIo4HkTpT0IQAACEIAABCAAAQhAAAIQgEACARTwBCjsggAEIAABCEAAAhCAAAQgAAEI5E0ABTxvorQHAQhAAAIQgAAEIAABCEAAAhBIIIACngCFXRCAAAQgAAEIQAACEIAABCAAgbwJoIDnTZT2IAABCEAAAhCAAAQgAAEIQAACCQRQwBOgsAsCEIAABCAAAQhAAAIQgAAEIJA3ARTwvInSHgQgAAEIQAACEIAABCAAAQhAIIEACngCFHZBAAIQgAAEIAABCEAAAhCAAATyJoACnjdR2oMABCAAAQhAAAIQgAAEIAABCCQQQAFPgMIuCEAAAhCAAAQgAAEIQAACEIBA3gRQwPMmSnsQgAAEIAABCEAAAhCAAAQgAIEEAijgCVDYBQEIQAACEIAABCAAAQhAAAIQyJvA9Hk3SHvNR+Drr782b731lutAu3btTMeOHZuvM5wZAjkSeO2118zEiRNdiwsttJBZdtllc2ydpiAAAQhAAAIQgAAEIFAbAjVVwD///HMz66yzmplmmslMO21D4/s///xj/v77b/PLL7+Ytm3burLC8M0335jpp5/e1ZtuuukSyajuX3/9ZX7++Wcz33zzmRlmmKFBuaeeesp06dLFpLXRoEKw44ADDjCjR4929e++++7gSH2s6ro32GCDSAE/+uijUcDr49bQixwITJgwwfTs2TNq6fXXXzcrrbRStM0KBCAAAQhAAAIQgAAEWgKBhlpwlXr9ySefmEUWWcTIMjvbbLOZWWaZpcFH+9u0aWNk4Ro6dGjUk6WWWsrMPffcZvbZZ29Qx7ejulLadY5bbrklqquVQqFgBg8ebNZaay2z//77OyW/qECGjW+//dYNBMw888wZSte2iAYf+vbtGynf/fr1K+JX295wNgjkT6BHjx5m1KhRUcObb755ZBGPdrICAQhAAAIQgAAEIACBOidQMwu4FGUvUpKlaCeJd6FOspCXqvf777+bjz76yDU5xxxzFDUtBfW///2v23fFFVc4hXzkyJGRJVyurb/99ptT4GecccZof9iIBgAk6rcs7Unyxx9/mMmTJ5tJkya5gYCkMtXYd/HFF5u77rrLNS3FZPjw4WaaaaapxqloMwOBgw8+2Nx5552u5EYbbWSuuuqqDLWqX+Tdd9816o8XeXJ06tTJb9b9snfv3kaW8EGDBpnPPvvM7Lvvvs4rpe47TgchAAEIQAACEIAABCAwhUDNFHAptl6kBG+yySZ+s2i5/fbbm9tvv925m/sDsmzLxfqCCy4w2267rd9dtPzhhx+cdV075eYeilzOx4wZ4+qOHTvWXHnllUb9ueSSS1wxKUgDBw4Mq6Suq+/6lBO528uSX22RQiKFTyLX+xtuuMG561f7vLSfTkCx+FIQJR9++GF6wRof0QCR75dO/b///a/GPWj66Y466ijz7LPPmjvuuMN9br31VrPDDjs0vWFagAAEIAABCEAAAhCAQA0I1EwBVwy3F1mqFcOZJB9//LHbHSrsfl3KZlq9n376KWouPJffKaVcir0sgM8884y59NJLzeKLL270Qp8UL+7rVbr8888/K63aqHpnnHFGVP7CCy80c801V7TNSvMQqLX3gSzZTzzxhLvY9ddf38gLIklq3a+kPjR1n67hvPPOc8q32jr++ONNr169GHRqKljqQwACEIAABCAAAQjUhMD/14qrfLrw5V8JzSqRww8/PFO18FxhBcWJy1V75ZVXdvHcSlS24oorurjwnXbaybmgpynjetE/88wznbVZCkCSKIGcrIzfffddTazfsq5qIEGi+PYdd9wxqVvsqzGBU0891eyyyy7urMp5UG35z3/+YzT4ItHgU5oCvvzyy5t77703yoGg735LlA4dOpgTTjjBnHLKKea9994zN998c8S7JV4PfYYABCAAAQhAAAIQmHoI1EwBD5FuvPHGZrHFFgt3RetyEQ/dZKMDdmW99dYzSy65ZLgrWv/xxx+dhTvakbIiN+177rnHZTNXESn1io1dYIEFUmr8324fky7lPsnCrlLarwzv8Rj0kg034eA555wT1dagQNrAQ1SIlZoQWHrppY0+tZLQ6yFcj59foRhbbrllfHeL3FbIyLBhw1xoyoknnmh23nnnxJkVWuTF0WkIQAACEIAABCAAgVZLoFkU8COPPLJkDLgUcGUuj4tinUvFgMvFPIt07tzZnHXWWebyyy83Uvi9dO/e3Sh2W9nW40r2+++/74opXty7+/p6Ssqmjyzfl112WdF0Sb5M3ku5uCveW7LCCisYXRMydRJQjgQvc845p19t1UsNcu2zzz7m/PPPd8kXX3nlFbPaaqu16mvm4iAAAQhAAAIQgAAEWj6BZlHANR932lzcX331laMqd24vmhdcouRLobLhj2sZxoCH+9PWjzjiCHPQQQcVJWxT9nKfST2tnpLBvfTSS2mHI/fe1AI5HXj66aed9U/N9enTp6JWdb2KudeAh7K7yzugffv2jY6JVwb58ePHG2WiX3TRRc0888zT6P7k0YY/qdr64IMPjKaMW3jhhYvusS/TmKWm0FNiNblwa3CmGtKUexF6XFSrf0pyqHus2QAWXHDBRn9HkpjpN67p/RT24WcZSCqXtk+x31LAJffddx8KeBoo9kMAAhCAAAQgAAEI1A8Ba2lukpx00kkFfcqJVTBk0s78sfN2R01aBSNzPZ3j0Ucfjeo2ZuVf//qXO4+uxyqmRZ+9997bHbNx1kX7fTnfR6sINOaUFZe1yeMiJm+++WbmdqySXLBKS8Eq21H98L7oOg477LDC999/X7JNO+BROOaYYwp2argG7ahtO0VUwSr2VW/Dn+C5554r7LrrroVlllmmQX+WWGKJwkUXXVSwWb998bJLO+d0wcZSF/x99YxWWWWVgp1nvfDGG2+ktmGz6xfWXHNN9zn33HNTy1V6L0477TR3/9QXnSe8B+qv9umYrlv9tlP7uT7oN6jvuO9buXssBltvvXVR+57DOuusU7CZyAvWEyP1+my8eXQu6xkS9UF81D/flpa6b9bDpfDaa6+lthc/oHP777G1fscPsw0BCJQhkPX5XaYZDkMAAhCAAARaJYFqPSebxQKuJFFym46L5uuWa7UsmFZJiA5bhcdZexXjrPnEk2KdVUfzYTdFvFVeFj4legpF1mGJYsXjx7Rf/ZJ1vFaiZFoSq2QlskzqxwsvvGCUbK6UlV/XIKuiktU9/vjjicnkrLJrevTo4RLZJZ3nm2++ca74csfXdFHbbLNNg2J5tKFGNe+6VUhdQq4GJ5myQ9fbv39/YwcMXH823HDDtKLOk0Jlr7vuusQyVkE0+ij5nayuSQnPNL3X888/7+pvuummie005V5YxdmxF+e46P75c8ePKT+BZgDw4mcX8Nt+KS8U/eb83PJ+f7jUd0Mfqzibhx56KDGngyzbvi9dunRxc3j37NnT8Qvb0rqSqemjOeyVVG6DDTaIF2mwrTCR7bbbzk0nKK8UWdPnnXfeBuXYAQEIQAACEIAABCAAgXoh0CwK+IABAxrEgGsqJWU2Xm655VxW4xCQ4rUVY73ssssaxbgOHTq0QX25yDZVAffnlGIlJScUH/ctxTGc+suXSVKG/LFqLK1V0zWrjO5ZRG7mUmr8IIG1lBolcVPcrBLiyYVfypn1PHAKupTWIUOGmBEjRhQ1r3JSevz1Wkumm8qtY8eORgMoSminLOBSUiVyE3777bfdffUN5dGG2tL5lNBPiqCX3r17m3XXXdcNTGgwR4rZ1Vdf7a5J165p6BT3nzQPvTLYd+3a1Xi2alMZ+7t16+aSqumapZhr7mnJFlts4RTx/fff3237P6ELfpJrdVPvhQaANACiQSEN/FhrvLFeH+704qHfiX4vcmtXn71SqgEm3Xf/HdCsAHH58ssvXX1fRsetR4T7nmhee7X38ssvO6VXZaQ0KwO/7kF8YMqfV23o97T22mtHCRY1cCR+nTp1cnkXrIdC9J3SAImmG1xppZVUtaToWr188cUX0bX6fSwhAAEIQAACEIAABCBQVwSa6i+Q1TQfuqBbBajBaeW6bcG4j0101uD4tddeGx1/5513GhyXO62vH3dBt5axgty0bYK1go3ldR+ty43YZk+P2rKKRNSGb6uxy1q4oNuY+KifBx54YNT/Uity7/XXIvdh8UoSG+9c5HZtFbmiYrfddltRO9bzoOi4NqxVuiBXfX8+O+BSVCaPNtTglVdeGZ1DrtdyeU4SqygWdt9996is+mUT5jUoaqfyisrItfnJJ59sUEY7brzxxqic2nr11VeLylklPTpuB4WKjmkjr3vhG7bJBKPzyW28lHh3dfFKkr59+0Ztya076bemejbG3rmX+3ss1/a42IGXqC1fTks7/V/Bxn8XFbcDaM493pfL+r2+5ZZbonMk/V8pOgkbEIBAEYGsz++iSmxAAAIQgAAEphIC1XpOTmtfeOtC5Mori6vkkEMOiaxh2p44caJLmKZ1zccdWr20r5zIAqo5j5WQa/7553cfrcvCluRqrPm0rcJf9NEUaBJZ++LHtC3LYq1ErrZeZJUsJ/Y3UuR6PHLkSJM2XZWSqIUu47KIhqJs016UxE6JzuIi12ZZwSWysMfnVs+jDVlUDz300OjUDzzwQOoUW0pMpu9AOAWXnz/dN6Dv2HHHHec3jdqT5TtJNOVVOCf92WefXVQszKAfv/Y870XRSTNupLmdq7qs2P73oO+zXMHTfmuaDlDH/fde3hOhJ4LaCzloW6Lp8uRB4qf1+7+9xnm2+IRq2uct+v542jKcPtB7ZaSVZT8EIAABCEAAAhCAAASam0CzuKD7i/7111/dtGLKwC1FTvG8Erm2brXVVk5p1ra1Xkdus3J53W233VxZvXDLPT2MF1f5xkiSIio3ZWsJLGpGbtRSCnSu+DEV1NRqodtuUeWcN6QsetGAQjlRzLxc55VNXtOpyc2/lCy11FLRYbmLh2ItqNGmtY5G6/EVzYMtZTNJ8mhj9OjREe8ddtghVVkOz3/66aebMWPGuF1nnnmm0VzSXiGVW7m/fxqAkWt0KVFdZeWXG3U4YFGqjo7leS/Knauxx8NBCfEpN6WZlG+Vs9Zqdyop0Na7IvW0Nkmec2dPK6A4cS+ffvqpXy25DN3cw99FyUochAAEIAABCEAAAhCAQDMRaFYFXInTwnm4QwZK3uQTOIX7rctpuOmUyqIdCRs2g7lT9KVQyCqn2GGveCsxVVwUP6v44VBUR6JBgvixsFwt1sOppuIKcqnzq16aYinlXG1pKjHNZ54moVXYumU4pVVx0rKIZpU82gjjtDU/fBZRvLri4B955BHXb00v5gcbFLvuJUt7srz6vAC+XmOWedyLxpwvS9nQM2GvvfbKUsWonFfArct+yTpS1kuJBieUnFH31g+GlCqvY2G58HdRrh7HIQABCEAAAhCAAAQg0BwEmlUB1wvz7bff7pRhKcKhW6oslXJjlpXtwQcfLGIjZVhKsLJN29jTomNJG1K2vcKt416Z1rrPfK51DQhIpFB4pcLtCP7YKZRcAqpgV9FqLZRzn5FdJ7ax7EXnz7KhLNf33HOPS1CmOdl9wrQsdZX0TaECStYmsdNsuY+yYUu5lYu+FGwl2UqTPNoIFXCvRKedL9wvBU8KuGTChAmRAi4PBy+Nac/XqXTZlHtR6TmT6mnQyTPVvUwamEqqp3IqL88UeaTIq2XWWWdtUFQhHFnCJZISwzVoLNgRhkhk8QYJqrIKAQjUMQH9f1ZYiwZKEQhAAAIQaH0E9F64xhpruPfDdu3atb4LLHFFzaqA6+V92223TeyeHr4SxSRnUbITG8mwM5zSTFZgLz621W+Hlrb4MZXxx70S7+tVYxm6BiujdlaRsqKpuK655pqsVRLLKVu9LMBa+rhbKWD6eDdmKWVy1Zd1PCkTeFPbUCZuL2EcsN+XtgyV6/Hjx0fFwvZqocjldS+iC2jiSshi+eWXb1RrKq97L5HreFLceJaM5o066ZTCoQIeDkxV0hZ1IACB+iCg56hmpQgHy+ujZ/QCAhCAAATyIqD/8fpfXwvdKa8+59VOsyrgmiNaFmhZveIJm7w7q/Y/9thjDa5XFju5SyvOWPHieYgswepPvC9q+9hjj3XTnylB3AUXXJB4Oln/NC1UtUWDBoqjlvL98ccfZzqdFGVZIb2ipEqyWGvKJ1mFpcTKS0D3QomywoRY8RPo/Pvtt5+Lxdcc0PJQkFXZW1BVXueRkq0YfYUSxJWyPNrw/dJ3IBxI8fuTlmFcepL3Q1KdvPfleS/y6pvNSh411diX3rB8yDRqsIoroXUMBbyKoGkaAjUkoGlFNait5zwCAQhAAAKtk4D+x+t/vfIxKTn21CTNqoDLxVzzNJcSKcVSHEtJqFSVKlfuWFa327R2klxv08o2df/666/vMlZLuVVW9DAZVVLbW2+9daR8yz1cSceUoTxJQnf9pON+nxLnaT5qfSQKCXjxxRddBnFZwvWj0kdeDtqflDG90jaU5M1b32UFzfrD/fDDD333i5LRKUu+MnlL1F4Wd+mooUauVONeNLILDYrL08SLkh42RsL4+Q4dOjSmapPL2qnnXBtSvjWfPQIBCLR8ArKGKN9KOLjX8q+KK4AABCAAgZCAjD/6Xy+D6tQmzaqAd+/e3SlOcumW5czHgCsZmKzjodh5nKNNPZR10+zc4k7Biw5UuKIpp9S+rMBSwpOseB999JFr/aabbnIZxZNOJTcKjebIKj1u3Diz+uqrJxXLZZ+UXj9llJSQPffcM7XdL774IlIuZTm381abUgmrQrfe1EYTDrRt29ZZ1WVZV1Z4ZcSWJVyWcSngig8vJ1nbkCu595KQAphVAde1e5ES70XrXgFXn6ulgNfqXvjryrrU4JGUWA1q6LueFssdb08vyt6rQknukrxH4nXy2lZGf5+/QJnr/f+PvNqnHQhAoHkIKKmnPl27dm2eDnBWCEAAAhCAQBUJNKsCnubmfMUVVzRQwKUghfM058lEWb+leHiLaqm2s5ar9si9pkrzImt2KQX86aef9kWNpuwqpXxrAEHzOyeJOD388MNOoZbCNmjQoKRibp+UOSWyGzBggNtWhm0p4Hm0oQaVtMHHsstlXkp/OdEggJ+rWoM+YWx6x44dowENtZfF60J9WHzxxc3GG2/sXPKzuMHndS/KXWslx3V//MCXkg0eccQRZZsZMWJEVEYKeC3lzjvvjE6n6eAQCEAAAhCAAAQgAAEI1DuBZlXAk+DIRfiwww5zh0488UQzzzzzGMVdH3/88c7aPXTo0Mzxvknta18Yqyxr7yabbOIUD7lep1nAL7zwQnP99dc7Re+MM85IbFpWeVnBv//+e1NtZUR93XTTTd00bvfff79RNu20ZGQ//vhj1N9SbroaNFDctrdoRpWmrChR18477xzt1nRdpbJWK47Pi+6jJI821I4SvCkuXy7uypivQQPFs6eJwhSOOuqo6LC+T6HssccezmqvfcoQrznfSynhmg5P4RP6yBK7//77h82lrud1L9JO0JSYSf3uvAKuTPfyCvH3Lel8+p7rN+pFCfdqJbqf+j16WXfddf0qSwhAAAIQgAAEIAABCNQtgWnrqWeaEkvKsJQqWVBlPZWSp0ReEs0jLLdmKUeViiy48Xmo27RpY7bZZhujl3hlXF9zzTUbfHx8uJTcpOPap7pyq1dbvnyl/cxST27eXk4++WS/2mApK62Xq666KjHboKYz22yzzUx8cCFU6BQzrvviRYnY5KqcJHL1liXZS+fOnd1qHm2oIbmq+4EabcsjQOEBSSKre69evaLpxxQDf+ihhxYVlTU8tPgqxv62224rKuM3dJ7evXv7TTdoEW3YlZBZfFq6vO5FeL7Qo0GDAaH42QT8Pg0QpYl+Wz5MQL9BrYfZ4cN6cv2We6jKSTQfePi70r6QQ7iuY2kSJoML1+PlNQDi3c81CFDL/AvxvrANAQhAAAIQgAAEIACBrATqwgIu662UbO+SLvdgZdf2ycAGDhzoYr41hZbifqUcKXP3LrvsYvbZZ58ipbDUhV9++eVm3333dUX8VGJyKV977bWNXujlhpwmUuIkSnhWLyKlU0qSmMhluF+/fomWdylWPmu6lBYNFIip9mn+a7lFy53XK1Ph9YWJERRjqwzw3gp+4403Opd0DZRo2jHdr6+//tplRb/66qujZvr06eNctbUjjzZ8w/o+SEGUxVqifl177bVuEETTXslCK9f3G264oSi8YOTIkYkDJFLkFAfuY8vlrr/55pu7QR9d3wcffOCO+fPpnLISb7/99lqNJGQWrqtAXvciOpldCePfNRAjDwa5x2v2APVVgys+pl2J8iRJ91r7xUru/IoDVzsaMJF3gNrTwIXyG8jqrzARL/otnX766X4zWiqxhhfla8gi4VSAGixImlVAgz7h4FN8MCXLeSgDAQhAAAIQgAAEIACBZiFgXTmbJCeddFJBn3JiX/gL9gLdx7pMF+wLeWHUqFGFLbfcMtqv41axLtgX/MTmrHWvYJWBovJWUXBlJ06cGO23FvKi+qpnFanouFUYCtZCW7AZxKN9Ord1ay5YhaVglfKCdccuasNaRwvW5btglbSi/X5D5XWN1uJYsApcwSZGa9CGL5vn0iZ7i67BKk6p57SZrQtWiYzK+nsRX/bv379g3bOjcuIRF6t4R8fj9ePbYmYTdcWbKOTRhhq1Cm7BJuDK1J9S3y3fQZsAsGBdzzO1Zy38ibytMhrVt27yvulomee9UKNWUS15b+2Agzu3tcZH/dJ90vc1Sexc3u53GL+XSdvWs6BgB12SmimMHTs2Op9+f1lEv01/HjtwkFjFzp4QlbGu8oll2AkBCJQnkPX5Xb4lSkAAAhCAAARaH4FqPSdr5oIeuuLKHVWusbJYKn5XIiua4rtl0ezUqZPbF/+jzNdyoX7nnXfcIblDKwO2rJahxXWGGWaIqspirQRuipOWyHKucyhGW1a95557zlmCdUxZxZVdXO3KUqu5q2UVl/u0ziHrodrRtvbruKZvkgu7yusa2rdv76zSilu3X0M1W1WxyqKRhVmiubjjLuT+5LpuJSFTv7TuRX1WEjElVHv99dfN8OHDnbXau9nreFx03+TqrDhhWUXjIn5y+ZYFVhnmk6Yfy6MNnVeu/jfffLO7Nllq4+KvTxZaXX/ad8vXU3nFk8sDQ9OFxUWWcMWfP/HEE84FPinxmqy2np+8DOKS571Q2/q+i7NCAuIiC76/R7Iu+37JEp/m4q0+y1NC1vOk5Hb+/toBNDN69OhUDxRlRPfnC6c5i/fRb+v/wnLLLefqyEsjia2S6Pn4fV1XGIbg22EJAQhAAAIQgAAEIACBeiUwjcYqmtI5KWGSwYMHl2wmnFtZ7t5y7x02bJhTqOVCutNOO5VM6BVvXK7QPsN2/JgSfUkR9rLVVls5RV9KoTJnx5VKKSZS7C+66KLUBGS+raxLJTMrFZedtZ0s5ZTsTAMKn332mSuu2OXtttuuZFUNiFivATP//PMnKjolK8cOSnHSQIdchhdccEEz44wzxkqU38yjDZ1FX2eFCyjZmRT/LIpfqd7pmhQiIcaK39ZgS96S571Qf3Vfde1zzjlnk++trlX3RqEF+p1ovvl27drljSBTewoBkEu8d5/X4JkUfAQCEKiMQNbnd2WtUwsCEIAABCDQsglU6zlZsxhwH0Ot2+Cn+5ICnaZEl7tdSgAlS52s0v6FXBYxTX0VKt9qR/BktZblTJbquCiJlZK96SNlSxZ2KRzqs+Y5loLkLfiq7+cs11IfWSD1kTVWio8+sq7XShR7fd9990Xx34pJtu6/LqFdWh/U37Ss6Wl10vbL0inFuymSRxs6v6ymUhL1yUM0mKDM8aWyxzf1PHneC/W3qfcifj26N2Gcefx4LbY/+eQTl/vB/9Y1YIbyXQvynAMCEIAABCAAAQhAIE8CNVPAV1xxRTcHs6a66tChQ5OvQQq1jVXN1M7qq69u9MkiUkrzUkyznC+vMiuvvLJzm5YiLrHx7SUV8LzOSzsQqAWBZ5991nnN6FwKA0gKN6hFPzgHBCAAAQhAAAIQgAAEmkKgZgq4LMfKNo5Uj4CyouuDQKC1EVDIij4IBCAAAQhAAAIQgAAEWjKBhv7YLflq6DsEIAABCEAAAhCAAAQgAAEIQKBOCaCA1+mNoVsQgAAEIAABCEAAAhCAAAQg0LoIoIC3rvvJ1UAAAhCAAAQgAAEIQAACEIBAnRJAAa/TG0O3IAABCEAAAhCAAAQgAAEIQKB1EUABb133k6uBAAQgAAEIQAACEIAABCAAgTolgAJepzeGbkEAAhCAAAQgAAEIQAACEIBA6yKAAt667idXAwEIQAACEIAABCAAAQhAAAJ1SgAFvE5vDN2CAAQgAAEIQAACEIAABCAAgdZFAAW8dd1PrgYCEIAABCAAAQhAAAIQgAAE6pQACnid3hi6BQEIQAACEIAABCAAAQhAAAKtiwAKeOu6n1wNBCAAAQhAAAIQgAAEIAABCNQpARTwOr0xdAsCEIAABCAAAQhAAAIQgAAEWhcBFPDWdT+5GghAAAIQgAAEIAABCEAAAhCoUwIo4HV6Y+gWBCAAAQhAAAIQgAAEIAABCLQuAijgret+cjUQgAAEIAABCEAAAhCAAAQgUKcEUMDr9MbQLQhAAAIQgAAEIAABCEAAAhBoXQRQwFvX/eRqIAABCEAAAhCAAAQgAAEIQKBOCUyfV7+GDBmSV1O0AwEIQAACEIBAjQjw/K4RaE4DAQhAAAIQsASwgPM1gAAEIAABCEAAAhCAAAQgAAEI1IBAbhbwwYMH16C7nAICEIAABCAAgTwIeMs3z+88aNIGBCAAAQi0NgL+OZn3dWEBz5so7UEAAhCAAAQgAAEIQAACEIAABBIIoIAnQGEXBCAAAQhAAAIQgAAEIAABCEAgbwIo4HkTpT0IQAACEIAABCAAAQhAAAIQgEACARTwBCjsggAEIAABCEAAAhCAAAQgAAEI5E0ABTxvorQHAQhAAAIQgAAEIAABCEAAAhBIIIACngCFXRCAAAQgAAEIQAACEIAABCAAgbwJoIDnTZT2IAABCEAAAhCAAAQgAAEIQAACCQRQwBOgsAsCEIAABCAAAQhAAAIQgAAEIJA3ARTwvInSHgQgAAEIQAACEIAABCAAAQhAIIEACngCFHZBAAIQgAAEIAABCEAAAhCAAATyJoACnjdR2oMABCAAAQhAAAIQgAAEIAABCCQQQAFPgMIuCEAAAhCAAAQgAAEIQAACEIBA3gRQwPMmSnsQgAAEIAABCEAAAhCAAAQgAIEEAijgCVDYBQEIQAACEIAABCAAAQhAAAIQyJsACnjeRGkPAhCAAAQgAAEIQAACEIAABCCQQAAFPAEKuyAAAQhAAAIQgAAEIAABCEAAAnkTmD7vBhvb3ogRI8xCCy1kunbtauaZZ57E6tddd53p0KGDWX311c2ss86aWKaSnT/99JNp06ZNJVXrss7XX39t3nrrLde3du3amY4dO9ZlP+kUBGpB4OeffzYvvPBCdKpu3bqZmWaaKdpmq48f0AAAQABJREFUBQIQgAAEIAABCEAAArUm0KwW8BdffNH069fP9OzZ0+y2226J1/7GG2+4Y927dzennnpqYplKd66zzjqmc+fO5v777y/bxMknn2wOP/xwc++995Yt2xwFpGxssMEG0WfUqFHN0Q3OCYG6ITDddNOZwYMHR7+JAw88sG76RkcgAAEIQAACEIAABKZOAs2qgOvl2MuFF17oV4uWp512mtueY445zMCBA4uONWXj8ccfN6+99pp5/vnnzVNPPVWyqUKhYP7973+b888/30gRrzf5559/TN++fSPrtwY1hg4dWm/dpD8QqCkBectowGzNNdd0573yyivNsGHDatoHTgYBCEAAAhCAAAQgAIGQQLMp4JdeeqkZM2aM68tFF11kllpqqbBfbl3Hb7rpJrd+8cUXm7nmmqtBmXCHFNFffvkl3JW6fuaZZ7pj8803nzn66KNTy+nAO++8Y7755htXZt999y1ZtjkOis1dd93lTr355pub4cOHm2mmmaY5usI5WyGB66+/3iy66KLus+yyy5q//vqrxVylQkzuueceo9+55LDDDityS28xF0JHIQABCEAAAhCAAARaBYFmUcBlcT7ggAMigMccc4yLxdbLcvjZaqutojJyHw2PJa3L5XTrrbeO6qSt3H333ZHyf8EFF5jZZ5/dFVU/ZBGPy7XXXhvt2m677aL1eliZMGGCOfjgg11XpGTccMMNZvrpmz20vx7Q0IecCCi84bPPPnOf9957z2igqyXJ/PPPH/3e1e/dd9+9RQ0itCTW9BUCEIAABCAAAQhAoDSBmivgX3zxhenVq1dRr/SCn/QJCyUdj+9TeSnhSfLBBx+Yxx57zEyaNMkcdNBBrshaa61ldtppJ7f+yCOPmDPOOMPFhF922WVRE7///rtzP9eOPn36GCU3qydRn73Ijb+cl4AvyxIC5557rjnqqKPc5913300F0hq8KdZYYw3jY8CVqPC2225LvV4OQAACEIAABCAAAQhAoFoEamoq/fzzz13CNe/OrYuSQp4mcveWG3r//v3Nsccem1bMKEb777//dsp1UpZ0KepbbrmlkfVOSreseZIrrrjCuWrLojdo0CC3T7Hmm2yyiVvXn1tvvdUNDmj9mWeeMXvvvbdWE0V9+PXXX81KK61kTjzxxMQyee788MMPjVz5JbquHXfcMc/maauVExg5cqT7TegylcBP7uVJokEqzVTgpaV6WCjnhGZU0P+D4447zmy//fZ4i/ibyhICEIAABCAAAQhAoCYEaqaAazogKcGh8q0rXHDBBVMv1CvTUopLlVMDikuVpS7JAv7dd9+ZH3/80Z3nySefdEslVPMKx+WXXx65nivZWvv27V0ZWb9Dxf+jjz4y+pSTP/74o1yRXI6fc845UTvnnXcecd8RDVayEJh33nkjBXzOOedMrSKvCs1U0NJFIRpSwo888kj3O5YVvHfv3i39sug/BCAAAQhAAAIQgEALIlATBfzmm28uetHdYYcdnGVZnLwSnMRMFmuJMnrffvvtSUWc4q3Ea1Lsn3jiCWcJjhdcfPHFzXPPPecs275Nr9B/8sknZv/993dVevTo4bKJ+/pKbuat5bIuK5a0lFx99dXOujbbbLOVKpbLsT///NPFe6uxFVZYwbnO59IwjUw1BMJwirZt204V173rrrs6BVwXqwSPKOBTxW3nIqciAhpsHz9+fDToHr90DTZ26NDBlBp0jNdhGwIQgAAEIJAngaor4LIGy+LkRW6vcmeVa7fEK8T+eNoyS7kk67dvT1ZtKegbbbSRm35ML96y7Hkrsqzs3p1bdeQaf9JJJ7nqmsZI82pPO23pkHllS3/ooYfMjDPO6OpV88/TTz8ducYrNr0SUTz8xx9/7AYZlNROFkJxmmGGGSppzvXnt99+M3PPPXeiJ0JjG1VowFdffWWkHOY5qKEBG30vlXwvy71SWIFyCKissoE3pS95XpPa+vLLL909lLeG7p8GlmTZziL6zntpyjX5NuJLeaXo+yXW+s3nlZ9ALuT/+9//3IBYY7+rGkSTu71yPmjmAN1b72kT7z/bEIBAyyMg5fuaa64xr7zySmLnV111VZeIUUsEAhCAAAQg0BwESmuUOfRISsvYsWOdcvDwww8bxXVLWfDy/fffm7SPz2iuqYPSynz77bdGseWvv/56WSuwFBP1YZlllnGn33TTTZ3CrA3NEezjXKUwyOKtF32JkpuVU75VTi/zklIDAa5ADn/8FG5qKp7UrlTzkydPdnMhSxGRArryyisbTV2mGPKll17aKc+HH364+eGHH0o1444p5l0J6xQjvOSSS7os9WpXMcJdu3Z1x2SpF8/OnTu7zz777FOyXSUD0/m7d+/uOC688MKunxogUBKtN954w9XXQI5v89lnny1qU2z8MYUXSJTdXvdU7Ujx1CDBTDPN5Pqt64iLPB+Uqb9jx45O4dZy+eWXd33ZdtttzR133BGvkrqdxzWFjeu7vsUWWzg+iyyyiFlnnXXMxhtv7PoqJVzsNP91XJTbQAMIuhbx0fRcXtZff32z+uqru2MqE3p7iK/nufPOO/sqiUsNXB1yyCGuvJRj/daUE0HWdrHXTAPyOiklcnfX+XQdflrBl19+2eVfUBv6qI/636KZEhQ2knQP087hEy/q+Lhx49KKsR8CEGhBBGT5ltKtjw85S+p+1nJJddkHAQhAAAIQyIWATWDWJLFW4oI+5cQqYlERa/0u2M67T7QzYcW6qrsy9qU94WjxLmt5LYTnKD5avGXjuAtWCYv6sMceexSsi3rBJlgr2ERrBavwR8f69etXXLnElrWUu3pWcStRKp9D1u3cnWuJJZbI3KBVQgsq79mXWqqcHdhIbdtaGQrrrbde2bb+9a9/Faz1OCqn7SSx1tyC9UCIypXq24gRI9x3zpexXgdFTd53331RO1ZpL9hM39G2r+OXVnEtqqsNO01d0ffDl40v7XRWBasgNqjvd+R5TWrTWpQLAwYMSL2WeP/OPvts3xW3XGWVVTLX1e/Di82bENVLu38qa71EMnFTP232ft98g6X/HamcvoM2X0N0/vg1+m39r7ADYA3aStphB1ei9vRbRyAwtRLI+vxuCXzsIJ37/6jn+VVXXVWwg2uJHx1TGf0vVR0EAhCAAAQgkEagWs/Jqrug2xdkJ2mZk2XJShMff60YcGUvThJZV+X2LGt1Wgx4vJ6shLKGq47ip4cPH26ssuKyosvV3ceH65imatK0Rccff7w5+uijTZcuXeLNRduyLktmnnnmaF+1VtQniSzYWUQs5XrrrfqyAsv9frXVVjOLLbaY+emnn1yWdyWp8snmhgwZYqyy26B5WXTllh+2tcsuu7i2FFf35ptvGqsEO6uzMseHCbxCy2rYsKaGu+SSS6JdssjLYrviiiu6+H5ZQP30cIrZtwMEUVlZs0MJtxXHH4quV/dQ3gr333+/sySHxxXHv+eee0a71A8lD+zWrZvzwpDrv74rErk5KveALO5JU3XleU06n/0n4LwXtC6RRV8eJcpxIBdyWZZl8fecBg4caGSt96x07cq5oHsk67/ukU8qaF9InXVfbuPyNgndskOeae7t6pu+L17ETR4s+n7af2pG3xlZ3OX6LdGsA/q9JM0WIKu+PBYk8j4588wz3br+6F7YgR/XV00rqDhuiUJadE1p/ydcoSl/5FXhxQ4k+VWWEIBACyIQj/XWb1n79P9N7uVpLuaykL/66quubGgtVz1iw1vQF4CuQgACEGjJBNI0/qz7KxkZCC3gll1kjWrqulWOynZbVsm+ffu6c8rK9/7777s6VumIrHdWMSvYKcoKNqbbWR2twu7Kyypslc7Uc+i4rsEqF6ll8jggq6tnJQtvFjn44IOjOtZluaDrTRKrxEUcdA5ZXeNilaCoLavUOQt3vIx1CS7YwYuonO+vVRrjRQvWxbmonOrpPsVF9yq0jvo2rVt6UVH7UlXUnsrJ+jthwoSictpQP73Yl7eia0+7j3bwo2Bdq6Nz6LsSl7yv6dNPP43Op+vRbyhN7EBRVDZuBQ/r2IRkUTnd9zSxcdxROVma4yIe/l5oKet20vdG9zRuzY57L6htm9OgqD21qd+gzhMXq4AXlRWnLOJ/q6Us+lnaoQwEWjKBSp7f9XK93uItTyx9vOVb+20IVWo3dUxlvCXc18cinoqMAxCAAASmWgLVek5WPQbcvjyXFCUCS/v42OYjjjgitYyssLLYWeUs1Totq54+ihOV1ddbyaxS6ixzsnoqjnSWWWZxfT399NPNXnvt5ayFiuf2FkVZC8NpyeIXpnh0iW8nfjyvbX8etefj1ku1bX81zrrtyyh+Oi0hljwSttlmG1/UJfmKNuzKAw884Cy+2idPAlkhFf8dF8XMK5ZbXEORlTIUq5SZQw89NNql6dRUL8mivNRSS5lHH33UnTeqYFfi3hXxbVnr5R0hS39cwth+WVq9VV+WZX0PkkSx4Lfcckt0yL64FcUgV+OaZHmX14JEmbw1h3WahBZ8zRXfVAl5JiU9C++fvFXkKZKUB0H3VKx84kP1S+XjEk+Mpzjyl156ycXgx8sqnls5DLxousMsIkuXxHvZuA3+QAACdUvAx27rGaBPaL1Wp0PLt9bTJK1cufbT2mM/BCAAAQhAoLEEauaCntax0NU1Xsa/+OuFvFQ51UtTKHXshBNOMNYqp9UiSVOwHn/8cZfsS8mjJHKhlkKuRG1yV5cCpCRRcfHKW7UV8IkTJ0anTnPpjgrYFSk+moZNCa00ULHccsuFhxusS9H1Itf0UKS8e5G7uhK5lRIpshdccEFqtnslFJObukQKvZ8SLq1NfQ+GDRtmGpP5XdntvfKa1q4GKS666CJ3WGU1T3zSIICvr0RmSgonF3fddymIUvQl1bgmTd0npVsKdTnmXrlUX/RSWU3xmf91Dt0/JWArJ0pud9ZZZzn3fbmkK7ygU6dOqdVGjx5tQrfxeEElU1Q4gURJ4LLIAgss4IqhgGehRRkIND8BuZiH2c31f27dddd1Gc3VO+9CnrWnqm/zeLhQGdVR+xpQ1jkkZEt3GPgDAQhAAAJVINAsCniYsbiUwqW4TommCwqVzjgHKU/Kti1LuuKvr7322qIiSZZPKVleYbbuyS5WVuWsW5qRAm7dip0S5huSAq/+qI4sfk899VSRguYzoKt8OL+yr5/nMlTA4gpyqfOoXpqiI+VcbSlD/XfffZfajOK7vYSWVr8vvpTFtH///qmKWTi9nGKmyw20qH1ZPbMq4IrjV+xzOdF0Z/77sN1222Waasy6LjoFXG0/+OCDkQJerWvSgEA4OBJekzw8pGzre6h7WStRbLcXKd9Z7p/KqKzyKkgUj5n2vdR3R3kASkk44JD12jWNmaTcwEyp83IMAhCoPgH9X5NyXMriXUkvvCXc11X7+l/kxVvE9UxU2bj3li/HEgIQgAAEmkZAuoL0Nxle9f92apBmUcBDZTW0qKYBV8IxfbKIn2IsLCsLttyk5a4t5XieeeZxUxhtuOGGLimUEjvJmiuRkioF3GZ+DptwSdtkMZfbuiy2SigVJhfzL/SqVG0FXJZGL5qCrbEiZVP9l9VWAwmvvfZapiaU8M4rl0rsldXSr+nN0sS3p+NJ9y6pntzGZW32ibqSyvh93irtt9OWoau2QhLEppyIoxd5Fnip9jXJxV0umHKrl2eDOCgZXHOILOBelOAtq4Rl9XKdJqVc7X2drN9DX15LGyvuNpXADoEABOqXgP4/yCothbgpFu9yV5hmEVfYlTyesniblTsHxyEAAQhAoCEBGUPkmVjKUNiwVsve0ywKuFxGFUMr1/I0N1/FW2v+b4mU9HIPP1kApdiH1mF/a+S+qo/iQ/VZY401GsROy4quB60+cnnt0aOHrx4t5YZ+yimnOGVHbu0q4/sfxmVXWwEPR4ca40L75ZdfunmYvYtddGEZV2wyrqhkkldBdDC2ElooY4dcDL7fV8rN2JfxSyn1WRTwrBZOO1Wab9otsw5K+EqhMh5ahfO+JjvVl7EJIaKBEH/+5lqGCnhSLoC0fmkAx0s4+OH3+WWpwRtfppKl/y6XmoWhknapAwEIVJeAnn96poTPwTzOqPbkdu4t7hpwluedthXiptlWEAhAAAIQyJ9AmzZtjIxLWk4t0iwKuCzRimktJaEr2EYbbeSmWipVPsuxG2+80bmVKwY1Pj2V3OK32GIL18xuu+3WILGXDsh11s4pbY488khnNZay7hNAhQpYOG1Tln41toyUfk3VJOXbKxLl2pCFVC7ToXVW05LJC0Bu2hp50kuGprNSIjTFQMclTFgWrsfLxbeVJC+L+MGMLGXDAY8s5cuV0Q/fi80S7ywtfjvLMk35zPOa9J2Vm74XeULIQiwXe72QaoowDTjIladWimUYThKu+z6mLTXg5cXnevDb1V7KTd2HG/hY8Gqfk/YhAIHKCOh/m2K15SKuGG29G2g7bZqxys7y/2t5i7sGBjWAqhCYpKSS/78GaxCAAAQg0BQCMqLqvawx75FNOV891K2JAi5XWcV662EmH39ZvsspcGHMt502rIHFOgmeRqz1kVu23MXlWh6Kn/M4tL7541ICNG+x4s01P7Jc3ZJEcc9SwKX8hK6vYfKnxlg9k86RZd/666/vsrnLCixlNG1+Zt+Wrs0r37p+xbOnxUanJbQLlTrflm+/1LJU2TCmWS8+a6+9dqmmomPhAE20swkr7du3j2rLQ+O4446Lthu7Uo1rUox5qHxrHm3Nux3PGK6+Kh9CrST8LemFVd4lWcT/FlVWWeVrKePGjYtOp/nKEQhAoH4JeMu0eqj/+z42W0tJUy3i3uLt29NzSOv+vPK+06Cd3i0QCEAAAhDIn4DeZeXBnPROm//Z6qPFmijgSmLSmDjuOJp4PHb8eNJ2kruYslNLQqUhrLvJJps4Bfzee+81mpIqSeRePnbsWGPnDy5ylQhdwdMU2KT2Kt0n93c/nZr6WyohmgYHfKZxWc71EpPkqu/7Ilf1JNHgiQYeZE3X9fqXlKSy4T7F1KdJGIMbJnhLK6/9Ut7yjnkOFfAwnrtUP9KOVeOaFLPvRVO7KQN7muTNJu082i/rlJfQHd3vS1u+/fbb0aFyWfmjgjmt+OSOak6DLQgEIFD/BOKWcB9K1dRs5d7iLQu7ROfRALw8w5QvRsnXZJ0JvaTqnxY9hAAEINByCMgoK0NoOeNsy7mi8j2tiQIuFy5lPPZWY41wpLnmnnrqqZGlNt59WavSsqbLpVUj1FK8ZRFeffXVi6orSZq3uoUWyrCQt3prsEBKjPqbJFLU4+LjfvXQroXILd+LFIpSCrjmkPYi1/9SyrdeNP7zn//44g2WcmP3c2BrSjbFwpcSDXpo+rY0CbNfS7GUi3+5AYymWKfT+hFa9/ViJzf8crH8UjiVkV25AXbZZRf3sqb2q3FNsoB7KRe+UWrAw7eR11LJibyce+65Lm9DuRgeWZPC+eHDhGy+rWotNRjoB66UoE/hMAgEIFD/BLxFWj0NPaA0EBwqzyqXRVRPyrfqat2LP0+1XNz9eVhCAAIQgMDUS6AmCviCCy7okpeVwvzDDz+Yww8/PFK+pcj6zOd+XZZwWcs0D3QpJTLpPGHCrrQX/tASp/JxF/akdv0+nzW73JRJvnxTl1JSZb2TNV5zICsGPS2eNXy5KJU8TSP8UqhLuYzL/d4r4CeeeKKLxUtrU4pWuXmhNde6OI8ZM8bFfyjJnZTfNJEl+Kabbko7XPF+WTmOPfZYF7qgRjTtnOaqLiW6fiVrGzBggNH3V8nRJNW4ptAroVSOASWT0zR5jRUNvFQiGmxQLgHN5634Hd07zyGtPeUX8FZ6fYfTfo9p9ZuyX3kbvGi6OQQCEGhZBLwlXGFVEinRlcSGq14tsqu3LLr0FgIQgAAEakFg2lqcpNQ5FHCvebvlAqzpnyTKfq5sz14Ul73vvvu6Tc3PrYRXl112WaNiXb3SJqtX2nyeSrTiY0JffPFFf/qyS+9ir4KaU7xWImXYy8knn+xXGyxDl2jNc57knq+4+c0228wpnmEDccVM/EK3XSmboXXW13355ZedF8KjdrqsciLF14uUM8X8S3kPRd4NsnyHU7+Fx8P1sM/helgmaV1TzHk5++yz3fcwqb4GKo4++mgXR6/ySnwW1tW+vK8p/F6FLtQ6lxfdW2UN98qt9peKBw8zxIeZyHV9fpqueBtJ7R1zzDG+Cy4uXdeeFC8plpruTwMXXi644AK/Gi3DulkScoR9SrpfvmEdC70n9tlnH3+IJQQg0EIIeAu1vLH0kaVa+7wlXM8cfeKW7bTjae21EBx0EwIQgAAEWiCBmljAk7joYXj99de7bNveNVzlLrroIpdsKnQxk2I8YsQIlzRMGcylYOy3337mnHPOcRZWxUOnWWHVpqYnk+IuKWfVXnnlld0c4N6i7SqV+ePd31RM9WslckPXgIE8Ay655BLTr1+/xAEAZfX2WdNlsVX8+sCBA90+xeLKRf3OO++MMkOH/dfgQlx036SEi5GsnlpX+926dXNFNbd4GBMvl+k0pVEVVE9u6nLllqh9fdRvzQ0ui3zoVi3FUXVk/ZfEY0bCAYZw3RUu8UceBFJivTu/PC0UO7/VVlu5eceVBV9u5xok8N4Zau6GG24wcat03tckNj4XQu/evY0GiHT/dX2aC/yhhx5KnJYt6f55BLpnXrbddluzxx57OJdsDX6png+rmDx5si/m9kcbU1bUD4WOKMxEMnToUOfRoMESDRwo3EShCMpVEP6uNGiUZP0O71l47imna7AIrzFU3uMFL7/88ui+yUofv2fx8mxDAAL1T8BbxPUcliU8LTbcW7z989rHekuB1zoCAQhAAAIQqBkBGzvdJLEvsgV9soiNzS5Ya3ahf//+moOo6GOVisKECROiZuxDMjpuFfRov8pYJTo65tuxltmCVcgLNoFWVNavWJfpqLxVVvzugnWddfutBS/aZwcA3H6rhET7yq2E12NdwcsVz/W4zegcXZuux1ovE9u3Cc4KVpmNynpu8aWuxSpSUTnr8p3Ynh1AKfTq1SsqF29H21ZRLlgl1t0Tf9wOoCS2p5233XZbwcbdl2zTKvsFq/wWrEdEVM4q+0VtWkUvOmaniSs6lmUj/L74fictbTK/gn3hK9lkXtdkrbcFm/U8uq6k/mifVaoLdrAiKmcV4NT+6beS1o72i7PEzmIQldPvLE2s10BUrlS7+l6IcZrYAaKoHTs4lFYs2n/ppZdG5W1yumh/uGJnVXDfR/VL57dT44WHWYfAVEmgMc/vegdkva4KNhyoYK3i7mMHFAt2QLWgZ6Q+Wtc+f1xlVQeBAAQgAAEIpBGo1nOyJhZwJVzSHMah1dC+CDuRC5mmU+revbvf5ZZyg00SWbplSXv44YedpU2xpxLFbOsjt2xZ3eTGLoueF1lNFYsuF2ov3nU1dFvVVE/hdE++rJay2Ola5HatqcY0Z7YdEHAx2Dqua9GUJbUUnbNPnz5Gc5yLhWKXQ5dg3xfF0ctqKhdcsfP3QlxkEVfSOiUS07XJGu056XiStG3b1owePdp88sknLqnVs88+66Z/UwIunUsfWWplZbQvP1ETpRJ0KSZXcX2ybFvF1cX2/fTTTy7kQO1pijKffC7MuJ2UD8D3P8nCGnUmZUUWe2VCV7Iuq9wVuXSrir5fdvDBJYyTVbyU5HVN8gKR67bulTL067vu57KWl0DXrl1d5l59F1TWX79c0tNEyQhlVbf/XJwF3ZfTPZdF3E8Hod+Hb6+Uh4d+e7rnI0eOdHkafP98u2pD/ZT7fqnkZ/qNe9fzLHOEa95z378wmZ4/r/q/2267RbzkOVMu0Z+vyxICEGgZBLwlPB4b7i3i3uKtOcQlcj3H8t0y7i29hAAEINDaCEwjjb8pFyXlWaLYzjSRcibFwYte8PUQVEZzKXxJIgWjc+fO7pBckNMUCZVTNm6f2di3JZdq/yDWPikDimuVIudF7au+tfq6Nvz+tKWSnW2xxRZph11bWedBTm2kggNKACal0Lt9S3ktl2BKgw+aa10DBmkZ6SvoSmIVJTOT0iVRKIB3NU8snGGn3Ix9HL8y1X/99dcZalVWRMqbuCqzvgZc9D2Uwpe3VHJNun+aGk79aqooTENhIRogSRrQqKR9DZ4oeZwUeSnGWZTpSs5Trs4RRxwRJfbTwMntt99e9e98uT5xHAL1QCDL87se+llJH+RqLuXbu5w3dbqySvpAHQhAAAIQaNkEqvWcrIkFvEuXLi67tF7wFU8rK1i5l/EwkZSUnzQFXJYvJXGTpVIZjm+++WajMYVQ+datl9IfKt/aJ+u1JKsCJ+VaWb2lWEjpVeypLMEaRdeAQrx913gN/siad9999zklXKfbfvvtnRU5abo03x0pkWlZ032ZUkslWdPgSTllVPG8mp7Kix9U8dt+OWnSJGdNX3755f2u1GU4rZk8AKop+p7q/urTWKn2NeUZwyxLfjlrfmOvX8p8KY+HxrZXSXl5rfis+vp9Xm0TPVZ7wKmSflIHAhDIl4D+Z+u57N8FsHjny5fWIAABCECgcgI1UcDVvSS36FLdVhIrP92VMqSXEykPcpvVJ6vIlVeW4KxTh80777wmKWtz1vNVs5xcg5WIS4q4RJb9Ugp4pX1RUix5O4jd3nvv7UILvKtyvE2FEWhebz+YomR5SR4P6qtclzXQIjf6Ul4Eb7zxhmvTn0vt16O0xmuqR86l+qQBP30UjiJRpvrmHhAo1V+OQQAC+RHw2c3za5GWIAABCEAAAvkQqIkLej5dpZV6IKD4eynSXhR/rBCAjTfeuMiyKAu53DY0hZwXuQJ27NjRb0ZLxZ+H2bGlMCmjdrt27aIympZM2bnlTuxji+VmL3f7epTWeE31yJk+QQAClROolmtd5T2iJgQgAAEIQKB+CFTrOVkzC3j9oKQnTSGgEAK5/CuplUTx+X5ecIUDKB75gw8+iOLR/bk0TVqS8q3jstxrDnJZjSWa5ksfTZMlBf+7774zmj4tFE1RpjL1Kq3xmuqVNf2CAAQgAAEIQAACEIBASyEwbUvpKP2sHwJ9+/Y1mqddc5CHIgX60UcfLVK+FaMthVxzlKeJLN2a51tu7aEo+Zlc0uPKtzLR6zxJGa/D+s253hqvqTl5cm4IQAACEIAABCAAAQi0BgJYwFvDXWyGa1DWdTs/tNF0YJrWbPz48c5SPcsssxhN/aWPrNeLL764mXba8uM8ymqueG5NASflWsq8Ysflbq5kOr5NLVtKHG9rvKZm+KpxSghAAAIQgAAEIAABCLQaAijgreZWNs+FLLfcckafvEQu7FtuuaX75NVmc7fTGq+puZlyfghAAAIQgAAEIAABCLREAuVNky3xqugzBCAAAQhAAAIQgAAEIAABCECgzgiggNfZDaE7EIAABCAAAQhAAAIQgAAEINA6CaCAt877ylVBAAIQgAAEIAABCEAAAhCAQJ0RQAGvsxtCdyAAAQhAAAIQgAAEIAABCECgdRJAAW+d95WrggAEIAABCEAAAhCAAAQgAIE6I4ACXmc3hO5AAAIQgAAEIAABCEAAAhCAQOskgALeOu8rVwUBCEAAAhCAAAQgAAEIQAACdUYABbzObgjdgQAEIAABCEAAAhCAAAQgAIHWSQAFvHXeV64KAhCAAAQgAAEIQAACEIAABOqMAAp4nd0QugMBCEAAAhCAAAQgAAEIQAACrZMACnjrvK9cFQQgAAEIQAACEIAABCAAAQjUGQEU8Dq7IXQHAhCAAAQgAAEIQAACEIAABFonARTw1nlfuSoIQAACEIAABCAAAQhAAAIQqDMCKOB1dkPoDgQgAAEIQAACEIAABCAAAQi0TgLT53VZQ4YMyasp2oEABCAAAQhAoEYEeH7XCDSngQAEIAABCFgCWMD5GkAAAhCAAAQgAAEIQAACEIAABGpAIDcL+ODBg2vQXU4BAQhAAAIQgEAeBLzlm+d3HjRpAwIQgAAEWhsB/5zM+7qwgOdNlPYgAAEIQAACEIAABCAAAQhAAAIJBFDAE6CwCwIQgAAEIAABCEAAAhCAAAQgkDcBFPC8idIeBCAAAQhAAAIQgAAEIAABCEAggQAKeAIUdkEAAhCAAAQgAAEIQAACEIAABPImgAKeN1HagwAEIAABCEAAAhCAAAQgAAEIJBBAAU+Awi4IQAACEIAABCAAAQhAAAIQgEDeBFDA8yZKexCAAAQgAAEIQAACEIAABCAAgQQCKOAJUNgFAQhAAAIQgAAEIAABCEAAAhDImwAKeN5EaQ8CEIAABCAAAQhAAAIQgAAEIJBAAAU8AQq7IAABCEAAAhCAAAQgAAEIQAACeRNAAc+bKO1BAAIQgAAEIAABCEAAAhCAAAQSCKCAJ0BhFwQgAAEIQAACEIAABCAAAQhAIG8CKOB5E6U9CEAAAhCAAAQgAAEIQAACEIBAAgEU8AQo7IIABCAAAQhAAAIQgAAEIAABCORNAAU8b6K0BwEIQAACEIAABCAAAQhAAAIQSCAwfcI+drUwAr/++qt57bXXzLTTTms6duxoZppppma7gr/++stMPz1fq2a7AZwYAhCAAAQgAAEIQAACEKhbAljA6/bWZOvYPffcYxZYYAHTtWtX06VLFzPzzDOb008/PVvlHEv9/PPP5vDDDzft2rUzH3zwQY4t01RLIfD111+bcePGuc+rr77aUrpNPyFQdQL6/+h/G1pOnjy56ufkBBCAAAQgAAEI1CcBFPD6vC+ZevXOO++Ynj17Gr3c9erVy+yxxx6u3nHHHWeuv/76TG00tdBbb71lfvjhB/Pnn3+aG264wfVlu+22M7LKI1MPAX0HN9hgg+gzatSoqefiuVIIlCEw3XTTmcGDB0e/jwMPPLBMDQ5DAAIQgAAEINBaCaCA1+mdveiii8w222zjPu+//35iL2+66Sa3/4wzzjCjR482V111lXniiSfcvhtvvDGxTp47DznkELPiiiuaPffc08w111zm1ltvdc3LHX7QoEF5noq26pjAP//8Y/r27Ws0GCPp16+fGTp0aB33mK5BoLYEZp11VnPvvfeaNddc0534yiuvNMOGDattJzgbBCAAAQhAAAJ1QQAFvC5uQ8NOvPLKK+auu+5yH8V2J8mHH37odm+yySbRYbmiS1588cVoX9rKU089ZVR3zJgxRkpUY2WdddZxVdTPCy+80HTv3t0MGTLE7Rs+fLgp54Y8fvx4M//885tjjz3WfP755409PeXrhMDFF1/svqfqzuabb25076eZZpo66R3daE4CBx98sFl00UXdRwN1TZW822tqfxpTv02bNkYhQ/PNN5+rdthhh5kXXnihMU1QFgIQgAAEIACBVkAgWbNrBRfW0i9h7rnnji5BL25Jsuqqq7rdeqnz8uijj7rVlVZaye9KXP7222/Ocv3QQw+Zrbbayiy//PJGVhntzyo77LCD2XfffV3xAQMGuNjvo446yiyxxBJun16WS4ncML/55htnLV1kkUVcf2Q9R1oOgQkTJhh/n6VYKAyBJHwt5/5Vu6fKC/DZZ5+5jx8wbMo5826vKX2ppK4GHDXg6WX33Xc3SlyJQAACEIAABCAw9RBolnTVegG5++67jZSuWWaZxWXvrhR5oVBwCW1kjfUW2XJt6UVwvfXWc4qDEofVo8IQWr0VP5gkW2+9tbM4K7ZQrudKxnbddde5ogcccEBSlWjfd999Z5Zeemnz3nvvuX1a7r333uaYY44x5557runTp0+m+3L22Wc766cU6SOPPNLceeed5pxzzjHbbrut6dy5s7Osh9fiO6CXTmVsV78VPyy5+uqr3Uex7KeeeqpZeOGFffFWtWwJ37+swBX+4EVeEApFQCDgCWTxhJg0aZI5+eSTjf6X63+F1meccUbfRNEyS3tFFepwY4011jAafJTniMI2brvtNtO7d+867CldggAEIAABCECgKgTsS0+T5KSTTiro0xix8c0FezG5fo444ohMXbAJwwrWQhud28bkFd5+++1MdWtZyCrCUR+///771FM/9thjhRVWWCEqK67nn39+avn4AZvIrWAV76L6amO11VYrPP744/HiidvWch7Vtwq1K2OtXoll4zutxb3w73//u2Ctp1Eb/rtxyimnFOzLebxKi95uKd+/LJBttvvonq211loFG8aQpRplpiICdmCvYENU3Cft/8lXX30VfY/02//pp59SCWVpL7VyHR2wlvzCHHPM4a5bzyObxLJZelfJ87tZOspJIQABCEAAAs1AoFrPyWaxgCdZRO2LV5Mk69zXsrjLcmyVVHe+559/3rlfK4GZLK/VErl2jxw50lmpZ599diOrdikO4VRe9913n5l33nlTuyaLtSwp+iy33HJG7uBZZdlllzWXX365GThwoLN+33HHHa7qSy+95DwKXn/9dVPOnV0JuC655BLnyt6pUydXP6v1WtOmyRok9iNGjHCZgr1F/IQTTjDt27d3Cb6yXk+9l2uu7181uMjTwct5551H3LeHwTIiIC8bfUpJPMRG/x/TJEt7aXXrab/CNeS5JK+hjz76CCt4Pd0c+gIBCEAAAhCoMoFpNJjQlHP4pFt6mcgqmqLq008/de6qcjUspYiWalNJvpT4S3L88ccbazEtVbzo2AMPPGAUfyfXaS9SXKVUpLl8+3JJSymPmgNbcdFJoqm6dLzaIrd+sa1UHnzwQSP3db0U6lpuueWWSpuqqN4XX3xh+vfvbzQQsMoqq7hkcvUYIlDRxQWVav39C06dy6qmnVOeAg2WWA8M8+abb+bSLo1MnQS8a7m1ChtrAZ8qICieXWFDEg0KK3yn1lLJ87vWfaz0fD/++KNRok8tJXPOOafp0KGDW1baJvUgAAEIQGDqIlCt52SzJGHTlCyyvMoKoIeiLCCVfEpZSsp9PTbbbDMj626PHj2iopoWZuedd25UIjJVlnX7xBNPNDvuuKO5+eabo/Za4oqyomtg4+ijjzayamYVTZum7NdNlYUWWshNqaZp1a699trM8fkPP/yw0T1tKfOPt/Tv39NPPx3F7itfQKUyceJE8+yzzxopI00VDXK9/PLL5pNPPnHz0je1PdVXv7788suyTSmngTL5f/zxx+bvv/8uW75cAf1PUXs2/KRc0bLH1TdNZahBEjGqVDRWKxbyjnn33XdzTR4mxVvStm3bSrtXsl5eDOIn0QCUksxpQKqxooRsG2ywgaummSRayv+uxl5nc5WX8n3NNde4PCl6gdK69iEQgAAEIACB5ibQLC7ozX3R/vwaAJDVQdPBKIGURHNZywqrJHFZLdZ6sHtLuubGliLuLTr+XEpO9cwzzxgNPsgNWVb2eBlfVsuzzjrLuXVrXS+8pZJb6cVYL/16GZxhhhlUpaTo+nTtaZZlDWyEybVKNmYP/v777877QAz0gqPEbKW8GqQgadozWSPSpFevXmmHEvfr/o0dO9ZoGjZZlxdccMHEcuFOuX8qdGG22WZLTfoUlg/X9UL/xx9/uER+pe5NWCe+XsvvX/zcTd0OMzk39l5pijx9vzUNnpQXL/LekEeLFPott9zS7y65vOmmm4w+ajNsS5WUlFFJFpXlP+27ruvwo5sqq2RYGhCQR4/658MhpCAqcaMGpZZaaqmoT/IY0T5990LZdNNNzUEHHVQ0wBceV6IxzQstGTVqlFlyySWNZgC47LLLnNeJ/3+i48sss4xLaijOSmyYRfQb129Y/3MUZhOKrkV9k6fLYostFh5KXLex2+a4444zWsZF81rb/BuJ//NU9tJLL3WzK2hdbMX4l19+MRpo02/Uh+N4zrqHukb9P9P/FSWL3GijjVx2/bT2tD9J8mDQs2dPY2PUjUJlFAqk/mqQRwOOelb4fuv8+s5qGr5+/fpl9qLaaaedzCOPPOK6P27cuMzf+6Trndr3xS3emspTs4JoKdFxhTRhEZ/avylcPwQgAIE6ICAX9KZItYLTs/TJKqZR8h7rgp6lSmoZOxd11Ja9LQX7Qp1aNjwwefLkglUcoro2Fjo8XPF61iRsjT2BkoBZxc/1WcnP7MtwY5toUN7Gz0fXLxZWOW1Qxu9QsiEleBNjq2gVrOLkD1W8tNa96Pxq1yovmdpS2aZ+nnvuuUznKleo3r5/5frrE/8pgVRWsUpVwYZ4ZGJus+CXTOpmLbEF67abqS2rwBbsdGmJ3bRKVdSG7oHNhRBtp303rOLs2rJeL2XLqkySWA+TqK5VEgqnnXZatJ12Xu0fOnRoSS46l1XoowRfpdrSMaukJ3XP7VNSvaQEjUltWktuYsJEte/L+//R1ush2uePlVrq/4SXpPb8sXCZFwMl6fR9sx4JLsGl305b2tCdgrVmh91JXbcDDlH7diA4tVy1DjTn8zvva7IDIwUbRlawA2XuY6fpLFgPu4iv1rXPH1dZ1UEgAAEIQAACaQSq9Zycqi3g9gUqEvsC7NzgBw0a5CxicsXOIjfeeGNkeZMFb88998xSzZXRHMqyWMsa1Fixir/RdFaKv22MyJLlrWuygul6ZcHSXM5ZLf7h+WTJtkpBtEuWw1Ix9EpEJ4u+ROz0kRum6vl4/qixjCuazseLcgGUSljny2kpy6LKZk3g5+vKguKv4f+xdx7gkhRVGy4yiJIVBREQkLiuCD9JgixJMkhcskgUJUoUWBaQqCiSo4jkKCCgsEQJIjmLoAgKiIAIioio89dbetqavp1mpmfmzr3feZ57u6e7urr67XjqhCo6VitfZdqP669Ku/LKkPAPGTNmTF6RIcu53rCImhD+gcWQWH9crhmTHss4wnnEzZnkiGnGuEETwhJbH/Fi8R074V7i+sZKSWJAyjDEns/SHiy4aa8L4thNjjrqKJsNHiK0j2vytddec4SnmIWdMBUs2PwhWJQ32GADt/LKKwdXZIaV4lgQyqy22mpu+eWXD7/t32yzzWazjmSDsXUZS/cSSywRjsWP0OBuueWW5HpjmEDyM3AfZYl/USQWfdZz3MQXc578yyUwve666xKrK/c/zxJCaNLCfXXOOecki8mRsfHGGztcp2GB1R8rO4IVl2dIXJ7l8XEaa84n3gQ89wg94hlo4SuwJCEjbaVdWMBjq39WfewnljoZ8Ew3DwK8bI499thkV1i8OQ6s4n40iuCJwUos4zxTbEjIZIOMmThZJd5DktYJmOUba3ds8U7XRDmzhrOO31jEEZ4LhMNJREAEREAERKAnBPI0/qrLu9UzUGX/dVrAbX933nlnqYXJyvpkZ02WJv/BZasqTX2ysdA7jzXRx103bVNkAcdS4i+O8OcVl6btyn74j8mG/8BNtrd6/Idvg+HhvFt1WRVN672rflIXlvWy9mCBxwpKWdu3TbEceeWiqf6yH95tt6ke/8FetknH67F6W5u5BuuUXl5/7bYbrwk7fp/BvlI1eDrYNkx90sLM7XxehqZ7KsujxGfdT+rCm4Kh9LKEYdJiC+YyyywzpJj/IE/qsvYxpJr/OG8qy1CAWNKtjE3x+PCKU1NZLMfeDTkpy3WdlqyhGHkOcPxpwaPEdw4k9bHvrCG9fKdIUxmsxVneKLSPoQrtGJj6DoP0bpuO16z+6ULexb2pHu/23VSEZ6Ltxyv0TeviHzx/KFfmUVFWX90MsL5b+23Ks4v9pMWHQjSV5f1QRWxYzKzrs8r2nZTp5/u7k3bH25rlO23xtvOVNzWLuCzhMU3Ni4AIiIAIxAS69Z7E0tCRdKthVRrVDQW8yn4pgyu1jzFNPrj40GdZK8KHvn0cpBXHIgU8dle98cYbW9llUpaPQ+sAsDYwRcnALbeKoJSggNj2KBVVxcd3NnyStSFjmFMXbrtVXDjhHStYee6+VdtUtVw3FfCqbajj+qu6r3Q5n2gsOee4ipcJCl98r3hrZ+EmjBtt1xTKTnxf0UFh61Da6NApEsaUNuWO7dg+lieeeCKpj/Xck95qHhdJ5tMKFm3LU7JwV7Z2ck+lxXsCJOsph/Jdds3HSjgu32nxlvakTlzVyyQOB0jXF3eylCnFdIjAwluEG+mQDFzBjYOPb89tkp2jsn2V1VcnAxqb7qzkXOI2nifeoyM5Xj+SQ16xpuWwhxHP0l5LP9/f7R4r9zxKt4+ZD390JqF823XW6pRtqcPqo+6y50q7bdd2IiACIiACg0WgW+/Jyf3LStIGAYY8i91GcTfMS/SUVT1usnfffXdY5ZXIMKRTVrmsZVtttVWy+MILL0zmW5nBtRK3T9xZcfk0wV2X5GRl4m+f4G5vbrm4Ee+0005lmyXrcdFk/HAST8Uu5BRgjHYSMJUJLqHmHuo/4N0ee+xRtsmIWd/p9dcJCDKXm+COXCZk37Z7xStqbocddijcBNdv3LBxK2dUgdgFPXZhxx24zG2U6yJ2G+baKhKGIcSlOEtI8BcLruPcR1mCezXHinBPlQnXMskZi4Th+TgeBJdvb/lPijNvbu/sl2SQZUISNmsj9eG2b0KySNsXz4iibOyMVkC2eJLK8Szrl9TNIOs4GJ0hdhtPlyH5nglJ4KqIDUVmz9Iq24zmMrjq15ndvO76RvO50bGLgAiIgAhUI6AY8GqcmkqR+djiP1lBRlxiUlsRMuqaMB55K0LmYj70iMG84IILQgb3djNxzzvvvCHOFqUeRZyPwDIlhbaeeOKJjqFzTIj9rJKB3crbFOUKRYA4VWJMiZ8kFrfseMhUTey6CR0R7cSw2/aDNK3j+uvkeGMFtcqYzQyBZUInCRmli4TRAVB0siSO4dx+++2zigxZRjnvKh+WW6fXkEJ+AfkUvBtw1qqwLJ2rYcstt8wtywriSy3fAlm9446EeEPitFdZZZV4UeY8CvGOO+6YDA9IDoiFFloolCVe3gTlGwW6TChDWeLtEYYfXHzxxcM854Ch8rgfETofyPVARvmpp546LBtu/+pmkD4+OkAWXXTR9OKm38QSm5DtvYq89dZboZh1eFTZZjSVsRhvpgjPgKJY71bZUG/8XOF3nC2d5x2dJPFzr9V9qLwIiIAIiEA+Ab45+EZiBKUq3y/5NQ3OGingLZ4rlE4SLplgrUOBbFXowTdh2LJWxWcnToY+Ou+884K1sNU64vIoACR8Yli2sgR0DG2EddKERE5LLrmk/WxrinJz2WWXBUtpkRJE5T62NyS2sh3RFs5Dq4IVH+skidhQCouGTovrrmKdj8vXOV/X9ddJm8xqSh2MVV0msQW41Y6quG6GfrPkb94VuHLyPLwtKE87UIgZbznrAZ9OlBbvm/nYwwXLd1knUVVFtRWrcTwEmg8FSJoYW8NbYRyXxRIYy7e//e2QXAxmsNtoo43CahLnwYo/7vsslnE9vZrvBoO47SSgK5MyL4as7X0YQ1hMZ6hkKAGzUJuSbAr50JL1LLH9WQczQwTSGcVUIgIiIAIiUD8BDHi8P/nOsuSY9e9leNUoBbyF84GrNJmcTbBcMQZxVcXNtvNxp6EHn98+QVPlrN22PVMsUVhMyPLMOMRkII4VhLhs1Xl6+GP39qztcCWOx2imI4AM3nUJYzcXCRZ6rP+WAZvM13H26qJt0+t8vGqhxTNdvt+/67r+Oj2O2O27ittsrBh1omTECuLCCy/c0mFQ3joCUHhixdMqquJOb2WrjDNvZcumdA5UlXjcblzDTWLGrSgKPubaqgijKiQ//Mxcc80VwmQYOYHOMROfd8LxZ0K4AB4GjNfdT+kGg/h4FlhggfhnbfPWkQJvyVACZqHG6t0Lsf3ZvhgHnuz79s6x5ZqKgAiIgAjUQwDlm29LjGFSwOthOiJqYagtPkJtyB0OiphnhvNpx/rD8EgmrQxbZtsw5WLF8s6wTShBdASUKc/x9u3M4+5O3LYJ8z6bdcsdELZ9q1NiVLFEmFsvllhihMtcmvP2gwV8EKTu66/TY8ZVCAsw150pD0V1+sz6Rasrr8ON2wQmrUhcPs8VvJX66iwLz6oSX7Nxx1/MJp4vqzeuL6sDD4s795hPtheedyhB/MXKiE825vgjhKRK+EpZm9pdHx93PF9WXxmDsu07WY+burG0WPBO6tO29RNAISc8gzwHEhEQAREQgfoJxKE+DO85GkQW8JKzjLs1cZKW7IviuEjjql3mgppVNQqLJR1DgWSM4HYFa7yNm8z4wLiyV3V7bWWfKC8TJ05sinvffPPN3bnnnpsb19pK/WVlcT1G+Y87K7DckTiqk54yrKA+822IHY+VmbL24MHAWNC9kLqvv7razJjXJB7kvmCc7KKx19NWVrwW2pHYQkhit1Ykjg+O43RbqaNbZc2tvkr9L7zwQlIstpynGVcNCYmt6EVeBVh/99577/DH84C4/nvuuSeM+21x9YyVzn7LYuOTA6h5ptsMam5uqI7njwkeVZKhBLCK+EzlyQpzQWfaDWF/PCPM0yf+MOzG/lSnCIiACIx2Ahgzeda2Y9QcVHZSwHPO3IsvvuhQai+66KKmEn58X8eHJnGl7ciECROSzbBgZ1mdkgIlM7ijYoVGEcIaifVp//33L9mqtdUPPPBASNJEwjcTYkHJfNxJ262usun111/v9ttvvyT2l/IocLjAxrHIZfVkracDpZ2eNj/WeVZ1tS7r1vVXVyOJuee6Q8h+HXeOpPcRu52TZ6Bd4cHMOccDAsUxL5Y7XT/ny9zP8VzpxXWbbkPRb4ttLSpj62I369glOu5UiMvYdnnT+HxYQre8sraczio6r/jjvJOEkhAYhNwW/VLAe8nAWHQ6tSR31BNnUO+03pG0PeeVRKUk6kS4X7jOWrlvWuFh+zOln+cFXlbD7bnRyjGprAiIgAgMZwI8X9GrhpuHYjeZ9UUBr/rh3M0Dz6sbN2cyapOAKBbirVG8q2Zejre1eeo1pQUX3irDfdm2eVM/Pl1SJ8nQiMNcYokl8opXXs7wYNSNa2ksxHxjwW8n43lcT9k8ll8Ubxu+yspj5ffjCbsZZpjBFo2oaTevvzpBxfG+KBFFCvhiiy2W7PqUU04JVlR6OosEhQ5PA5QShi0jBhPBSmjXJKEccSb8vPoIkzBBAR9uwjXuxyd3K664YmHTXn/99aDsWqE4IdvYsWNtcXh2kZiw7B7B/ZnzYRLHxWPV5lrE0wDX8nidlbcp8d+mgNtQaLaul9O6GXS77SRztPcBifjSWfa7vf9BqT9tAec3niBmoe7UIk49KN1WH4o3HbOmgA8KJ7VTBERABERgcAj0RQG3WDfcVun1aLdnucoQSFVOBcP5kGSIbOJmKYu3wxK+7777tuVybvWg0MYx2vTglykhtm3RFLdLxjk2y/cWW2zhHnroITf99NMXbZa57p133glu3XwUxpYZCmN5pM3EYHdLUDB+8pOfhHNBfH0sHCcKV1mG9nibQZnvxfVXNwu8B2woPLwRSFRk93V6X0sttVQI26BTBes1SQMPPfTQdLHkNzywqiLEG8fKPYqlKeCERWAZM+U8qSCaYfzqeF/tjFgQVde1WYYXe/zxxwtDSBij3ARrYOySz/Bh48aNC/cvMcUwpgOtSPCYsXwKnMtYyeaZYvcg+znooINyq6JD1SR2A7dlrUw7yRdQN4NW2t1OWZ51JpZh3n5rmk/ALNR1WcStPlO4TSHPb4HWiIAIiIAIiEBnBPqigNNkPhIt+Uxnh/Cfrasm3SEDMvGL9KATv3rHHXc0uTfHbeFjnTFyO7VMvPnmm45MwSa4sfOxXJdgoUI5JpaUDgQs63Git6L94LqO1YohV2zYlbg8ln+UHiyNZRa1eLsq83xsE5tLLPeVV145xNptdaBo0QHSzhA/Vsdwmfbj+uvWsXOdWWjC4YcfnuQ2yNofCtx6660XVhGGQVw/inG6842OqjgvAmMvx9nJyZKPFRwLLc8PG4nAxq+O901djDJgzxm8V5Zbbrm4SJs3t2QAAEAASURBVGiHLShT/uJEbu+9955tljuNn0nMF7lWcd8yrBfW+vSxvP/++yEcJvbKQUFOCx2F3EsI9wzHgxKezgsB+yOOOKIpp8OJJ57YVB3PK1PASUCJRTDNjg1gwvPHhNwAsbAvE44jT+iM5TzxPKJj1Z41KPf8WSdLWX11MqCt8TURn8+844iPMW5rujzr4GqCl4ekGgEUZFOW2YLflhuBkRLKYsNNwWaKyOIdMOifCIiACIhADwn0RQFnHFk+tjqNq3r55ZfDhzi84g+lIn5YfYoy9WLpJa565513dnGMZVGdZeuIQcW6RNwq9cfZ1Mu2rbKeD+wzzzwzfMBTfsYZZ8zdDAWQj28+dO+6665EOUlvgOLNByIc7EMlXaad33RGbLbZZmH86KLkUySYIvkdFv12kt2VtQ2LLQoayh3XYZFylK6L+Ox2pR/XX7ttLdsON3RThunwoWMpz8WbYfNQ1AjjQLgG6fBhSDu24bq47777QkeS7XeRRRYJ5ey3TQnloAOL+wnFlZwA2223XUgAhgWWRId4gZxzzjm2SRiyL2u4uliRjueTDaOZ+BlTZSz4uDzzaUXYqka5xdJPhyDHAhPCSFBC8Qa45ZZbmjxz6BSMrdVWD+eDbOWsR44++mhHDgU6PmBMtnWs7MTsw8eEzpN0fdx3WNztHuU8E/6BBwqJDzl+2NNhwNQkHqaRZTGneN7K2xQrpCWEwx2b/cPs7LPPdoy/ba7ycR3xvNVTJwPqjPM9lF0flI/bFJ9/1sXCcRlbOklmnXXWeLXmWyBgFmyuyyqx4VbelHhTyFvYpYqKgAiIgAiIQGcE/BAsHYn/eGjw1w/xH5GMIxX+fGxypSb4j/5kG9vWf5w2vAt3w1vDG94yUamedgr5j66Gt1BV2pT2WPu8a3albXwMeOOGG24oLOs/+pJ6rX6beqW7sdNOOzW8RbzhLTmF9bS70lvMGuzH9hlPfVx8w8eShvNAuW6Kt9xmtiFuT5V5rsFWpJ/XXyvtrFrWZ3FOOHqluFF03ljn4/qT8kV8fSdYw8co5zbDdyQ1vIJeqS5vzW34IYQy6+J+sXZ4pS+zjC186aWXkrJcw2XiO9uS8t4y11T89NNPT9Zxv5100knJb2tP1tSHhzTVk/Xj+OOPr1QXx+BDb7KqCMveeOONhvc4qFQXbfWK/ZC6fKdHsr33ghiy3hb4UQ6ScunjhqM9l6vWVxcDP+JF0q57773Xmps7jc+rj43PLAdXewYy9WESmeV6sbCf7++6j8/nLGj4Tr6G79AKf17BbnjlOjl/zLOMMpSViIAIiIAIiEAZgW69J/tiAfcfWLUIVgNcVJGyBEa2Q1xYsawRy8w8bp/m3mhlujUlgVlVia0nRa6McX1YvMqETMf+oy9YvplifYMD7qVYnvKsdGX1Vl2PFQ4LH+OWk4iO/WLNXGWVVVycVKpqfe2Wa2XYsaJ9+Bu3aPWQdf28/oY0poYFXD9YKxktAPdnvDtwA84Szj2u09tss43zikoS521l8Q7B0orFFot2kXDt4MFA/DleBeZ6bdtYXVhtGTIvT7jeue6ROeecM69YWI4rtJWdZZZZHOc+bwxv1mGNxyqHd0Xa1T69I55jPJOw4MHSrMHcowx7iGUcN+Uq9wihARwzXjF4HJgLvu2TY1h22WVD3oii8BqOcdKkScGKTl4Ii723ephiWef8+467TE8VwkaMGecsTxjWD2Z4RsQWdbZhHc9D6qpaX10MGGnCXM/LziHHRnJKO944Rt+Om2c517+dE7wMuuHhY/sbTVOzbOfFhtt6nlnMS0RABERABESgXwQm8x89rWkQqZYSa4jEw2uliuhnGwQYyseGQGOooKpDBFXZ1U033RSUDcb9rUsRrbJfK0MMPh/SRR/kVrZbUz6EyfCM+2Er7ue0h+FvGIYLIRY5KzY2rBwl/3AfRxEjrAG54oorXJWkUig2jCFOIjAU5rwkblUwcj69lduR2Zt4YpTH4Sy4buOyj5CDIc4qzzLYEAvN9Zmn5FOuilDPK6+8EjrXUAqrKJJ59VKXt+AG9/huuU0Tw0tnB+eQ8JA6pE4GnbSHXBokyEOIsyf3Rafnt5P2jOT3d3q4MlzOSdporuedcNO2IiACIiACo4NAt96TA20BH8mnHms52aMRS0hU1/H2O5N4XbH1nfBACYmHLWqlLrLFmwLejw6MVtrai7JY8Lwrd1DC2R8xuyRnK7vO6PhA6e5E8bbj43yWWbCt7CBMYVOXZZTnR13PkDrryjsPdDrwV6f0ot1l7SXW3pRvvLAYdaOfyndZewd9vVm8zSLONSXL96CfVbVfBERABEYGASngw/Q84pbNn2T4ESBh1bXXXjv8GtbHFo0ZMyZYclHEERKKlSngfWxu33cdOx752Pi+t0cN6C4BrPr8MaIEwrjpdXWKdLflg1s7Cres3YN7/tRyERABERjJBKSAj+Szq2MTgR4SwI067Urdw90P1K7i4ari+YE6CDW2MgGUQbN+V95IBUVABERABERABEYkgclH5FHpoERABERgGBMgVt2EeGeJCIiACIiACIiACIjA6CAgBXx0nGcdpQiIwDAiQOI5k3jelmkqAiIgAiIgAiIgAiIwMgnIBX1knlcdlQiIwDAmQHy8JVlbcsklh3FL1TQREAEREAEREAEREIE6CUgBr5Om6hIBERCBCgTWXHNNx59EBERABERABERABERgdBGQC/roOt86WhEQAREQAREQAREQAREQAREQgT4RkALeJ/DarQiIgAiIgAiIgAiIgAiIgAiIwOgiIAV8dJ1vHa0IiIAIiIAIiIAIiIAIiIAIiECfCEgB7xN47VYEREAEREAEREAEREAEREAERGB0EZACPrrOt45WBERABERABERABERABERABESgTwSkgPcJvHYrAiIgAiIgAiIgAiIgAiIgAiIwughIAR9d51tHKwIiIAIiIAIiIAIiIAIiIAIi0CcCUsD7BF67FQEREAEREAEREAEREAEREAERGF0EpICPrvOtoxUBERABERABERABERABERABEegTASngfQKv3YqACIiACIiACIiACIiACIiACIwuAlLAR9f51tGKgAiIgAiIgAiIgAiIgAiIgAj0iYAU8D6B125FQAREQAREQAREQAREQAREQARGFwEp4KPrfOtoRUAEREAEREAEREAEREAEREAE+kRgyrr2O3HixLqqUj0iIAIiIAIiIAI9IqD3d49AazciIAIiIAIi4AnIAq7LQAREQAREQAREQAREQAREQAREQAR6QKA2C/iECRN60FztQgREQAREQAREoA4CZvnW+7sOmqpDBERABERgpBGw92TdxyULeN1EVZ8IiIAIiIAIiIAIiIAIiIAIiIAIZBCQAp4BRYtEQAREQAREQAREQAREQAREQAREoG4CUsDrJqr6REAEREAEREAEREAEREAEREAERCCDgBTwDChaJAIiIAIiIAIiIAIiIAIiIAIiIAJ1E5ACXjdR1ScCIiACIiACIiACIiACIiACIiACGQSkgGdA0SIREAEREAEREAEREAEREAEREAERqJuAFPC6iao+ERABERABERABERABERABERABEcggIAU8A4oWiYAIiIAIiIAIiIAIiIAIiIAIiEDdBKSA101U9YmACIiACIiACIiACIiACIiACIhABgEp4BlQtEgEREAEREAEREAEREAEREAEREAE6iYgBbxuoqpPBERABERABERABERABERABERABDIISAHPgKJFIiACIiACIiACIiACIiACIiACIlA3ASngdRNVfSIgAiIgAiIgAiIgAiIgAiIgAiKQQUAKeAYULRIBERABERABERABERABERABERCBuglIAa+bqOoTAREQAREQAREQAREQAREQAREQgQwCUsAzoGiRCIiACIiACIiACIiACIiACIiACNRNYMq6Kxz0+l599VX3xBNPuPnmm899/OMfd1NOOTiIaPtTTz0VTsEss8zixo4dO+inQ+0XgdoIPPbYY+6NN94I9c0xxxxuwQUXrK1uVSQCIiACIiACIiACIiACVQj01QJ+/fXXuwMOOMBNmjTJ/eMf/8ht71tvveXWWmut8HfuuefmlqtjxWWXXeZWXXVVN++887qLL764jip7Usdf/vIXN27cuORvkNreE0Dayagn8MILLyT3x0ILLRQ62kY9FAEQAREQAREQAREQARHoKYG+KuBXX321O/bYY91qq63mXn755dwD/+AHP+huvPHG8Pf444/nlqtjxc0335xUs+GGGybzw3nm3//+t9t6660T6/cuu+zijj766OHcZLVNBHpOYN11123qVFtzzTUTi3jPG6MdioAIiIAIiIAIiIAIjEoCfVPAG42G++lPfxqgL7PMMm6eeebJPQFTTDGF+9CHPhTWzzrrrLnlOl2BC/d1110Xqtl9990div8gyKmnnuquueaa0FSUipNOOslNNtlkHTf9O9/5jptrrrnCH/OS/hHYdNNNk3Nxzz339K8hA77nzTff3B1zzDHhKH7/+9+7HXfcccCPSM0XAREQAREQAREQAREYJAJ9C3B+6KGHHB/AyHbbbRemRf+mm246h5t1O0rx7373O3f66ae7j3zkI456pppqqkwF9a677kqaQAfBeeedl/wum6H8+++/79577z33hz/8we22226OONNuC261X/va18JuOL4LL7ywtrh1eNs5mnrqqbt9KKq/gADXlJ2Ldu6BgqpH3ar99tvP3XfffQ4PHP4uv/xyt8kmm4w6DjpgERABERABERABERCB3hPomwJ+xRVXJEe70UYbJfPdmHn00UfdUUcd1VLVWJE7kZVXXrknCrhZ82jr9773PTfzzDN30uymbWNvg3i+qZB+9IQAnSsmJNiTtE8A75ATTjghKN/UcvDBBzvCTQYp4WL7R68tRUAEREAEREAEREAE+kmgLwr422+/7U455ZRw3Ouvv7577rnn3K9+9atg3cbSmuU+/cc//jGUx038mWeeyWT2z3/+M1igX3/9dbfkkku6tKJCVvMPfOADmR/alj2cij/1qU9llsnc6X8Xsu+//e1vjoRxWI57Ib/+9a+DZZ99fe5zn3O4Kdcp00wzTVLdtNNOm8xrpvcE4nMRz/e+JSNjj4S8HHLIIe6II44Iz55LL73UbbnlliPj4HQUIjCKCLzyyivu4Ycfdn//+99D8tSPfvSjoSNa76xRdBHoUEVABERgwAj0RQE/88wzEyX1q1/9qkMJNwW7jB8W39jqm1f+7LPPdl/+8pfD6nXWWcfhIp4nKMzzzz9/aAMx1DfccENe0WG1/Fvf+lbSHix6WR0XSYE2ZmKLYDzfRlXapEMChE2Y6FwYic6m++67r/vud78bnkWHHnqoGz9+vJt88r6lxejsYLS1CIwyAoyc8te//jW8t998881w9Ny/dOLrPh5lF4MOVwREQAQGjEDPvzaxEh9++OEB0yKLLOJWWWWVviM7/vjjkw4Aa1vfG1XSAOLNifdG4LjUUkuVbKHVg0yg7s6VQWZRV9tJ7LjDDjuE6n7zm9+4Rx55pK6qVY8IiECXCaB8P/vss2E4QbzB/vSnP4X8LtzX6qTsMnxVLwIiIAIi0BGBnivg3//+9xPr94EHHhistrfffnsYhgxLNEnM6Nm2P4sPj2NgyVRu6+Mp7t8kqsKdHKt6FfnlL38Z3FApy1BeuK4Pgtx7770Jxy222KLtJtMhgvJRp9v8iy++GFwCSX5Xh+Dej5sh4QcMudaJcLyPPfaY47y/8847nVSVbAs7rjs6RToRPiBhxz1Qh8CNcA2G7nvjjTfqqDK07aWXXgqWp04qpD0kQuOc9lPioQYHxfOln7y0bxHoNwHe+Twreb8QvsYzhOSqs802WxLGJgt4v8+S9i8CIiACIlBEoKcKODFasYXZPn4XXnhh97GPfSx5eeJuyx9x4VdeeWVoPy6i48aNC/P0dluZeDrDDDMEhZ76eBmXCQrKNttskxTDtX2JJZYIwz0tuOCCbtFFF630R1n2TQx2p0pY0piSmeuvvz4pYRyTBSUzP//5z4N7Psc3/fTTu/nmmy+0n2Mgo3o7Y62TMX6ttdYK9cw999zus5/9rPvEJz4R6ibWtmicd44FCz5/ZKVGyPr9zW9+08GWc0xGeWL7ZpppJrfTTju5a6+9trIyjnK86667urFjx4bjZco1QjbxL37xi8k+87Ctt956oW0rrrhiongSc0iIA8z4Y7g2XB8JdyC/wb/+9a+86pqW48VgQ4yR6A52xC5yTo488sjEM6Npo4If7777brjHll9++cBtoYUWcp/+9KfD/cCyk08+uVDB5/60c/Hggw+GPXHuJkyYEI6RtpFLASsT9bGcj+EqQn2bbbZZqIf7k+EHOaewI/46vqatPq5Vaw9TOk+qCJ10th3nL0+WXXbZMDoC6+3ayyur5SIgAv0nkLZ886yl45w8KFXe+/0/ArVABERABERg1BPwsdEdyWGHHdbgr4p45Y5A7OTPK+S5m/mXamONNdYIZf3HfsO/dBv7779/+L3LLrtkbueVh7Dejy+eud4Wekt5w2cMb/jhz5K2/PCHPwyr2Vfcxlbnjz32WNtNV6fe7Ty085Of/GTl/fjOgYZX6iodH8fhvRWSsl6hydyPV74afginpFweL7hOmjQpsw5veUy2p30//vGPG1XOg/eOCNdFZqX/XegV9Up1bbvttrl1/d///V/SPm/9bfgx0ZPfeccLE29tz20a3LziXVoPHG688cama5Vts8R7fjTsushrF8s5Hu/1kFVF46CDDkradNlllzVuvfXWUn4+aWHDD4eXWR8LuZd9voKk3qK2cf69l0NSF9cs17htQz1VxI/vnWzjO2wKN/GdM0lZn4uisKxWisBIItDK+7vfx+09gxrec6bhQ0UaF1xwQePb3/5247jjjmtcdNFFhc+ffrdb+xcBERABERhcAt16T/YsCRuW7FaG9sKK6BVp/93t3GmnnRYsl5/5zGfCb7PMhR///Ud5rOTIxhtvHCyoZDzPEtyQd99992QVLtxbbbVV+H300UcH655XfEqTueAqjAXd3LdXW201R1K5XohlbR8zZkzl3Xkl0/mPlaQ8FgNi8LEG41bM2Oy23nd2hGzwSeGMGaytWB5wYUdghjUXDng04OZ9xhlnhHphtOqqq7q7777bLbfcck21xdnqvbIZhoWyAiussEIojyUX92wsopRBuKaef/5555VEN+OMM9omyRSr/Je+9KXkN8e79tprh/qw2uLGT/w/8oMf/CBYm7HCpuOtsfjef//9oRxDvfnOiTDPP+r7/Oc/H6zpd9xxh7vkkkvCOsaWJlu579hJytoMru8xN5YzDrVXjIM1GM8P6uK44EZiQK+E2uaZ0yeeeMLF1wLluQ9o2xRTTBEsx5brgGPB+vz0008PGSmA82aCi7j/yLWfYRvOLRnEn3zyyTCUFytpL2zxTMkaL3633XZLsvVTft111w3HhGWea+jmm292/kOaVeHc4zZPqArtJpaTUBWvUIf1XJ/77LNPmM/7h6eNnQfK+A67vKJhOV4WJlj7P/zhD9tPTUVABIYJAbN843bOswa3c56jeAvJ8j1MTpKaIQIiIAIiUI1Ap30SVXoGfKKUxMLkW5XM51nAH3jggaSMj+VOmoiFz7Z/7bXXkuXerTZZjsXQK+jJuqyZn/3sZ0l5r1w1fAbVrGKFy7CUeZf4pB6vwDfyjqewojZW4g1gHL7yla9UqsErdMk2bOuzPzdZGq0Sr8g1vHLWVJbyWRZwrOTWDh+j3/AfRVZNMsWC6Yd6SsphzfQKaLKeGSwaVo9NOY/eJbipnP1IW8i9q7qtSqZ//vOfmyy3BxxwQLIunuGawoJr+z3nnHPi1WHed9Ak660cx8u2afGKX1NZH6eYLtLEg+O85ZZbhpRhAdZ79mP7tGmWBdy8RSjjle5M6zvb+XCFpD6f82DIfs8666xkve2Pqe/sGFLWK/BNjLGYp4V7Ma7Hd8iki4TfPuyhqS7f6ZaU43qBk9Xz6KOPJuuyZrhurCzXcpnQbitf5j1TVpfWi8AgEajy/u738cjy3e8zoP2LgAiIwOgl0K33JMNzdSRlDcMN18cDJx+43vKczGcprD7Gs+lj2yffStqHMmcfyhdffHFQ5GJXU5Q73zuelM+aQbmPP+bzFIKsbVnm48Ybfhi1pjpwg4vdZvO2rWu5t/omHHDZLRNcgONzgAt1kXDOYGmsmaYVcB+jnayHJ+etSGJ369NPP72pKEp/vC/mvVW1qUz6x1133ZVsw/5RuGPxVtNkPddI0fmJOwCoi3McSxyqQNtQ2H1ceVykad5brJN9pzsRcGGPj5XrsUi8pbmpPNumFXBc1K1OznOaRVz/22+/3XRuYR9LHHZgddJ5kydc+1Zur732aioGc+/BkKz3HjBN69M/rrnmmqQsHQ/c7yZx6EReCIqV9Rb2pB6eE2Vy5513JuUtFKVsG60XgZFAoOz9PRyOEbdz7/kU3M4nTpwY3M4JjSHsJd2ZOxzaqzaIgAiIgAiMHALdek9O7j+euypkKMW1GSFZWFF2clxicWU1l262IUmTCe6o3tIXfuJOu/jiiztvsQu/cVXGpRh3tDzB9XbllVduqj/LZTZvexJF4X5LEjDaiJuvVwQd4wmn3Zbz6qhjeZzRevbZZy+tkuGV7Bx4xSa0v2gjXPtw+y+SK664IllNkrXY/TlZEc14pT/5RYKsIpngE3stsMACRUXCdYJrNsK5wOXbxN/2IdkYv71C7dh30fkhKZv3JAibU5exsvrS06uuusrNOeec6cXJb7tGWZBOPhe3kwz/JP0rEoaY83HZRUUcY96bEIqR5Y5v6+FBskETC/Ow3+kpdZN8Lk/iYQRJdhcLbure2yQs4rqzIb/iMvE8ruk8I7wi7y699NLggm7ruedMfAdOblZ3eNv1xbFusMEGtlnuNHY5j++t3A20QgREoOsE8rKdExLEe54kn3lhZl1vnHYgAiIgAiIgAh0Q6LoCjsJKPCcvTe/em5uBmczbxKvGynfWcVlML0oSsacICgrxsnzk5wlKE1mRy+rP257lxB+bkkGGbuJu6TDotZC928RbNG02d0q8nMnOO+9c6aNl9dVXL4wBJ77bhEziZUIWc285DsWIsyb2N0++/vWv561qWs6xmDAerAkZ1O08o+SS6b1MuPZMbrrpJpsdMiXGn+zxRcI1b0LcYix2zbKsLDbZtiMzfZFY1nquf2K7yyS+ZrMyj9v2KP92v9my9JSPYJP0tRifkz322CNkd7eyWVM6SbhPTzjhhPAsiDtNUJLj/Ao8U7KErPImlCdre5nYtUK5+N4q207rRUAEukfAYr55z/IOU7bz7rFWzSIgAiIgAr0l0JMkbCT/+sIXvuBmnnnmIUNHeTfVkJxtzz33TI6cZFSW9CpZ+N8ZhhTCssVHM1PG7mU4pCLBWr7ffvslRY466qghVkUfBx6GkyLxU57YxzmKU5FVkvHIUR4YnqobEnc0kDytTEhqZVJmWbZyTEl6FyuM8TpLAscyzgneCWUS10W7559//iGboPQZ5yErUwvwQDCJlb24w4FEbGUWbepAaTeJ67JlNiWxWZngQZAnMbe4/XnlWY4XiF3z6XLeTTs5Rz4vQRhqLV2m6Dcft3my+eabu7LxdIsU3Ph8x4nO8vZXthyFmmHUEO5pnhnxdYfnA9ZxE4aJqyKMMW9SxaPEymoqAiLQHQLck3jP4RXH85x5noE8p3m3WuLPKnvnfWJDWPK8ip8ZbI+iT70+dMeRwJHhSVsR1V9MS3zER/fXf4bQ1fNn6L0AE4YXJmnxvPPOO7TACF5SrjXVcPC8MGNXcqvSJ6hyWDGxXpv4mM3wAvQJomxR0xTlBldWc2muolDGChUf6GQujxXo3/72t00nnhd9lpiljDpiS5uVtfX8RkGoasm17atOuVhNzCJvv7OmsSLEONNVhezoeRIrbrFSmVc+vRxlMUsBL7Mux/XE1te4k4EsubFUHTvatomVcVtm0yrXm5XNmsasGP+6qpAxnAzyafFxkE2LWj1WzgOWpayOJzLPdyKxl0QdD1aUeFzUGa+bdjMWfOx9AR/7MCc8oSgcJT6uWAGPO7fiMpoXARHoHYGHH3443OO8Z+isZeQSnnWEU9Fp34rwHMAAQKgRozykO3h53hOKQ93Mp72Wyval+osJiY/46P7S8yfvLsDowbOZaR3fiXn7GY7Le6KA5x04SpMp33z4EldMLLcf4zNvk7DcJ8UKCjgKL8NlYeUsEp/x2/lM00Ep5oM97f7McGKxxIp0vDyer1ImLl/nPB0auPSjfDMMVyvSysdLmkvefg4++OC8VbnLaX+WcGxVJT6W2KoRL+d6WmmllapWGcpVVdxaqjSjMBbbqkI8ZJagPJvAlHujFYm5tbJdlbJ5ba6ybV6ZvffeOyjgrOe+jhXw+DlgMf159cTLGd7ORAq4kdBUBPpHgGc4zw+8yXhfE0aEpYTfVd9L/Wu99iwCIiACIiACxQT6qoAzLrTPaup8JugQJz7rrLMWt/a/a7EGEutKTDbjN6N0xDG86UpI1IIVOMvKR1l6XhhfmDhTypKYLUsRZLxw6sG65ofWSu8mWO75OPBDpIUxnYcUqHEByeQYYxpXffYXJ5JK7ya2NFexmNv2sVXZltkUSzBWSITx16eaaipb1dEUK0RViRUnXNdNYis/CdG+8Y1v2Kq+T7HiGjcsO1V6/FDU80IyYis6MfZZ12W/Djp2sceN1Gdo77gphJtYiAoJ3rCUkYyR+HNyTCAo0Vi8qoof1i4UZbvYq6Lq9ionAiJQLwGSeqJw8w6ik5H3DR2MjPddFOKT1Yq0C3S6DN55vCeWXnrpWlzQVX8zAfFv5pH+JT5pIs2/xaeZR/rXoPOJXdDTxzbSf/dVAQcuyls7QrZnyyCNGzuut8QQ5Eme8k15XLrHjx+ft2mynAsdQcGzfScrezxDxmgUcAQFoihZVqzkxfHRRU3moydP6WM7PojMJRrXwFjJL6q3bB0dHLgbVsluG7vWx+7ysQIehx+U7bsX6+FmmcFxl47PTd7+za06az2cUBxR6uOwgKyyvV4WHxuxnHUJ+Rw22WSTUB3PATK1k7zNJB0bbsuzplwf5rbvh8orjXnPqkPLREAE6iWAUkxnNh2WxH+TT4XRHfBOYh1KeF2dvrzX63p/ZVFQ/VlU/rdMfP7HImtOfLKo/G+Z+PyPRdbcoPPJOqaRsmzyQT0QrGmmvKOIkTl5NAneAybx0Fa2LJ6i9JmceuqpwbXPfudN8QgospbHsdrWEZBXly3fddddHbH9ftxlxp+3xUOmVc/liSeemGxrGdZZEFuF8ZDw42Yn5fJmiFcmDoU6X3/99bxiHS+Pk5Gde+65leojaWCRWGcQSvikSZOKioZ1uHYuu+yy7oADDggWptIN2iyw2GKLJVuiKFeJrSTjO94dDJWWdx4YWsxCGLB6c9xnnHFGsq9W3PB/9KMfJduttdZaybxmREAE+kcA5RpFG8823vU8w/GO4jmN51A6jKx/LdWeRUAEREAERKB1AgOrgJOp9MADD3TmekxStRtvvLF1AgO6BRnlbbxpjrsocRiudeb+i7JSpjCTEb4sgVys5Bx++OHho6gI5aOPPhoyVBPfT0w2GWfzhHHF04nU0mUZPsss8FiA11lnnaQInhBxkr143OukUGqGzhwsoVhPLdN2qkgtP0kAaEInR5yUzZbHU8IsyhT1eAQB2JXFSJ511lkhfOPYY491VTOFx22qOs+wfzYsGtddWccK3hmwv/3228O9Hce3x/skbp3cDyYo7XBCsGKTaKmK0AkU55toNVdAlX2ojAiIQOsEGH0Byw1eNHQgEyZGWBiJW/Fa4X1H2AmjQEhEQAREQAREYNAIDJQCTqwzFi8sZDvuuGOIEYsTL2HBuueeewbtHLTd3lhJRgnOEz5ciLU3IYv8cccdl5lNFn7E2KMwxZL+0CEWb999902KoOATj5slxPExrrjJhAkTwpB09jtryljVJOXLEpSmWOFGkeRjLZZ47Gwy0u+1116Zw8uQ7AdlzrwIyIAfb0udcTKxPKUw3nfMKj2kDVadmBsK6k9+8pN482QexRtLdVri+lm32mqrJR0sKKL8fuONN9Kbhd9kEI/H046vCwrE7W31WNPtor64I4TzTkdHvA/KIHR+LLfccv/54f/TRj6684ShDW20gssuuywphpdFVWE7cz+nXVXCHqrWrXIiIAKdEeC9ReiYLOGdcdTWIiACIiACw49A32PAy5AQO0qm9GuuucbdfPPNSfGtttoqzJOQCQXMLGIkX7ruuutaznydVDxAM7iho6hiCT7ttNMc45OjPGfJ2muvHayDpqzAC/fscePGOeKnsSw8+OCDTYxx/8MaiWRZVXFhJrs842yjsKOEowBh+WQIK1yIGX4itijTXrbLEzse6iPOl/NL4i1cjll21113JZZv6qB81pB1fLR9//vfT2LjyZiNcoriTp0oW7gzMpxdbIVmeLl0MsDY3TGLQ/pYGEvWJFbebRkKOBZ89ks2fZL6cR7ghvs81zwdIfH45ZZ4jDrSdfKhilWb80V9xJgzhvuWW24Z6pxjjjnC+eV8s18TYqlXWWUV+xmm8fHFx9FUKPoRl4/nrQi8sdDDHyFJHPcy1yPXKt4W9913X7gWbRu8WsqSyaF8o6QfffTRtpkjDKGqFZs8A3EH1h577JHUoxkREIH+E+C5xp9ZwmkR7ufEhPO+Qiy3S50x4aFi/RMBERABERCBbhLwbpgdyWGHHdbgr6r4hGEE/4Y//xHctJm3uDW8UtTwH9ZJGSsbT71i1vBKedO23gLctI1XNprWxz/eeeedpKxX0uJVhfNeYQjbeUW3sFwvV952223JsXglruEturm7h6+3SCblY6bpeR8r3vBjsidlvRKdWa93JW/4ob6Scul64t/eCt3wCuKQenzysGR7b4lseKW+4d3Kk2VxHfG8VyAbXkkcUl+8wHc4lNZDnT5jd+OOO+6IN03mvZU6qePee+9NlufN+HHik/J+OKzMYl7xbPgQgqRcfFzxPBy8Qt3gmrPlPhYys044VuFGPWeeeWaD6yEtfki5ZD/eSyK9esjv+NzBMEu4JjlX1v6iqe9MafhY8axqhizzOQqa6sy7Rods6BcceeSRybbeCyCriJaJwIgn0Or7ux9AeH7wrPJDkDW8N1WDbwje99y3vjOv4Tsyw7p+tE37FAEREAERGNkEuvWe7LkFPHZTNVdU/zHsbrrpppBkJWt8baxdJF5ab731wvBCaXdj/0HviH1FcCVFcFElTpps4Wmx/bI8bU20sljdscxhyWWILyx15q7azbGTbf9Vp1g9GR6NeGLaTLwzsfFZQlzdN7/5TYerPlbIK6+80sUZtomlxmq60047hePmnGB5RViXJWSmJfEXmdhxmY4trLYddTBWuMUDZ9Vjy/xtHKzBWKexRp9//vlN2dipi5h2xn8mFKFMsKITM0jcu1eMh7jWY4XdcMMNHdbgPBdkhqbyH4BhV1XOPQmEjFucEC5uK5n3YXbttdcGjw3ORXztY83dfvvtHeECWOSx/FudDNuQJSTGw3p+6aWXhmO169XKMizYiiuu6Ljf5pxzTlvcNOV82n5oY5lw/1j5vCG8sGLhpUL8O+cg9oigfq4tPBm4v+PcAmX75v6OhfugiuAhYGPXw4TwBIkIiMDwJCBL+PA8L2qVCIiACIhA+wQmo9+i/c1dEltMfGcVueSSS5Ihv3ApRrnloxv32Fj4qCeWFfdcFLcqig/b47qKEo5i5a2VmUoV+7X4UlyQ4yRW1gZiZVHysgQlNo5tzSrTy2V0DnC8lrWc2OmNNtqoUhOIFcZ1eJZZZgkx9ZU2KihEW15++eWQ8Rrlpmh8cqvmySefdJYxm46UrHh2krZNP/30HQ09Q8cLjMglQF0k96lrKBs7lnantI1zwe1IfH3V671of5wH3DURjjWr46po+26tozODc8B9iPJNuEA7Qv4HG36PnBDeql9aDcn9CJWwzo5f/OIXSQdC6cYqIAIjjIDlgKj6/u7n4fNs5I/RFEjCRscqYTosI+SGZxwdiwxZJhEBERABERCBOgh06z3Zcws4H94m3qUsKGgkmnr88ceDwo1Fl99Y4toRFDgUGGLB8yyappRQf16yKqysxKISa2Yf65Qn83g3M0ezj1YFS+ANN9yQxH9vvPHGIfY6TnyWV2c63jmvXNXltCVtmay6bVG5KtbYou1Zh1I7zzzzhL+ysr1eT9usU6iufRP7zd9wE0us1K7ibcdz0kkn2Wzw2kh+5My8+OKLwWvC7mdyBJj1PmcTLRYBERgmBMos4TxX6GQkHpx5PL4kIiACIiACIjAcCfRcAV9//fWdKVOm/O28886Ov7qkLBPyfPPNF9zd2R8KWZaguGCZNSFb9nB+oY8ZMyYkUEMRR+6///6mzON2HMNxigXDJJ63ZZqKQJoAYQ+WpA6L9pJLLpkuMuQ3ISWEJCC4+ON5IxEBERgsAiji1olHh71ZwkmsSKcenfco4cP5fT1YxNVaERABERCBugn0XAEnTjQra3XdB1ZUH5bxsWPHFhUZsm4QXuZkRedv0CTOC5AXkz9ox6T21kvAJ3sLHgKENDBeOLkKTKpmMEf5NgXcttVUBERgsAjElvC55547eKgxYgOu6fzxPsnLkzFYR6rWioAIiIAIjFQCPVfARypIHVf7BLBcmMTztkxTEfDZ5MPwagxHZ7kOoIIle/z48QIkAiIwygjQKT7NNNO4JZZYIvyNssPX4YqACIiACAwwAQVJDfDJGylNJxmXySuvvGKzmopAIEBiPzKXI7HyzegIjGs/XBLphQbqnwiIgAiIgAiIgAiIgAgUEJAFvACOVvWGAEO9WZbBBRdcsDc71V4GhgD5F7g+/BjAYThAMv4T+8nQZSjhEhEQAREQAREQAREQAREYFAJSwAflTI3gdi688MLJ+O0j+DB1aG0SIFkjQwtKREAEREAEREAEREAERGDQCcgFfdDPoNovAiIgAiIgAiIgAiIgAiIgAiIwEASkgA/EaVIjRUAEREAEREAEREAEREAEREAEBp2AFPBBP4NqvwiIgAiIgAiIgAiIgAiIgAiIwEAQkAI+EKdJjRQBERABERABERABERABERABERh0AlLAB/0Mqv0iIAIiIAIiIAIiIAIiIAIiIAIDQUAK+ECcJjVSBERABERABERABERABERABERg0AlIAR/0M6j2i4AIiIAIiIAIiIAIiIAIiIAIDAQBKeADcZrUSBEQAREQAREQAREQAREQAREQgUEnIAV80M+g2i8CIiACIiACIiACIiACIiACIjAQBKSAD8RpUiNFQAREQAREQAREQAREQAREQAQGnYAU8EE/g2q/CIiACIiACIiACIiACIiACIjAQBCQAj4Qp0mNFAEREAEREAEREAEREAEREAERGHQCUsAH/Qyq/SIgAiIgAiIgAiIgAiIgAiIgAgNBYMq6Wjlx4sS6qlI9IiACIiACIiACPSKg93ePQGs3IiACIiACIuAJyAKuy0AEREAEREAEREAEREAEREAEREAEekCgNgv4hAkTetBc7UIEREAEREAERKAOAmb51vu7DpqqQwREQAREYKQRsPdk3cclC3jdRFWfCIiACIiACIiACIiACIiACIiACGQQkAKeAUWLREAEREAEREAEREAEREAEREAERKBuAlLA6yaq+kRABERABERABERABERABERABEQgg4AU8AwoWiQCIiACIiACIiACIiACIiACIiACdROQAl43UdUnAiIgAiIgAiIgAiIgAiIgAiIgAhkEpIBnQNEiERABERABERABERABERABERABEaibgBTwuomqPhEQAREQAREQAREQAREQAREQARHIICAFPAOKFomACIiACIiACIiACIiACIiACIhA3QSkgNdNVPWJgAiIgAiIgAiIgAiIgAiIgAiIQAYBKeAZULRIBERABERABERABERABERABERABOomIAW8bqKqTwREQAREQAREQAREQAREQAREQAQyCEgBz4CiRSIgAiIgAiIgAiIgAiIgAiIgAiJQNwEp4HUTVX0iIAIiIAIiIAIiIAIiIAIiIAIikEFACngGFC0SAREQAREQAREQAREQAREQAREQgboJSAGvm6jqEwEREAEREAEREAEREAEREAEREIEMAlLAM6BokQiIgAiIgAiIgAiIgAiIgAiIgAjUTWDKuiscxPref/99N9VUUw1i05va/Oqrr7qnnnoqLJtlllnc2LFjm9brhwiIQHcJvPjii+7Xv/512Ml0003nlllmme7uULWLgAiIgAiIgAiIgAgMFIGeWsD/9a9/uXPOOcf95S9/GVaQDjnkEDfXXHO53Xff3b388stJ23bbbTe39dZbuwMPPDBZNlxnYDpu3Ljk7+KLLx6uTVW7RGDEEvjHP/7hNt9883AfLrvssu6HP/zhiD1WHZgIiIAIiIAIiIAIiEDrBHpqAd9zzz3dySef7I466ih32WWXuSWWWGJIi0899VTHR+y0007rpphiCjfZZJMNKdNoNBzK/HvvvefeeecdR70f+MAHhpSruuCee+5xv//9791JJ53kDj744GSz22+/PViUP/nJT7qjjz46WT7cZv7973+HjgKzfu+yyy7Dur3DjZ/aIwJ1EZh//vndrbfe6lC+6RTbZptt3AILLCBLeF2AVY8IiIAIiIAIiIAIDDiBnirgKM3Ib37zG7fkkksGhferX/1qE8KJEye6P/7xj03Lyn5su+22bSvguG3/7Gc/C7vYcMMN3Uc+8pFkd7POOmuY/9jHPpYsG44zdFpcc801oWlrrrlm4JrVcTEc2642FRNYffXV3dNPPx0KXXrppW655ZZLNrjgggsS7ww6oJ588kk35ZQ9vaWTttQ9Q/jEn/70p1AtHio77bRT3bvoWn2LLrqou/76692KK64Y9rHJJpu4xx9/3M0000xd26cqFgERqEbgn//8p3v33XcdU4RnJuEiI+XZWY2CSomACIiACPSTQE+/1lEUV155ZbfpppuGY/7a174WLM9Yl01hnG222YIC/qEPfcj93//9Xy4bLNa/+tWvwvoZZpght1zZiiuvvDIpsuOOOybzzJhVfTjHh7/wwgsOjgidBxdeeKE+JAKNkfHvz3/+c7hHOJr0dYiFlfvABE+IkSLPP/98Eqryhz/8YeAOa4UVVnDf/e53g3cO54hOBDxsJCIgAv0hgGcdHnN07PFMIffLBz/4QUe+lNlnn13vzf6cFu1VBERABEYlgZ4q4BDGGvTss8+6NdZYI1jCjz32WPfaa6+5M888M7ic43qOEHt9yimnhPmsf8RW4t6JTD311FlFSpfhwm6u5biZY22MxXrE04pPXCaef+6559wnPvGJttsT11V1/phjjkmKfu9733Mzzzxz8lszg08g9shIn1vrtBqUo3ziiSfc+eefH5o799xzO3IsjGTh+HiuERpC6M3ee+/t5p133pF8yDo2ERi2BFC+8b7jOXTfffcFK/inPvUpN2bMmGABn3766Ydt29UwERABERCBkUWg5wo4+IiTvOOOO9xKK60UXoiPPPKII64bIe67VWlnG/Zx3nnnJRbEvfbaa8i+J5/8PznqbFrULtx/iftcfvnl3eWXX+568TIn2/Lpp58emvW5z30u8SwoaqfWDRYB65Ci1dNMM01T4zfbbDM3xxxzJMuswyhZMMxm8Fg5/vjjQ6vwbilSwG+66aYkFIWP5EEUzseJJ57oVltttdB8OvtQyCUiIALdJ0DIG1Zus3q/8sorDo+xZ555JoxUgEUc13Os33//+9+73yDtQQREQAREQAT+S6AvCjj7/vjHPx5ir7F0f//730/cvyxOvNtn6G9/+5s79NBDk93QjnaFzOlf+MIXgsvsjTfe6HbdddfE0tdunVW2+9a3vpUUO+GEExI3/mShZgaeQNy5FM9zYFjE11tvvYE5xhlnnDFpK6EmRTJShu9addVV3dprrx1iws866yx30EEHuXnmmafo0LVOBESgBgIo32+99Vbo5P/FL37hfve73wWFHGX7wx/+cPjmsDCzGnanKkRABERABESgMoGeDkOWbhXWu1tuuSW4bds6S4xiv7s1xXJsyd5wDY2Vg1b2ieV76aWXTizpiyyySOLW3ko9rZbl44J4b4R9LrXUUq1WofIi0FMC8T2WdqfvaUN6vLMddtgh2aMlS0wWaEYERKAWAnjRkQeDBGskVyUk7NFHHw0u53SSo3iTWwaL90c/+lFHktV2w9dqabAqEQEREAERGLUEemIBx9q8wQYbBGsd1uG0JS+mbwp4N91p3377bXfYYYclu2XYrnZk0qRJ7otf/GKSLOrzn/+8u+qqq3oSh33vvfcm+91iiy3aaX7Yhg8WEtKgHNXhNs/5wzUe9z46WCyTfNsN9BsSq//666+HNpI0p10h+Q4uiHyEYYXs9BrDW+PNN98MruG0qywm+4033nAkF+NY4MJHIJ4gZdu1c7x8jHajXtw5OQYSi5H8kBh14rmr5EmIz108387x5W3D+fjtb38b+DJ6QZV25dVlyznP5Kmgrnau5zi3xI9+9CO3xx57WNWaioAI1ETAhiflOUvehV/+8pch3wzvOJ73DHtKjhYUdBRzOuCLvkVqapaqEQEREAEREIEhBHpiAT/ggAPczTffHLJ1E/dNDFaemAJu8a7EbeFGVqcQh0oGaZM555zTZjOn6ezSfJAfd9xxIbbT6iGGnLjVXln2GObIhOHTWhH4Y/VnmCQ+QDh+FCIUqq985SvBYkB9xKtiWeePpDV5wgfN4YcfHuLfUVIWWmgh9+lPf9rhZkxMPAmoUKLzhG1tPw8++GAohsViwoQJbq655gpjwqOoojhTH8ttiKq8Om05Y7wTK009KE+f/exnw7jMZL6lM+ihhx6yopnTddZZJ7QNVn/961/DH3G9Cy64YFDgcWWEG3kCzjnnnCF18JFHlnrKwIPYZ4aK43j5GCQfwne+850wrv2QjUsWcE6M2/jx45tKc42jgM8333yOIb2sXNaUD1PKkRMhSzh3ZPTGcsR1QtIijoG8A4xxDVeuJ5TfWBjej+NmWC72sdFGGyWr7dpiOSwph4u2CVZja+ttt91mizOnl1xySejg4xxzXjnHdApg3eK8ofTacyWrAu4l29fZZ58ditBpiJcM7OioQZnn/NHW3XffPQwrllVX1jLcXDfffPOw6vbbb6987WbVpWUiIALNBLi3eTbzrYBHGso1+SawgvPu5p3Mc4rnFt5iKOM8b7ivu9FJ2dw6/RIBERABERCBoQR6YgHH4oOic/fdd4c/FLRrr73WrbvuukNaZB/KKHJXXHGF23777cNHNK6bdfRW8zF/5JFHDtlv1QVY/hh3/NZbb002ISP7VlttlfzuxcyPf/zjsBuyt/NRUUWwEKD45Fn86Uw47bTTwt8ZZ5wRPmjuv//+ULV1NKT3wxjVG2+8cbA4pNfx28452a8ZxzorCzQKnu2HLLV4KKy//vpNnSRWt9WH0kWnDkpslnAdkWH/4IMPzlod6kbB4g8FmGs062MMBdra9vOf/9x96UtfSsIN0hVzXcfCMTPOfR47ynK8KK9cl1dffXVL1zgdQda29L1h+6T+qoJlPi0PPPBA6MAoqod9wZB7FKXbEsMxhBrrsEZlibU9ax33ma0n3CJL8NzgWi5y66Y9/JHILe964Vlj+yKcBC8JYusfe+yxIbvlw54/hhQjfGbcuHFDymQtwAOIaxa58847Q4dBVjktEwERaI0AruUo33QsE+uNtwqdtXSakUuCjjk6z1C6SbomEQEREAEREIF+E+iJAo51DcsPVuNvfOMb4Zj5wEVB2nfffZsUH16eCBZwlDs+4LFQffOb32xKmhYKtfiPl7RZolrcNFjQsI7tt99+iUKFVZaOhMUXX7zV6joub0oNvfpVhazTKNgmWDBxj8VCiaL58MMPJ1bInXfe2aHcm2S53jKcS7x/yqOM44qPQogCgyXWlFg+hjinWClj4UPJBKvut7/9bfsZPqDIIo3VAusGyeYQlCDaj7t7VhwfFtQf/OAHST14CTD03WKLLRZcqK+77jp32WWXhfV4L9AJsP/++yflbSYeBsyyWbOODzwSbPFxx3FiuceKavKTn/wkdNTYb6yyXPtYUKkTJiiOdj9Ye9KWbNs+axqfEyzxsfChidLJNUpoQRYjPDZMUWfbhRdeOK4idDSgYFoZjpnEfxwLHR90lNApgUcCCjp/EydOdHTeIDPNNFNgjqs9VmA8WS666KKwjrZxPugogT33ZpztPD6e+DjDxv4f5WFpbWM555G20QFg1zPXO2XsekEZ51qKJd4XnhV4WdABgHBNr7XWWuEef+mll4I3B3Ujq6yySrCEc02VCRY4E+qRiIAItEfAYr3xUuF+xdLN/UroCb/xRuKexrsIDxbeL7yPqoxm0l6LtJUIiIAIiIAItEjAv8w6Eh9L3eCvqtxwww2MN5b8eUtusql3F0uW+yF7Gt7C1/Buq8kytjXx1sVkubeQ2eLcqf8Ib3gFMNnGK2TJvI9rzdzOW+hDGa8wNfyHfVKe9m+33XYNH2uWuV23F3p3u6Qt3mW80u68YptsQ/u9ktuAd1r8GO0N7ybdVJbyXtlOF214BSop55Xuhv8gGlLGfxA1YtY+2/yQMt71OKknvjauvPLKIWW9At/wimBS3ivRQ8r4+PhkPfXF11hcmOXx/rKOMW67lfXW3iHsuFZNmPdeCUnd3sLdyLtG4zZ4t26rIpluuummST1ecUuWM+NjsZN1m2yySdO6sh/exb/BdW3H5MMAhmziXeeT9SussEKDc5klL774YtM58Up1VrGGj8lM6vOW68wytvDLX/5yUtZ3cNjiZMp1ZG3n3qTuLPGJmJquZ54BaeGasrriqe+QCc+guLx3s296jlS9/zh3Vrf3yoir1LwI9I1Aq+/vvjU02jHPF97Z3PPe+6zhRzNpcB/us88+Dd/51/jpT3/a8G7oDe45yvE8jt91vqOw4cOFGoccckj4Y55lEhEQAREQARFIE+jWe7InMeD+wzMRYkdxI8aahgUTK5gJCZ5MWG9xtVjxEGJ56eFuVbCwkSwNax1C0jJ+VxUsXhYrTFsYaoyh09KW3Kr1dVrOvASox9x9i+okDi5O/IQVGbfnLJdrrAZ4K8SWX+pOJyzDwus/dMJusToSZ5vl3kf8HZZos6bjro8lO5Z03axjnPisc4Sbt/9wSjYnGV0s/sYJllBbxv4YBipLWI4Lugmx6GnBPTkWrOZ77rnnEHaxdQWrPNZhBI54emQdI+tpg7Euyo1A2bTEdabbmS4b/8bqTMiEWXIJBTFLvJWDo90vLCN0IS+/AV4AuFibYJ3uVOLjieepFys25xXhOYErONbwLMH7hvWUQzgmto8l5mjLuUeOOeaYIVYzrPq425twr1QRO8eUrYNPlX2qjAiMJAIk9uT97zse3SOPPBL+sHrzrMXDB0s33lxYvfGm4d2I5w3P5qx33Uhio2MRAREQAREYLAI9V8DBs9xyy4UP4YsvvrhJMTGlhTL2wUp2boudxJX0wAMPZHVLgsJE/CfCi5mkYCgYrQoKGkoSY373U8jyakJirDJ5/PHHE2UKrriXFwkfLSTdKhJLVkWZU045pXAYN5QflBkTU9ztd3pK3STPyhNcf03MVdh+x8dKZ09ZbP5OO+2UuD6jXPORlyfEpXtLc97qZDnuxow5S4wy8b5ZCl5S2M+Y8hh3rMTr654/6qijkhwGdCid55OvxR0I7I8PVuIpuefofErHt6fbRMeNSXwf27I6p3GnCZ0bKMX1MvKYAAA4TUlEQVRFwvVHOZNYgbZl8ZRrBnf2PCFO3ITzXEW4BqwTICvWvkodKiMCo5kAida8h1Z4pvLtQAgNnYkk/OTZTEciz1K+GdKddqOZm45dBERABERg+BHoiwIOBhKHYTmLhVguE1PA+Y2lnGRsCJa4u+66K8xX/WfDAPEBjOU2z5KXVx/WW3rasbyinPZb4iGcqig7xL+aEAde5RjwNigSFF2E80Rsd5lwDk3iDO62zKZcFyQ6K5I48Vr6+ONjrRLvj6Jp1wf7LMr2TvK9VoTOEVOu4+3wSCBjOLHAjFVLEqFeCckDidk2IdFhkScH11pejgM+iMlWT+x3L5VKrF8m9lyw33nTuBweOEUSK+tZ5bhmLPEhHRRVhA4/K2uKeJXtVEYERisB7zoeno08WxhSjPue3Cc+5MUR/817jHcB9yJKOJ3rJFubdtppW0pmOVr56rhFQAREQAT6R6AnSdiqHh5KrkmsgLPsiCOOcOeee25YjQWXoc2qCgm4SA6FopWVhbusHiyaDGs0XCRmgxJXJrFSGie6KtoOiyhDZll26LgsWamtTtyYcflrRUjelicozWlrbLosH1h5Yu1iPRnI44RuedvE2a5xH/fxzplF44RzmQVyFtJZgQcGidpwgUZh7Yfg+hwnecPNOrbmFrUJaz6J4rCGM7RbzKxou7rXYfGyBIRcyzZcYdl+KEd5rg+uWfuAT2/ncxlUCusgsV0rEofOxEkHW6lDZUVgNBHgPUPiRqzedLrj7UQyNRKs8S6nA593IR2Icaf0aGKkYxUBERABERhMAn1RwLEGfeYznwmxtLG1E+XHhMzJsRDPhVso7qMHHXRQGN8zXl827xO1lBUZmPWxy23aBTvrIOLY4rIxz+Pt6XjIUsAZpimWVpUxFCCsG+mhs6izzNU53m/WfKyAY3FstW2xF0a6/iqeA/E2uHATMhEPWRev7+V8Ou4bl01CM8oEpZ1jiDPKl23TzfVxJ106a3vZfilv1weu41neCVUympftJ2s9HRgmVcJGrKymIjAaCTCEIaFW3K/8cb8SHsR3wTx+FAO+H1DA6VjLeo9UYYbnEQo+OWJ4tqffa1XqUBkREAEREIH2CWBQQ6fhWd6OgbT9Pfd/y74o4CgmKEa4hfJCJVYXwc0MIS41y00cqzfDS+FyZkmYwgaj7B8usDBC+SYhTSvCtlUlLyYZ5dmEdviM8Paz0rQsJrpSJTmFcO82wWU8HeZg6/KmVdzp87aNl2PpXnbZZeNFYQg88h8QL43lhlhFPvyIXbQkf00b1PjDjyqQdARwzvAmKbsW6CjBImxKK81hWDJi8LkHuXe5T7EGY00vi62u43Diay8+11Xqjsu3+9FeZT9ZZWJPFSngWYS0TAT+R4D3GuE5fuSTkGQNF3M6zFC+8SDB6s0HW5m31P9qHDqH8u2zpTuUfXJ1FHlWDd1aS0RABERABDolwPcQXrRMpYB3SrPC9hdeeGFSijF3TSw5F0pKlqC0xO7XWWVw9yW+tiiJV9Z2dSzDyuiHQwmuz3wwdFNWXnnl0AmBhRpFOR7LOL3fOEEWFsSYebps/JuPkyyJlVrcegkPGC5i2dZpjx/KKtedvJvtxYoex5WT6RyFN+/anWGGGbrZHHfbbbe52APk8ssvL4z7tsZgJTflG65sR8b7LMnqMMsq1+my+NpLZ9Mvqzv2BOFDvpdCwiiTqm7/Vl5TERiNBHBBJ88EnkxYqekwxNWc52Unlu/RyFLHLAIiIAIiMLwI9NwCzsuUrMsICpIlJML9y9ypl1xyybC+nX8ojX6M4JAYjOGGumltTbePZDF+TOvwxzBlrVqG0/UV/cZqal4AfizpwsRlca9SVaWFOGUsoFmC1RZlkvVF8dxZ23Z7WaxYFcVzd7MdWFMs4ZYfx9uRsbfIUkNSoW4Jrs9xMjpi4qtY+UmuZsOQYTHnviqKs+zV0Frxtcc1mhfLneb57rvvJp0JdI718rmA5d3uVTqsCO2QiIAI5BPgnYXCzTv16aefDtZwOta5j1HG6RBk6LFOBA8kLC+4P5JoMh321knd2lYEREAERKCcQOyCXl56ZJXouQJ+/vnnJ8rJjjvumNBkHGkTrLvtCi9oBOWhlx/Z7DNWWLvtzrbqqquyyyBYJuNYeltu0ziLNUOG7bfffpku/laeaXpc6Hgd80sssUQYD51jnjRpkovbky7Lb+L3VlpppfBHW7Pib7O2a3VZHBfMcGZVOkG4JolxZkgyrL6dnrt4nGnGnC9Svul46lZSNty1t9lmm+S6pNOmaHitmHU8vjpDrxUp33h+MNZ2r4SM+ldffXXY3Wmnneb22Wef0l2fccYZSZlue6ckO/rvDCE39mzIGts+XV6/RWC0E0AppuMPjxuex3QcE7NtidjeeeedkCzRErDxri96zmbxpF7+6LTFKyXuqM4qr2UiIAIiIAIiUBeByeuqqEo9uJTZeNBk2DZXTHq0GZsYoWcb5a5dsSGdeHn3WnDvNoktsbaszikuv2ussUao8sYbbwxjTufVT2Ip3KARLLNlLuNku7ax1/PqjBN4MTwb57BI8AygU4QhnvB86JZwTXFtIQw3hXdAkeDiuO+++4b4aCzFZUNUFdVl67DUmBRdhwyhFg+PZdvUNSXzP9nXEdqBV0ZZ3Lftm7hIk3jYN1tmU6y7nH9zVbflZVOeBe1K3InAMZYNgUYG8tgFf9ddd213121tx/jyJnSCSERABMoJ4B1HUk7yUGy88cYhrIzOvgceeMBde+21oQMYLyfeaSyXiIAIiIAIiMCgEOipAs4Y3uZmvv/++yeMcNE1CxEWu6pKQlJBNGP19GOon9gdG1fTbsvXv/71ZBeHH354Mp81Q+Z4E5Jl4aaP8hkLVmos3+utt168OHN+tdVWS+KBUaz5TdbaLMFayZBgJihNscQfT3GSrbhMPB8rb/G8lYmVLRSeOOeAlWHKhxvr7ZrBskqCsVji+qu0jW3jmPtzzjknri6ZhxmeCXGGdHNbTwr5maL9x+viebbHKyLuaLnyyivdrLPOGlddOB9bg1DczbMk3ojEYl/4wheSTjVbF59PW8Y0HrrLEi7aes6BdZ6xLD6eeJ51DBNn48rDjPmHH36YVUOEZI8kwzO2dHikc0zE7Y3nh1QWLYivhXg+KhJmSSZlyeloZ3rf6fL6LQIi8B8CxHkzrjfPIlzF8VyhMxDFnGcFzx9yvjA+OEOVkXsjfoaIowiIgAiIgAgMVwI9c0FHOWM4I4QXKWNzI1ivsKCZ4AbciRAvhtTp4pxWAPLah+UYwdqIa1y3BbdvPuqx2uKKu8suuwS2Wfvlw59EYGZxveCCCxx/KDM2PnLsOs1HDttYYry0ex+dJFi1sU6g3LAtQ8NsueWWbqmllgrugQwdg2v39ddfnzQJ9/e0khtbz6t8QMXl43nbyVprrRWs7Kb8brXVVsFlmbbSRvaBWzDeGKaYcbwWp2v1MI3bk7WvuKzNY0k/7LDDwk/OC3HYuMITv8xY4Jwvu1Zsm7wpnSIm6f3Hv+N2ElNO7HksdNDEWcBtHcuoB2s8H7GMsc31y3XBlA4zlFjixvEUYBn3GC7qhI0YP6uPadyWeHkcYwkDQk04V7jgn3766Q5LMe7uSKzwx8dp9dGpQkZ2tsX6jqsqjMkfgRcNii+Z5e0aYDvOsXnaWD1M4/pxba0icecV52i66abL3IyRG0zKOsmsnKYiIAL/I8CIBdxfKN+EwjACA884PM54jmMR533Pcr4tOg0h+t+eNScCIiACIiAC3SHQEwWcj3zcju1jnY9gFDo+drFAmlWcoZLasVzzoc1HNy9iLH1IWZxn/NGdp2DbixwrJS7Z1MkHAPFmjGWOtQzFhQRUKCNYNZENNtggTHvx78gjjwyKDPvCNZd47DwPAmKvySBLpnaz+qI4x4o39eDajtXOLHcsQ3lMC0oPihiKEPVxHnExzxM8ILLcz+MxkvOGPovrjC3tWcm/uLbYF8dqx8B1YddGXBfzHC8KYFbYQDwuOJ1FsXU7XY/95mMQqz/eHFzzzFvMspWxKXHqdITcfvvtYRHu63FG8fj40vuPOcQMuSbTEneCpNfFv7mukammmip0vtBRhoKLEo7XRJbg3UDMJtciYtdWuiz3DXkf6LhBOGY7bn5zD5kCHl8HuJCnZe6553Z33HFHOHd0GiAkd+QvSzgOznFWJvr0Oc7aPr0sPi+csywFnPvK3M/p0OA+kYiACLRGgOc5fyRN4w9PHqY8T3g28Mfzj994o9BJiOWcDjes6CyXiIAIiIAIiMBwItCTNxNJrq655ppw3MTnYvVCeR0/fnyitGKF3X333SuziZUUiyWPN7aY53hZPM8YoCZ0BPBCT0usbNHWqhInl6u6TbvlPu+tuiT6uuiii4I7M1Zd8zTIqnOjjTYKicawbF9xxRXBioDCNt988wULAkOUWUK12E04LwnXoosuGiyil156aVBwUNRioWOEIeFQzuacc854VTIPe4vbRpErEyyOVj4vPpkPNsamJnYQy39sCbX68R7YeeedHRbyvE4L2mxjRucxsPriKZ0wuEVzLuiksE4mFED2i0UZiy2/sYpzDZLVN+3OXLR/7iHjMGbMmGT3KM98hNpYucmKjBn2h8Ua5R7F2TqdKIpFibYRlkDHjim6fNjSfnI14PFAjgEYW1tYnydkYaejI/Y+oCydOSipJgyrZ/XlDdPGMXK9kQOBjpbYnZ96jDXeAHEmeNuHTflAt33Fw5zZ+vQU7sSmIlwbWdcOSj33pcnJJ59ss5qKgAh0QIDOLp6LPI95lvBsJRYcizijNXDf8x7jHuU5IgW8A9jaVAREQAREoCsEJvMWr/+YvNqs3uJ5J0yYkFsDFiIUIT6QsVqhkPGxT2wmLqR8sKOsoARWFZRGLJdmdY63QxkoygpO2cMOO8xZ27HwZQ0NRLu33Xbbyu7CKBAHH3xw0xjQcbu6NU87sc6bkodijaLdiaDkYj1A+KCJrYRF9TJ8lZWFaStKa1G9na5juCpiBrEa4wqN4o6S3ivBZRmmvQhNaPeYeBRkKZNWH54i8Jt99tkLy1n5oimKP9ct3jEwqeMjGcWYaw/WfHj3izXXGuPAW0K/k046qSkHQhEXrROBXhKwd2DR+7uX7WllXzw7eI7gjYLibcOV8VxH+SZ2nE463l907OLFxToU9dtuuy1M2R9KPOEwcd6LVtqhsiIgAiIgAiOXQLfekz2xgGOtvuGGG8J4yCjfCC/Fe+65J8QZE3vbivLN9ljFsCxiucOajXKA9Y6ecSyAZRJbwON4zng72k22VT7seWnjTsx+ePFj+UJpYF986HM8dSgR8f6rzhtfc7unswMLN0pALFhZiZ2Lh+qK18fzdGKYfN5b2avKHHPMEeK/q5bvVTk+vugQyOpo6UUbhktHRNGxFinfbMe1HsdxF9VVto77BzfROoX7j/u/n4I3AUONmfKNl0OcgLCfbdO+RWAkEeB5Zc8RvHEIS6EDmHc13lvPPPNMeBfxzMfDBmXcOpVHEgcdiwiIgAiIwOAR6IkCDhZefHyMxoIl7bnnnuvImsZHfDsf8rvttluSkTjPjdnayod97I5uy4fTFBdkhpyiowO5//77mxRwfuOGS2wtnggkq8oTsrmTLM0knrdlmoqACAwlgJs+rvv8kfUd932JCIhA/QRQwPmjc5U/OsL5pqCzk2EU8XjCy4aEjCjqxIrTUW4d9vW3SDWKgAiIgAiIQDUCPVPA85pTZnXL267T5SjUw12pbvUYid22+O30tmRIx90fId6VhG24y8duungCMCTcPvvskyTMw5W9k3HZ0+3QbxEYyQSwtPEnEQER6C0BPHTIJ4L7OZ3yKOAo34zGQQ4LFHOGfiSGHG8wiQiIgAiIgAj0i0DfFfB+Hfho2y/WccZsxhKOWJZz3PJIgIcrfzqBGjHtlkV8tPHS8YqACIiACAwOAazc/BGKZp5xeN4RMoZFnA5m3NMpQ9Z0wsmKEkYOzpGrpSIgAiIgAoNGQAr4oJ2xNtuLpZthkU488US3//77J7WQuM2StyUL/cwpp5wSxhXvZaKyeP+aFwEREAEREIF2CaBcYw3H7Zy8J+Q/efbZZ0NsOJZxLOZV8qG0u39tJwIiIAIiIAJ5BKSA55EZgcuxBhDPTfw74y9jDScbPcnl5vGZYBm/2v7yhn4agVh0SCIgAiIgAiOMAO87/nBLJ3kkmdDfe++9EAOORRxLOB3TLGcISIkIiIAIiIAI9IqAFPBekR5G+yE5FOOkl42VPoyarKaIgAiIgAiIQMsEULSJ+ybZKnHghFyR/BVlHOv4XHPNFZK4tVyxNhABERABERCBNglIAW8TnDYTAREQAREQAREY3gQIo+IPS7j94X5OTDgKOcv4LREBERABERCBXhGQAt4r0tqPCIiACIiACIhAXwngdr700kv3tQ3auQiIgAiIwOgmMPnoPnwdvQiIgAiIgAiIgAiIgAiIgAiIgAj0hoAU8N5w1l5EQAREQAREQAREQAREQAREQARGOQEp4KP8AtDhi4AIiIAIiIAIiIAIiIAIiIAI9IaAFPDecNZeREAEREAEREAEREAEREAEREAERjkBKeCj/ALQ4YuACIiACIiACIiACIiACIiACPSGgBTw3nDWXkRABERABERABERABERABERABEY5ASngo/wC0OGLgAiIgAiIgAiIgAiIgAiIgAj0hoAU8N5w1l5EQAREQAREQAREQAREQAREQARGOQEp4KP8AtDhi4AIiIAIiIAIiIAIiIAIiIAI9IaAFPDecNZeREAEREAEREAEREAEREAEREAERjkBKeCj/ALQ4YuACIiACIiACIiACIiACIiACPSGgBTw3nDWXkRABERABERABERABERABERABEY5gSnrOv6JEyfWVZXqEQEREAEREAER6BEBvb97BFq7EQEREAEREAFPQBZwXQYiIAIiIAIiIAIiIAIiIAIiIAIi0AMCtVnAJ0yY0IPmahciIAIiIAIiIAJ1EDDLt97fddBUHSIgAiIgAiONgL0n6z4uWcDrJqr6REAEREAEREAEREAEREAEREAERCCDgBTwDChaJAIiIAIiIAIiIAIiIAIiIAIiIAJ1E5ACXjdR1ScCIiACIiACIiACIiACIiACIiACGQSkgGdA0SIREAEREAEREAEREAEREAEREAERqJuAFPC6iao+ERABERABERABERABERABERABEcggIAU8A4oWiYAIiIAIiIAIiIAIiIAIiIAIiEDdBKSA101U9YmACIiACIiACIiACIiACIiACIhABgEp4BlQtEgEREAEREAEREAEREAEREAEREAE6iYgBbxuoqpPBERABERABERABERABERABERABDIISAHPgKJFIiACIiACIiACIiACIiACIiACIlA3ASngdRNVfSIgAiIgAiIgAiIgAiIgAiIgAiKQQUAKeAYULRIBERABERABERABERABERABERCBuglIAa+bqOoTAREQAREQAREQAREQAREQAREQgQwCUsAzoGiRCIiACIiACIiACIiACIiACIiACNRNQAp43URVnwiIgAiIgAiIgAiIgAiIgAiIgAhkEJACngFFi0RABERABERABERABERABERABESgbgJT1l1hXfX985//dO+++26obvrpp3eTT66+gjK2r776qnvqqadCsVlmmcWNHTu2bBOtF4GuE3jsscfcG2+8EfYzxxxzuAUXXLDr+9QOREAEREAEREAEREAERGA4Ehi2Wu1ee+3lZphhhvD3/PPP95Tdv//977b212g02tqujo3+8pe/uHHjxiV/F198cR3Vqg4R6JjACy+8kFyXCy20kHviiSc6rlMViIAIiIAIiIAIiIAIiMAgEhi2FnCUb5MPf/jDNtvW9LXXXnOvvPKK+8hHPuKmmWaaIXWgOP/9738PVrpFF13UzTTTTEmZ6aabLpkvmsFajxJ82WWXuU022aSoaO3r6DDYeuutE+v3Lrvs4o4++uja96MKRaAdAuuuu66jQ2j8+PFh8zXXXNM98sgjbtZZZ22nOm0jAiIgAm0TMO86psiUU07peM8zlYiACIiACIhALwgM2zcOyrJJrIzbslamd9xxR2Wl+KWXXgpVo0wjNg0/Kvzrh6v8qaee6q655prQOpSbk046yU022WQVWjuYRVZffXX39NNPh8ZfeumlbrnllksO5IILLnAHHnhg+P2BD3zAPfnkkyPmw4qQgj/96U/h2A455BC30047Jcc93Gc233xzhyX8gAMOcL///e/djjvu6K666qrh3my1TwREYIQQ+Mc//uHeeeed8Az9wx/+4N5//333wQ9+0BGuNfvss4+Y98QIOV06DBEQAREY0QR6poCfd955bvfdd3czzjijm3rqqUtfdlisTarGjP7tb39zb731ljvooIPCh75t34pSHLuRoyysttpqVk3hdJVVVgnrsyzshRt2uBKl5mtf+1qohU6LCy+8sJRth7vs++Z//vOfgxJHQ6aaaqqm9tBhgoJn0m44gW0/nKaEYliHEB+Qgyb77befu++++9zVV18d/i6//PLKHWODdqxqrwiIwPAigPL9m9/8JoTA8BzCa+1Tn/qUGzNmTLCAk2tGIgIiIAIiIAK9INAzBZzeZpQHUyBaObhf/epXrRQPPdvxBuuss457/PHHQ083yv/999/v1lprrVCEBFEf/ehHwzZYF1FicUejnZ/+9KdD7GpcV9n8FFNMUVak1vXHHHNMUt/3vvc9N/PMMye/R+pM7B2RPt5Bs/xfe+217q677gqnauWVV3Z4MIxU4dyccMIJQfnmGA8++GC34YYbjvgOo5F6PnVcIjCcCfzrX/8K73WzetOpT4f1M88843796187LOK867F+E4ImEQEREAEREIFeEeiZAv6hD30oOSZcwsvkxRdfdK+//nqwli+22GJlxcP6LbfcMlg/432xAqU7rmO22WZL6sP9zGLMydA8SMJHxOmnnx6a/LnPfc5tuummg9T8tts67bTTJtumPQ4222wzF5/H4R7Xd8sttzg6ThDaWqSA33TTTe6Pf/xjKIvlZhBlnnnmcbjPH3HEEY6ONUIIuG8lIiACIlAnATr98YjD6v2LX/zC/e53vwsKOco273yet4QpSURABERABESg1wR6poDHluEVV1yx9DgnTJjgDj/88FCOIYxQlMvEXqbxvsq2KVp/yimnBGt5UZl+rvvWt76V7B7L4qBZf5PGtzgTn994nmqwiK+33not1ti/4rEFP57PatEyyyyTtXjglu27777uu9/9bvAyOfTQQ0NytlbCRAbugNVgERCBrhMgfIy/9957z7399tuO5Ksvv/xysHozRfEmwSphcISrUZbOeYkIiIAIiIAI9JpAzxRw3MFakY997GNJ8TgrebKwYKbVfeVVdffddzv+hqPQu0+8N7LIIou4pZZaajg2U20qIcDHoEmr17ltN2hTPFR22GEH953vfCdYp8iI/tnPfnbQDkPtFQERGEYEUKh599Nh/9RTT7lf/vKX7tlnn3XkAcHzZokllnCf+MQnQuz3o48+GryJ0h24w+hw1BQREAEREIERTKBnCjhxWCaHHXZYGIYIV3BciLOsX7feeqsVd3vssUcyH8/wYqW3m9jt+AP+r3/9a1ys7fk11ljDLbvsspW255h6Kffee28ST7/FFlt0tGs+Wt58881wLsgKW8WSTogAHzqcw7nmmqut/XP+iMsjuRjWCWK76XixkIC2Ki3YiA+0KsdWUEXmKq5tjoHkb2Ts5zjmnnvuIQnisjaOwyVg3w3h3P72t78Nw37BN524rp19cs1gYaKudoYTI/YbBRy54YYbmu7fdtqjbURABEYnAYYT4/2BuznPJEYy4Xn86quvBuUbz6IFFljAkcx1zjnnDO8t1tuIEqOTmo5aBERABESgnwR6poATg73rrrs6epzplbZhs6oc/Mknn1xajBcwiigv3apZ08sq3XbbbZOxi8vK9loBv/7665MmocyUCYnoiB8mfhqFBznnnHMcQ5ilk9ydffbZ7stf/vKQKslkzzjnJA2Lk+l98pOfDOw5v3H89ZAK/ruAhHj777+/u/HGGzOLrLDCCo6M2bS5VSG7rWWFn2+++cL401bH8ccfH/ZLe1F20/HjVo4pCibZ1olX3m677eJVYZ6On9NOOy2Mt25x2XEhs/KyfexaftRRR7kTTzwxJP5j/3G2/5133jkopdRNJxKxi1hyFl544VA1VmOSBiLHHnusI2lbnlxyySWOvwcffLApKzzl4bv33nsHvnkx8lxfEydODNUz3Bn7xm3z/PPPD8dt7aAA8eh0VjG0GBmFqwgdW3RUwI6s6CRkk4iACIhAqwR49/McJbkasd4o4Tx/6WwkbIcOYjqK6Rwl6ZpEBERABERABPpNoGcK+NJLL+34Qxh+CAshcd0ohFlWSRK1UQ7JU8CxaJLJFEWJuvbcc89QfjT8+/GPfxwOE2USF/QyQdEh+zvy85//3H3pS18aophZHQsttJDNhikWVJRDOx9NK/0PFMUjjzwyKJYoUzYkW7ocSu3Xv/71EP+bXhf//tnPfub4Q2GmfCvCPuw40+6F1mlAe6sKiQDT8sADDziSvRXVw76w8NLRxLFYxwRWF85FltLONtb29D75jYXd1hOCkCUMT7bLLrsUdnAZXxTnm2++ObhlpuvCsm374r4lezCx9bHibdvQgcMf48+TVG7cuHG2KneK4r/RRhsFZf6hhx4KH83d8nzIbYRWiIAIDBwB3vt4T9EhyPOUTneejXj58BuPOp4l888/vxs7dmxQxHkXZHnaDdzBq8EiIAIiIAIjgkDPFPCY1iabbFI6/i9uZSh8WMl22223ePO25lEeUE7oGUdhN2E4MpR3Xtxbb711k8JH1umszgHbtp9TLKNIVYsjHE3isc3hseqqqwYrAcoVFtM4npyxUpdccslE2aQ82dapAwsDcXZnnHGGQ4lCgaQu4uaXW245210yxUuA5Fsm1IPVdN5553WMwYpbO9b3s846KxQhWdcXv/hFRydDVYndodMKHdYPlM6Pf/zjYX9ZCXg456aos0+zPtv++dBDwbQy8CAZHiEQxBeS/IcODpIIoqDzhyUZRgixiOuuu264rmnPE0884W6//fawDqZ4b3Dt49aOkh4fQzwfH2fY2P/DCsT21jaW77XXXqFtdABQ38MPPxyUXsqgNJM9H4WcdsUS74t7Y/nll086bDgf3DeLL754cPekg8w6FOh8wcMhHnUgrjeejz1VSJIU7zMup3kREAERMAIWesYzg05CPOroKOV5ytChPMsYWhSrN3k1UL6H63vcjklTERABERCB0UWgLwo4H/8MCcILEktbVs80H/0mxHZlCS9iFETKln3wP/nkk4kSGdcVW/Sw8sWCyzV/w03ieHpi2qpIlrKJhZb4+vjjBKbx+cCqaZZelHhiz2OFmIz222+/vWM8ctytEToyUMIsKz3LUFyxkpvQubLxxhvbzzDlownlnw4RXKyRq666qqlTJCws+Be7lcfDlbHJQQcdFP7yNkeB/cxnPpMosGThX3vttZuKH3fcccl6XLmxcMcu5jDC8rLSSiu5RRddNJQ988wzg6s/H4Jf/epXw59VShiAKeBw3HzzzW3VkGl8bFnnE7d+U77pELjooouGhGNQPy7l48ePDx+vnBfmOa+xxK6a1GPCPnCjj68RXP4ZPo2OBwTXfEYQKBPzCqAcViyJCIiACOQRwNuN0Bze93T48Q2B1ZtOT56HdAjzzOX5S3LL9PM/r14tFwEREAEREIFeE+iLAk7W4ypDkQGDF21ZdmiUnrIP+H322ScohCgWWGtRpBCUBernxZ62AqJokrylivz0pz+tUqyWMsS4mcRKjC3LmqYTbxHLjSdCWmLFCqYoXAiW3kmTJjUp37Yt7sTE8KJ0Uy8K+w9/+MPgtm5lUPCoAwVxq622GqJ8WzmmuMebAs5Y561IHNOcPuaierA60y6z5GKl/sY3vtG0Ca6PpmSyAsU6Vr7jwsQdbrDBBoEDy1Husbx3IvHxxPPUiRUb5giccQXPu2+IjWc9nTecD46J7elQMIk52jKGusOinhb2Q2eOJSy0DoV0ufRvOlxMjLv91lQEREAEYgK8o7F205mOJw8u6DxnsXrjRcW7kM5b8nukn49xPZoXAREQAREQgX4T6IsCXvfLMcsamAb7la98JVmEYm0KOIpWnhUZiy3WwSoSW5GrlO+kDNnHTWaffXabrTxdf/31M5XvdAVXXHFFsgjrdpm7O0oYCjhy3XXXNSngKPtYvFGoy7J9xx0hcbhA0pguzGDVtcz7KMp4PsSdEeySc0ySH/sQTMfKp5uFJcYEK0035fTTT0+qp/MiT/m2QijplLP7gnMXK+BWzqZ0TmQp37be8jvwG8tUFYldzuNrusq2KiMCIjCyCZDPg1wXPG9xMbcxvQlVQvnGw4qwH3Kg0FGO8i0RAREQAREQgUEg0BcFnMykvEyJY8XSllZ0AIeFHKsc7rIWP5sGyguaDKhkjR5NEiuw7Sh2ZHevIsR3mxCLXSZYIIixJraYLNqEB8SuzCiwsVIa14cFGmWbDys+uHopKN7EbJvQ8VD0MQd/4p+zhLZzTrgusxK4ZW1TxzK8SkxwZa8ilDMFvGy8e/NIyKuXc8uHMLkJzA0+r6wtj8vF17St11QERGD0EkD5JvwMqzcjbxAuQxgPHXerr756sH7j/WZW79FLSkcuAiIgAiIwaAT6ooADiXitImFIEQTXsjzhZUzyLv6GixBD3W3ho8OEMU9blTJLttVnid74TRK7LLdkK2tTlG8T2palcMMIN2U+qrAok0inXy7IuIbHXg64WcfWXDuWrClJ/bD0E9Jwzz33ZGYIz9qu7mV0Xti5ogMkjhUv2hflrMME/mZVSm/z+c9/Psninl4X/271PoS9STueHLatpiIgAiOLAJ2xeMXwPuEPrxpiwAlbmccnWSNXB+7nPMP4DmhH6CRFwacDH2t6OgdMWZ14GdGWPG8jjoEY9Xa9uFR/8RkQH/HR/TVynz/FV/fIWNszBfzaa68NmZ0ZixMX9CyrtyHFMmYKGUocscdVhB5zEpQxbNZ2fuzmdl3dsdwijCvO8FutCB8J3Zb4hY9VoFWJk6MVbUuGbhNT8Ox3lSnnMK2AX3zxxY5s6LGiXqWubpRJx33jml9lKDsUxwMPPND94Ac/6EazWq6Tl5BJOmu7Lc+bUt7OBR+5cWZy26YswaGVa3UaK+Bxp1Kr9ai8CIjAyCLw/PPPu+eee87dcMMNwaOIOG+eTSi8dN5j9Ub5LvqOKCOC8v3oo48GBfnOO+9sOWkbnQB4kzHNEp7LvCNi76SscnnLVH8emf8sFx/x0f01cp8/xVf3yFjbMwUchaUdJY4hjvLGAS86BbioMdZ4K0LyMLKnxq6x8XyVulotX6XOdBncfYlTRvnmQ6UXQpK1ViWddOzUU09tGlIOpYu4cDJ282GFayGxyXScYN3othx99NFNcd/nnntuU0b4rP3TqYBF2JRWyjAsGcNv4YKNhYbEbFiDsaYTW91tIRTDpFUPjLh8u5Yk23erU2I5TaSAGwlNRUAEIGDx37xTsVLz3iNUhU78TizfoisCIiACIiAC/SbQMwWcA0W5ove6aHiQ2J02hkMPeJngUoa7l1nPy8rbehQBYlxREIk75zcZr1EEf/SjHyVxsihdWJ/JeM5QWwhKOxZl2k3sL4pkL+T/2zubkB3eNYA//38nG1slu7MiSZKv8pEU+dxIUUinUJSViFLy+kqkZClyFgixE0qRslFkYcHybC1Y2Vid8/6mrufcxjzzzPu873O/H/O7at6ZZz7ue+7fzDsz13193Bs2bCiyXuO+TVb0NKHVRNVPYptgefbs2YE9CjgfxtdOx3M/ffp0MT52VQI9PryGLW/evOnQphCGRauL+479sJKH8k0yP46jA6FKemVIr9p3POvSzgoyBI9FItSDY3Ldu3F+z549KxZRvkmmpEhAAhKAAKFnKNzk0fjy5UthDcezDe80lHGevVXvjrHQo7N9yZIlxTudnB7pqAxNygkX6F778jzFQs47YxCx/Hpq8pGP/1//7HkTTPfnT8+GzaAN2RRwxttuYmEj4dqRI0cKxCjdMU4341U3TS6FVa+paxrxvyjdISjSqUITGZ2x5saQZOmLGsU3Ekj1yqYeZU/knOztMewUigxDd0200N5IzkV8XNmdfCz1ESsdwhjRkfwr1qXzUPrTdRO5TOx2Ot729evXOyQG7CckDoxhyLgfcF+Ma191bOpiXbV9otbRAYQSCzc6hHrFcpfr42M2OhP4X2sS418uY9DfJFaK/+3du3c3/n8dtD6Pk4AEpg8BlCuesXRu0mFPxyId7JGIjVCzdNixXslc61pMuUx8qJL3oy7fTF05vbbRhl7u6b2OGct6y6+nJR/51BOo3+r9M7l86mufGVv/ztWMJso37tShfG/atKnz8ePHzubNm4tTPHjwYOfFixeNTrdO+cZCzhjIIaF8o8AwJniMZRzbsZQi5fWxfbLmGzdu7FaNFXYYsmjRom6xoex3V/RYOHr0aOEdQEwdXgQhWMBDqsYfj23M45qk6yZqGXftAwcOdC37dGTUDa+V1stY5iG0oU75piMnvc/iuGHN16xZ0y2a+7iJpKMLNPEwaVJm033wLAnZtm1bLDqXgAQkUBDAY46hHgn5IVSJkVF4rn748KFDThm+BxjWEhd11isSkIAEJCCB6UIgmwLeDwhu37xkQ27cuFFY5B48eFC4m7GeD3VialPFLvavm2O9/ffouM5Y2nALJh49BMUbiywJU1D+iS0LQbENiydZwJsI2bAvXbrU+fHjR5PdB96HdkTnBB8iWHUnWkhkF3L+/PlOv4zrWIQZj/revXud9evX/5b9NbUGM/xcLyHxDt4Ow5KRkZHOq1eviuKxsNy9e7dv3HecS5rNts5lGg8Mxk0P63Ic328+no/ItBOBNvYbAo37M3XBp+Mkl/D/yz0Swr2iSEACEkgJ8C6eM2dOYZnGVZxOQp67KOZYw3kfff78uUhyhkfNt2/fivVpGS5LQAISkIAEpiKBKaGAv3z5skOmZYZzQi5cuFAktGKZuFzGlCbmCzl+/Hhnz549hattsaLBH5R5XLRTSzEWQ5R7lHPcodPxqikSZevYsWNF6Shq1NlE6EggYRlubcOWEydOdKtAQa6TNK46TdpVdwwfPydPnuzugjvgp0+fur/TBWKJSXwXwrjaaQx0amFNr0PszxxlOI07Z1163vxG0nXltqTb0mWOo17urZCnT58WY9HH737z1EWRc41s+elxfBRu2bKlc+XKlXR1TwtNakXnIzKV8rA4aXvSZY5Zt25dJ6zgWIRY7nWtcP3GoyMSBhLasXr16rTq3863acdAei3S5d8KHv3x+PHjrvs5nQBNs/KXy/G3BCQw8wngPcf7GeWb3Cc7duworOF8GzCMJc9xRkrhuUZmc0UCEpCABCQw1QlkiwGvAkFMLfG3ZIsOIeN5mqyL9bih8aLFgv369etCkUKZwi2dZF79YpOxFKOEI1j6GFqMHvVewnnt2rWr66Z8+fLlxgnIQqkZRlK08vniho6iRZw2bsdY8FNFN90fi0EISWyaCnxxpaZzhBhjlHAYrly5srguWFpJSpdmquecOC4VlLyIJyf+mvACzh8llmuLVZqEcmVJzzu2pUO9lduS/k6PpWOE+ycVOi3SLOCxjXWUQ1I9lGKy99MJg5LLnDhEPvaIG6eDgnUkCsJFHdfquAeiPObpuaTr07wBnA9W8+XLl3fevn1bjDGOQk+sI5Iq/Gk7o7z79+8XGdmJA6ccrhVeDJRHBxYhHlzHO3fuxCGFNYn7uyxp+cRbNpGfP392d+MalTu12Eh8etpxNExvh+7JuCABCUxbAoSUMZE0jQkPKubEfePJw4QHGL/p+ON5TOcxlnKs6DlzW0xbyJ64BCQgAQlkJZBdAcf9lHExcftOFQFaTaIuererhJculnIUu1DYOZ5p//79hYWa4aCqrGm4uGKx3LlzZ/Hirio/1uFyTtbSSASGJTcynsc+dfPIKl3nolx3/Fi3Xbx4sbAKcBxuyFgCyB5bFtzzQlCa+3VaxL5YGej0IFY6YrNR9nvFGXMOKJLlTPdkq0RxhSdy7dq1Yop6Ys7HE2OFo+wikQQvtjNP3dnLbfn+/Xt319QtH2W6LHhWNJEIeSArPp0N3EcouCjhve4NvCdI4sH1QeJ+KtdH8p/58+d33dUfPnzYYQrhHA8fPlz8JNt9SFWIA8PuobjT4RRD/hF6wVQltIOQAcIwylK+X8rbq36n14WMxVUKOCEk3AcIrvJNMs9X1eU6CUignQR4rtBxifcQnmY8T4gF/89oGBlhUDzP1q5dW3QQ0xGuAt7O+8RWS0ACEpjKBLIo4ChJT5486bx//77z/PnzP5QRElrhGrxgwYJaVihAWMwPHTrUOXfuXOHKygHEk0ZMKcoHL1+Ui0gixgsbS2AvQcF69+5doagwFnQIcbzUUye3bt3qnjcKCL+RYWY/Tc+HBDV79+4t3OlRlHF9TmPcY18+WCIRXur2HNvr5lgbUOzJtg6fsuLKB8+KFSsK1/te2cSpG3djtjPkG9busBSjgOISTUcJbWFfykMi83x6fnVtwV06jl28eHH3MO4dlHsUvjTOv7tDsoAVBYs19y2Kc9qZwFjfWO/PnDlTMAlFF2sLbVu2bFln3759RUgFrOJc2F4lnBcdS1y3uHdiv61bt3ZDL1jHx2SUx1i4VUIb6RggLwDKLvdEKlwrPBTwBkgzwaf7sMxHa9SVjgpQ3i9+wx1PFYTrV9UJRAdOjCePRT6NW49ynEtAAhKoI8Azk4n3GCOSYO3meUNYDi7oPLe/fv1aeDHxPOSZR2confN1CVrr6nSbBCQgAQlIYCIJ/DWqfP4/VfUAJWPFQsKyWVUEL0Q+uEPhin22b99eWMFQWgYRYlxRXIgpLQuKPgpMP6Fj4NSpU3/ElNMhEMpCuQx62fsp2CiYuP7mEKyNuJ6HZZE24UI/LKE+3PRxOea6Dupuj7Ua5Xb27NnDOtVxl8u/R5UyGQXz0Uc75s6dW7tf7F83x207mPDBWFdvXTnpNhRjrNlcK67TZFmcSa6HS3w8Awg7CAU/PV+XJSCBfASavL/znc3YauLZzERnKTlb+M7gvYQlPBRwwnfoxOXZgzJO5yvhSIxuwn4IVnRiy9McH8UG/0hAAhKQQOsJDOs9mcUCTg/1zZs3i0RouInjZo6COF437aVLl3YePXrUuX37dmFFRPFEGUexb6J8c1eR/C117eXYq1evdpPAVd15xI/jBk/yF6zeEfuK0sQLn6RuuZRvzo9kZ3Q4RPw32eRxlU6TolW1Y9B11JcmWBu0nLps6IOWOdHH9VOCscSk48KPp/5Zs2Z15s2bN54i/jgWS3YaZ/7HDhlW8MHLB24o34SDqHxnAG8VEpjBBHg2M2HZZqJzkY5QLOMo5OTPoLOY3Bd45RC2gzUcK3k5ieUMxmTTJCABCUhgChLIooDTbuK0cTUfhrUT917KZsLtt2nWZs4Lt1mSV5EgjKRuVS7P7FcW3Genkgst7tYkMkMRR7DAD0sBL7PwtwTqCBB6wv8mQrjBv2rCQerKcZsEJCCBXgToDCVcinc6nf4o4Cjf5BEhhArFnE57QtKaJpbsVZfrJSABCUhAAuMhkE0BxxKXIxnKIAo+CcaYpruQVZxJkcBUIhCdY1PpnDwXCUhgZhHAys1EWBMKOBMu54xqgUUcTzXcztmHBJ1YwXvl5phZZGyNBCQgAQlMNQLZFPCp1nDPRwISkIAEJCCBmUkA5RprOG7nCxcuLGK/GVaSkUqwjGMxZ70iAQlIQAISyE1ABTw3ceuTgAQkIAEJSGCoBLB+M+GWTp4OcrT8+vWriAHHIo4lnLhx1pN/Q5GABCQgAQnkIqACnou09UhAAhKQgAQkkJUAijZx3yR9JQ6cPBSMyoAyjnWcYRZJ4qZIQAISkIAEchFQAc9F2nokIAEJSEACEshKgLG/mbCEx4T7OTHhKOSs47ciAQlIQAISyEVABTwXaeuRgAQkIAEJSGBSCeB2vmrVqkk9ByuXgAQkIIF2E/i73c239RKQgAQkIAEJSEACEpCABCQggTwEVMDzcLYWCUhAAhKQgAQkIAEJSEACEmg5ARXwlt8ANl8CEpCABCQgAQlIQAISkIAE8hBQAc/D2VokIAEJSEACEpCABCQgAQlIoOUEVMBbfgPYfAlIQAISkIAEJCABCUhAAhLIQ0AFPA9na5GABCQgAQlIQAISkIAEJCCBlhNQAW/5DWDzJSABCUhAAhKQgAQkIAEJSCAPARXwPJytRQISkIAEJCABCUhAAhKQgARaTkAFvOU3gM2XgAQkIAEJSEACEpCABCQggTwEVMDzcLYWCUhAAhKQgAQkIAEJSEACEmg5ARXwlt8ANl8CEpCABCQgAQlIQAISkIAE8hBQAc/D2VokIAEJSEACEpCABCQgAQlIoOUE/jFR7R8ZGZmooixHAhKQgAQkIIFMBHx/ZwJtNRKQgAQkIIFRAlrAvQ0kIAEJSEACEpCABCQgAQlIQAIZCPz131HJUI9VSEACEpCABCQgAQlIQAISkIAEWk1AC3irL7+Nl4AEJCABCUhAAhKQgAQkIIFcBFTAc5G2HglIQAISkIAEJCABCUhAAhJoNQEV8FZffhsvAQlIQAISkIAEJCABCUhAArkIqIDnIm09EpCABCQgAQlIQAISkIAEJNBqAirgrb78Nl4CEpCABCQgAQlIQAISkIAEchFQAc9F2nokIAEJSEACEpCABCQgAQlIoNUEVMBbffltvAQkIAEJSEACEpCABCQgAQnkIqACnou09UhAAhKQgAQkIAEJSEACEpBAqwmogLf68tt4CUhAAhKQgAQkIAEJSEACEshFQAU8F2nrkYAEJCABCUhAAhKQgAQkIIFWE1ABb/Xlt/ESkIAEJCABCUhAAhKQgAQkkIuACngu0tYjAQlIQAISkIAEJCABCUhAAq0moALe6stv4yUgAQlIQAISkIAEJCABCUggFwEV8FykrUcCEpCABCQgAQlIQAISkIAEWk1ABbzVl9/GS0ACEpCABCQgAQlIQAISkEAuAirguUhbjwQkIAEJSEACEpCABCQgAQm0moAKeKsvv42XgAQkIAEJSEACEpCABCQggVwE/gfbu1DIFwDC4gAAAABJRU5ErkJggg==;" vertex="1" parent="WIyWlLk6GJQsqaUBKTNV-1">
          <mxGeometry x="460" y="830" width="992" height="508" as="geometry" />
        </mxCell>
      </root>
    </mxGraphModel>
  </diagram>
</mxfile>
